<?xml version="1.0" encoding="utf-8"?>
<!-- Generator: Adobe Illustrator 24.0.1, SVG Export Plug-In . SVG Version: 6.00 Build 0)  -->
<svg version="1.1" id="Layer_1" xmlns="http://www.w3.org/2000/svg" xmlns:xlink="http://www.w3.org/1999/xlink" x="0px" y="0px"
	 viewBox="0 0 425.2 397" style="enable-background:new 0 0 425.2 397;" xml:space="preserve">
<style type="text/css">
	.st0{fill:none;stroke:#B2B1B2;stroke-width:4;stroke-miterlimit:10;stroke-dasharray:3.38,3.38;}
	.st1{fill:#D2ECFC;}
	.st2{fill:#203E59;}
	.st3{fill:none;}
	.st4{fill:#192C4C;}
	.st5{fill:#B2B1B2;}
	.st6{fill:#E84C3D;}
	.st7{fill:#C6C6C6;}
	.st8{fill:#DADADA;}
	.st9{fill:#FFFFFF;}
	.st10{fill:#B2B2B2;}
	.st11{fill:#182C4B;}
	.st12{fill-rule:evenodd;clip-rule:evenodd;fill:#FFFFFF;}
</style>
<g>
	<g id="Capa_1">
		<circle class="st0" cx="215.2" cy="203.9" r="163.5"/>
		<path class="st1" d="M393.4,123.7c0,22.3-18.1,40.5-40.5,40.5c-22.3,0-40.5-18.1-40.5-40.5s18.1-40.5,40.5-40.5l0,0
			C375.3,83.3,393.4,101.4,393.4,123.7z"/>
		<path class="st1" d="M111.2,241c0,22.4-18.1,40.5-40.5,40.5S30.3,263.4,30.3,241s18.1-40.5,40.5-40.5c0,0,0,0,0,0
			C93.1,200.5,111.2,218.6,111.2,241C111.2,241,111.2,241,111.2,241z"/>
		<path class="st2" d="M255.6,48.1c0,22.3-18.1,40.5-40.5,40.5s-40.5-18.1-40.5-40.5s18.1-40.5,40.5-40.5l0,0
			C237.5,7.7,255.6,25.8,255.6,48.1C255.6,48.1,255.6,48.1,255.6,48.1z"/>
		<path class="st3" d="M255.6,48.1c0,22.3-18.1,40.5-40.5,40.5s-40.5-18.1-40.5-40.5s18.1-40.5,40.5-40.5l0,0
			C237.5,7.7,255.6,25.8,255.6,48.1C255.6,48.1,255.6,48.1,255.6,48.1z"/>
		<path class="st4" d="M269.4,14.6c0,3.8-3.1,6.9-6.9,6.9c-3.8,0-6.9-3.1-6.9-6.9c0-3.8,3.1-6.9,6.9-6.9
			C266.3,7.7,269.4,10.7,269.4,14.6C269.4,14.5,269.4,14.6,269.4,14.6z"/>
		<circle class="st1" cx="275.1" cy="30.2" r="5.1"/>
		<path class="st5" d="M284.3,14.6c0,2.5-2,4.6-4.6,4.7c-2.5,0-4.6-2-4.7-4.6s2-4.6,4.6-4.7c0,0,0,0,0,0
			C282.2,10,284.3,12,284.3,14.6z"/>
		<path class="st6" d="M81.9,60.7c2.2,3.1,1.3,7.4-1.8,9.6c-3.1,2.2-7.4,1.3-9.6-1.8c-2.1-3.1-1.3-7.4,1.8-9.6
			C75.5,56.8,79.8,57.6,81.9,60.7C81.9,60.7,81.9,60.7,81.9,60.7z"/>
		<path class="st2" d="M99.7,67.5c1.6,2.3,1,5.5-1.3,7.1c-2.3,1.6-5.5,1-7.1-1.3c-1.6-2.3-1-5.5,1.3-7.1
			C94.9,64.6,98.1,65.2,99.7,67.5z"/>
		<path class="st5" d="M94.2,52.3c1.4,2.1,0.9,5-1.2,6.4s-5,0.9-6.4-1.2c-1.4-2.1-0.9-5,1.2-6.4C89.9,49.7,92.8,50.2,94.2,52.3
			C94.2,52.3,94.2,52.3,94.2,52.3z"/>
		<path class="st1" d="M19,204.4c3.7,0.7,6.2,4.3,5.6,8c-0.7,3.7-4.3,6.2-8,5.6s-6.2-4.3-5.6-8c0,0,0,0,0,0
			C11.7,206.2,15.3,203.8,19,204.4z"/>
		<path class="st2" d="M36.3,196.7c2.8,0.5,4.6,3.2,4,6c-0.5,2.8-3.2,4.6-6,4c-2.8-0.5-4.6-3.2-4-6C30.8,198,33.5,196.2,36.3,196.7
			C36.3,196.7,36.3,196.7,36.3,196.7z"/>
		<path class="st5" d="M21.7,189.8c2.5,0.5,4.2,2.9,3.7,5.4c-0.5,2.5-2.9,4.2-5.4,3.7c-2.5-0.5-4.1-2.9-3.7-5.4
			C16.8,191,19.2,189.3,21.7,189.8z"/>
		<path class="st2" d="M395.5,152.4c3.2,2,4.3,6.2,2.3,9.5c-2,3.2-6.2,4.3-9.5,2.3c-3.2-2-4.3-6.2-2.3-9.5c0,0,0,0,0,0
			C388.1,151.5,392.3,150.4,395.5,152.4C395.5,152.4,395.5,152.4,395.5,152.4z"/>
		<path class="st4" d="M414.5,151.4c2.4,1.5,3.2,4.6,1.7,7c-1.5,2.4-4.6,3.2-7,1.7c-2.4-1.5-3.2-4.6-1.7-7c0,0,0,0,0,0
			C409,150.7,412.1,149.9,414.5,151.4z"/>
		<path class="st5" d="M403.3,139.7c2.2,1.3,2.9,4.2,1.5,6.3c-1.3,2.2-4.2,2.9-6.3,1.5c-2.2-1.3-2.9-4.2-1.5-6.3
			C398.3,139.1,401.2,138.4,403.3,139.7C403.3,139.7,403.3,139.7,403.3,139.7z"/>
		<path class="st1" d="M374,301.9c3.5-1.4,7.5,0.3,8.9,3.9c1.4,3.5-0.3,7.5-3.9,8.9s-7.5-0.3-8.9-3.9c0,0,0,0,0,0
			C368.8,307.3,370.5,303.3,374,301.9z"/>
		<path class="st6" d="M384.6,286.1c2.6-1,5.6,0.2,6.6,2.9c1,2.6-0.2,5.6-2.9,6.6s-5.6-0.2-6.6-2.9c0,0,0,0,0,0
			C380.7,290.1,382,287.1,384.6,286.1z"/>
		<path class="st5" d="M368.6,288c2.4-0.9,5,0.2,6,2.6c0.9,2.4-0.2,5-2.6,6c-2.4,0.9-5-0.2-6-2.6C365,291.6,366.2,289,368.6,288
			C368.5,288,368.6,288,368.6,288z"/>
		<path class="st1" d="M52.2,303.9c3.5-1.4,7.5,0.3,8.9,3.9s-0.3,7.5-3.9,8.9c-3.5,1.4-7.5-0.3-8.9-3.9
			C46.9,309.3,48.7,305.3,52.2,303.9C52.2,303.9,52.2,303.9,52.2,303.9z"/>
		<path class="st5" d="M62.8,288.1c2.6-1,5.6,0.2,6.6,2.9s-0.2,5.6-2.9,6.6c-2.6,1-5.6-0.2-6.6-2.9c0,0,0,0,0,0
			C58.9,292.1,60.2,289.1,62.8,288.1z"/>
		<path class="st2" d="M46.7,290c2.4-0.9,5,0.2,6,2.6c0.9,2.4-0.2,5-2.6,6c-2.4,0.9-5-0.2-6-2.6C43.2,293.6,44.4,290.9,46.7,290z"/>
		<path class="st7" d="M294.9,373.1c0,10-36.2,18.1-81,18.1s-81-8.1-81-18.1s36.2-18.1,81-18.1S294.9,363.1,294.9,373.1z"/>
		<path class="st8" d="M155.4,122.3h119.9c7.5,0,13.5,6.1,13.5,13.5v221c0,7.5-6.1,13.5-13.5,13.5H155.4c-7.5,0-13.5-6.1-13.5-13.5
			v-221C141.8,128.4,147.9,122.3,155.4,122.3z"/>
		<path class="st4" d="M157.4,124.9h115.8c7.2,0,13.1,5.8,13.1,13.1v216.8c0,7.2-5.8,13.1-13.1,13.1H157.4
			c-7.2,0-13.1-5.8-13.1-13.1V137.9C144.4,130.7,150.2,124.9,157.4,124.9z"/>
		<rect x="156.6" y="140.8" class="st9" width="117.5" height="205.4"/>
		<path class="st9" d="M233,356.3c0,1.9-1.5,3.4-3.4,3.4h-28.5c-1.9,0-3.4-1.5-3.4-3.4l0,0c0-1.9,1.5-3.4,3.4-3.4h28.5
			C231.5,352.9,233,354.4,233,356.3L233,356.3z"/>
		<path class="st10" d="M197.7,356.4c0,1.9,1.6,3.4,3.4,3.4h28.5c1.9,0,3.4-1.5,3.4-3.4H197.7z"/>
		<rect x="197.4" y="131.1" class="st10" width="31.2" height="2.5"/>
		<path class="st10" d="M233.3,132.4c0,1-0.8,1.7-1.8,1.7c-1,0-1.7-0.8-1.7-1.8c0-1,0.8-1.7,1.8-1.7c0,0,0,0,0,0
			C232.6,130.6,233.3,131.4,233.3,132.4C233.3,132.4,233.3,132.4,233.3,132.4z"/>
		<path class="st6" d="M117.9,123.9c0,22.3-18.1,40.5-40.5,40.5S37,146.2,37,123.8s18.1-40.5,40.5-40.5S117.9,101.5,117.9,123.9
			C117.9,123.9,117.9,123.9,117.9,123.9z"/>
		<path class="st11" d="M401.5,241c0,22.4-18.1,40.5-40.5,40.5s-40.5-18.1-40.5-40.5s18.1-40.5,40.5-40.5c0,0,0,0,0,0
			C383.4,200.5,401.5,218.6,401.5,241C401.5,241,401.5,241,401.5,241z"/>
		<g id="Layer_1_1_">
			<path class="st9" d="M203.7,30.1h-6v42h34v-6h6v-42h-34V30.1z M229.7,70.1h-30v-38h23v7h7V70.1z M224.7,33.6l3.6,3.6h-3.6V33.6z
				 M205.7,26.1h30v38h-4V37.7l-7.6-7.6h-18.4V26.1z"/>
			<path class="st9" d="M214.7,37.1h-12v12h12V37.1z M212.7,47.1h-8v-8h8V47.1z"/>
			<rect x="217.7" y="42.1" class="st9" width="9" height="2"/>
			<rect x="217.7" y="47.1" class="st9" width="9" height="2"/>
			<rect x="202.7" y="52.1" class="st9" width="15" height="2"/>
			<rect x="220.7" y="52.1" class="st9" width="6" height="2"/>
			<rect x="202.7" y="57.1" class="st9" width="6" height="2"/>
			<rect x="211.7" y="57.1" class="st9" width="15" height="2"/>
			<rect x="202.7" y="62.1" class="st9" width="14" height="2"/>
			<rect x="219.7" y="62.1" class="st9" width="7" height="2"/>
		</g>
		<path class="st9" d="M383.6,238.1h-3.2c-1.3-7.4-7-13.2-14.4-14.4v-3.2c0-1.6-1.3-2.9-2.9-2.9s-2.9,1.3-2.9,2.9v3.2
			c-7.4,1.3-13.1,7-14.4,14.4h-3.2c-1.6,0-2.9,1.3-2.9,2.9s1.3,2.9,2.9,2.9h3.2c1.3,7.4,7,13.1,14.4,14.4v3.2c0,1.6,1.3,2.9,2.9,2.9
			s2.9-1.3,2.9-2.9v-3.2c7.4-1.3,13.1-7,14.4-14.4h3.2c1.6,0,2.9-1.3,2.9-2.9S385.3,238.1,383.6,238.1L383.6,238.1z M363.1,252.8
			c-6.5,0-11.8-5.3-11.8-11.8s5.3-11.8,11.8-11.8c6.5,0,11.8,5.3,11.8,11.7C374.8,247.5,369.6,252.8,363.1,252.8
			C363.1,252.8,363.1,252.8,363.1,252.8L363.1,252.8z"/>
		<path class="st9" d="M363.1,235.1c-3.2,0-5.9,2.6-5.9,5.9s2.6,5.9,5.9,5.9s5.9-2.6,5.9-5.9S366.3,235.1,363.1,235.1L363.1,235.1z"
			/>
		<rect x="156.6" y="140.8" class="st5" width="117.5" height="7.4"/>
		<rect x="165.9" y="182.8" class="st5" width="32.5" height="32.5"/>
		<rect x="212.2" y="182.8" class="st5" width="52.4" height="8.4"/>
		<rect x="165.9" y="247.3" class="st5" width="98.6" height="8.4"/>
		<rect x="165.9" y="260.8" class="st5" width="98.6" height="8.4"/>
		<rect x="165.9" y="274.3" class="st5" width="98.6" height="8.4"/>
		<rect x="166" y="288.4" class="st5" width="98.6" height="8.4"/>
		<rect x="165.9" y="302.9" class="st5" width="98.6" height="8.4"/>
		<rect x="212.2" y="194.8" class="st5" width="52.4" height="8.4"/>
		<rect x="212.2" y="206.8" class="st5" width="52.4" height="8.4"/>
		<path class="st9" d="M91.1,101.5H61.4c-1.3,0-2.3,1-2.3,2.3c0,0,0,0,0,0v42.1c0,1.3,1,2.3,2.3,2.3c0,0,0,0,0,0h29.6
			c1.3,0,2.3-1,2.3-2.3v-42.1C93.4,102.5,92.3,101.5,91.1,101.5z M61.4,146.7c-0.4,0-0.8-0.3-0.8-0.8v-42.1c0-0.4,0.3-0.8,0.8-0.8
			h2.3v43.7H61.4z M91.8,145.9c0,0.4-0.3,0.8-0.8,0.8H65.3V103h25.7c0.4,0,0.8,0.3,0.8,0.8V145.9z"/>
		<path class="st9" d="M86.4,109.3H70.8c-0.4,0-0.8,0.3-0.8,0.8v9.4c0,0.4,0.3,0.8,0.8,0.8h15.6c0.4,0,0.8-0.3,0.8-0.8v-9.3
			C87.2,109.6,86.8,109.3,86.4,109.3C86.4,109.3,86.4,109.3,86.4,109.3z M85.6,118.6h-14v-7.8h14V118.6z"/>
		<path class="st9" d="M86.4,124.1H70.8c-0.4,0-0.8,0.3-0.8,0.8c0,0.4,0.3,0.8,0.8,0.8c0,0,0,0,0,0h15.6c0.4,0,0.8-0.4,0.8-0.8
			C87.1,124.4,86.8,124.1,86.4,124.1z"/>
		<path class="st9" d="M86.4,128H70.8c-0.4,0-0.8,0.4-0.8,0.8c0,0.4,0.3,0.8,0.8,0.8h15.6c0.4,0,0.8-0.4,0.8-0.8
			C87.1,128.3,86.8,128,86.4,128z"/>
		<path class="st9" d="M372.4,142h-38.9c-2.5,0-4.6-2.1-4.6-4.6v-25c0-2.5,2.1-4.6,4.6-4.6h38.9c2.5,0,4.6,2.1,4.6,4.6v25
			C377,139.9,374.9,142,372.4,142z M333.5,109.8c-1.4,0-2.5,1.1-2.5,2.5c0,0,0,0,0,0v25c0,1.4,1.1,2.5,2.5,2.5l0,0h38.9
			c1.4,0,2.5-1.1,2.5-2.5l0,0v-25c0-0.9-0.5-1.8-1.3-2.2c-0.4-0.2-0.8-0.3-1.3-0.3L333.5,109.8z"/>
		<path class="st9" d="M353.1,130.5c-0.3,0-0.5-0.1-0.7-0.3l-20.7-19.7c-0.4-0.4-0.4-1.1,0-1.5c0.4-0.4,1.1-0.4,1.5,0l0,0l20,19
			l20-19c0.4-0.4,1.1-0.4,1.5,0c0.4,0.4,0.4,1.1,0,1.5l-20.7,19.7C353.6,130.4,353.4,130.5,353.1,130.5z"/>
		<path class="st12" d="M80.8,263.4h-22c-2.2,0-4-1.8-4-4v-30c0-2.2,1.8-4,4-4h7v-4c0-2.2,1.8-4,4-4s4,1.8,4,4v4h7c2.2,0,4,1.8,4,4
			v30C84.8,261.6,83,263.4,80.8,263.4z M71.8,221.4c0-1.1-0.9-2-2-2s-2,0.9-2,2v6c0,1.1,0.9,2,2,2s2-0.9,2-2V221.4z M82.8,229.4
			c0-1.1-0.9-2-2-2h-7c0,2.2-1.8,4-4,4s-4-1.8-4-4h-7c-1.1,0-2,0.9-2,2v24h3.8c0.3-0.8,0.7-1.5,1.2-2.2c0,0,0.8-1.7,5-1.8v-1
			c-0.4-0.2-0.7-0.5-1-0.8c-0.8-0.7-1.3-1.6-1.5-2.6c-0.2-1.4-0.4-2.8-0.5-4.2c0-3.2,1.3-6.4,6-6.4h0.1c4.7,0,6,3.2,6,6.4
			c-0.1,1.4-0.3,2.8-0.5,4.2c-0.1,1-0.7,1.9-1.4,2.6c-0.3,0.3-0.7,0.6-1.1,0.8v1c4.2,0,5,1.8,5,1.8c0.4,0.7,0.8,1.5,1.1,2.2h3.8
			V229.4z M70.8,247.9L70.8,247.9v-0.8c0.7-0.4,1.4-0.8,2-1.4c0.4-0.4,0.6-0.8,0.7-1.4c0.1-1.2,0.2-2.5,0.2-3.7c0-2.1-1-4.3-4-4.3
			l0,0c-3,0-4,2.2-4,4.3c0,1.2,0.1,2.5,0.2,3.7c0.1,0.5,0.4,1,0.7,1.4c0.6,0.5,1.3,1,2,1.4v0.8l0,0c0,0,0,1.1,0,1.5
			c-0.1,1.1-1.1,2-2.2,2l0,0c-2.6,0.1-3.2,1-3.2,1c-0.2,0.3-0.4,0.6-0.6,1h14c-0.2-0.4-0.3-0.7-0.6-1c0,0-0.6-0.9-3.2-1l0,0
			c-1.2,0-2.1-0.9-2.2-2C70.8,249.1,70.8,247.9,70.8,247.9L70.8,247.9z M82.8,255.4h-26v4c0,1.1,0.9,2,2,2h22c1.1,0,2-0.9,2-2V255.4
			z M76.8,259.4h-3c-0.6,0-1-0.4-1-1s0.4-1,1-1h3c0.6,0,1,0.4,1,1S77.4,259.4,76.8,259.4z M68.8,259.4h-6c-0.6,0-1-0.4-1-1
			s0.4-1,1-1h6c0.6,0,1,0.4,1,1S69.4,259.4,68.8,259.4z M68.8,221.4h2v2h-2V221.4z"/>
	</g>
</g>
</svg>
