<?xml version="1.0" encoding="utf-8"?>
<!-- Generator: Adobe Illustrator 24.0.1, SVG Export Plug-In . SVG Version: 6.00 Build 0)  -->
<svg version="1.1" id="Capa_1" xmlns="http://www.w3.org/2000/svg" xmlns:xlink="http://www.w3.org/1999/xlink" x="0px" y="0px"
	 viewBox="0 0 368 369" style="enable-background:new 0 0 368 369;" xml:space="preserve">
<style type="text/css">
	.st0{fill:#203E59;}
	.st1{clip-path:url(#SVGID_2_);}
	.st2{fill:#182C4B;}
	.st3{fill:#FFFFFF;}
	.st4{fill:#E5E5E4;}
	.st5{fill:#B2B1B2;}
	.st6{fill:#E84C3D;}
	.st7{fill:#D2ECFC;}
	.st8{fill:#F8EAE2;}
</style>
<circle class="st0" cx="198.8" cy="169" r="162.3"/>
<g>
	<defs>
		<circle id="SVGID_1_" cx="198.8" cy="169" r="162.3"/>
	</defs>
	<clipPath id="SVGID_2_">
		<use xlink:href="#SVGID_1_"  style="overflow:visible;"/>
	</clipPath>
	<g class="st1">
		<polygon class="st2" points="136.2,290.2 207.4,361.4 391.2,361.4 391.2,164.4 261.4,34.6 255.4,268.5 		"/>
	</g>
</g>
<path class="st3" d="M148.4,29.7h100.8c9.8,0,17.7,7.9,17.7,17.7v230c0,9.8-7.9,17.7-17.7,17.7H148.4c-9.8,0-17.7-7.9-17.7-17.7
	v-230C130.6,37.6,138.6,29.7,148.4,29.7z"/>
<path class="st4" d="M183.9,49.2h29.6c1.3,0,2.3,1,2.3,2.3v0.2c0,1.3-1,2.3-2.3,2.3h-29.6c-1.3,0-2.3-1-2.3-2.3v-0.2
	C181.6,50.2,182.7,49.2,183.9,49.2z"/>
<path class="st4" d="M202.4,41.6c0,2-1.6,3.7-3.7,3.7c-2,0-3.7-1.6-3.7-3.7c0-2,1.6-3.7,3.7-3.7c0,0,0,0,0,0
	C200.8,37.9,202.4,39.6,202.4,41.6z"/>
<path class="st4" d="M210.3,278.3c0,6.4-5.2,11.5-11.5,11.5s-11.5-5.2-11.5-11.5c0-6.4,5.2-11.5,11.5-11.5l0,0
	C205.1,266.7,210.3,271.9,210.3,278.3z"/>
<rect x="135.9" y="63.7" class="st5" width="125.8" height="198.8"/>
<path class="st6" d="M200.4,127.8c-16.2,0.3-29.1,13.6-28.8,29.8c0.3,16.2,13.6,29.1,29.8,28.8c16-0.3,28.8-13.3,28.8-29.3
	C230,140.8,216.7,127.7,200.4,127.8C200.4,127.8,200.4,127.8,200.4,127.8z M200.4,182.6c-14.1-0.2-25.3-11.8-25.1-25.9
	s11.8-25.3,25.9-25.1c13.9,0.2,25.1,11.6,25.1,25.5C226.1,171.3,214.5,182.7,200.4,182.6z"/>
<path class="st6" d="M223,157.4c0,12.5-10.1,22.6-22.6,22.6c-12.5,0-22.6-10.1-22.6-22.6c0-12.5,10.1-22.6,22.6-22.6c0,0,0,0,0,0
	C212.9,134.8,223,144.9,223,157.4C223,157.4,223,157.4,223,157.4z"/>
<path class="st3" d="M190.3,152.9c0.3,0,0.6-0.3,0.6-0.6v-3.2c0.1-1.7,1.4-3,3.1-2.9c0,0,0,0,0,0h3c0.3,0,0.6-0.2,0.6-0.5
	c0-0.3-0.2-0.6-0.5-0.6c0,0-0.1,0-0.1,0h-3c-2.3-0.1-4.2,1.7-4.2,4v3.2C189.7,152.6,189.9,152.9,190.3,152.9
	C190.3,152.9,190.3,152.9,190.3,152.9z"/>
<path class="st3" d="M197,167.4h-3c-1.7,0.1-3.1-1.2-3.1-2.9c0,0,0,0,0,0v-3.2c0-0.3-0.3-0.6-0.6-0.6c-0.3,0-0.6,0.3-0.6,0.6v3.2
	c0.1,2.3,2,4.1,4.2,4h3c0.3,0,0.6-0.3,0.6-0.6C197.6,167.6,197.3,167.4,197,167.4L197,167.4z"/>
<path class="st3" d="M206.8,145h-3c-0.3,0-0.6,0.2-0.6,0.5c0,0.3,0.2,0.6,0.5,0.6c0,0,0.1,0,0.1,0h3c1.7-0.1,3.1,1.2,3.1,2.9
	c0,0,0,0,0,0v3.2c0,0.3,0.3,0.6,0.6,0.6c0.3,0,0.6-0.3,0.6-0.6V149C210.9,146.7,209,144.9,206.8,145z"/>
<path class="st3" d="M210.4,160.7c-0.3,0-0.6,0.3-0.6,0.6v3.2c-0.1,1.7-1.4,2.9-3.1,2.9c0,0,0,0,0,0h-3c-0.3,0-0.6,0.2-0.6,0.6
	c0,0.3,0.2,0.6,0.6,0.6c0,0,0,0,0,0h3c2.3,0.1,4.2-1.7,4.2-4v-3.2C211,160.9,210.7,160.7,210.4,160.7
	C210.4,160.7,210.4,160.7,210.4,160.7z"/>
<path class="st3" d="M198.9,155.2c-0.2,0.2-0.3,0.5-0.1,0.8c1,1.4,1.5,3,1.6,4.7c0,0.3,0.2,0.6,0.5,0.6c0.3,0,0.6-0.2,0.6-0.5
	c0,0,0-0.1,0-0.1c-0.1-1.9-0.7-3.8-1.8-5.4C199.5,155.1,199.2,155,198.9,155.2z"/>
<path class="st3" d="M197.9,152.4c-1.2,0.6-1.7,2-1.4,3.2c0.1,0.7,0.3,1.4,0.6,2c0.1,0.2,0.3,0.3,0.5,0.3c0.1,0,0.2,0,0.2-0.1
	c0.3-0.1,0.4-0.5,0.2-0.8c0,0-1.4-2.9,0.3-3.7c0.1,0,1.8-0.8,3.7,3.1c0.2,0.3,0.5,0.4,0.8,0.2c0.2-0.1,0.3-0.4,0.2-0.7
	C200.7,151.1,198,152.3,197.9,152.4z"/>
<path class="st3" d="M201.3,151.1c0.2,0.1,4,1.7,3,9.5c0,0.3,0.2,0.6,0.5,0.6h0.1c0.3,0,0.5-0.2,0.6-0.5c1.2-8.7-3.5-10.6-3.7-10.6
	c-0.3-0.1-0.6,0-0.7,0.3c0,0,0,0,0,0C200.9,150.7,201,151,201.3,151.1C201.3,151.1,201.3,151.1,201.3,151.1z"/>
<path class="st3" d="M194.8,155.9c-0.3,0-0.5,0.3-0.5,0.6c0,0,0,0,0,0c0.2,1.6,0.8,3,1.7,4.3c0.1,0.1,0.3,0.2,0.4,0.2
	c0.1,0,0.2,0,0.3-0.1c0.2-0.2,0.3-0.5,0.1-0.8c-0.8-1.1-1.3-2.4-1.5-3.8C195.3,156,195.1,155.8,194.8,155.9
	C194.8,155.9,194.8,155.9,194.8,155.9z"/>
<path class="st3" d="M194.2,153.3c0,0.3,0.2,0.6,0.5,0.6h0.1c0.3,0,0.5-0.2,0.6-0.5c0.4-1.8,2.1-3.1,3.9-2.9c0.3,0,0.6-0.2,0.6-0.5
	c0-0.3-0.2-0.6-0.5-0.6c0,0-0.1,0-0.1,0C196.9,149.4,194.7,151,194.2,153.3z"/>
<path class="st3" d="M193.1,164c-0.3,0-0.6,0.3-0.6,0.6c0,0.3,0.3,0.6,0.6,0.6h0.5c0.3,0,0.6-0.2,0.6-0.6c0-0.3-0.2-0.6-0.6-0.6
	c0,0,0,0,0,0H193.1z"/>
<path class="st3" d="M200.1,164h-0.5c-0.3,0-0.6,0.3-0.6,0.6c0,0.3,0.3,0.6,0.6,0.6h0.5c0.3,0,0.6-0.3,0.6-0.6
	C200.6,164.3,200.4,164,200.1,164z"/>
<path class="st3" d="M206,165.1h0.5c0.3,0,0.6-0.3,0.6-0.6c0-0.3-0.3-0.6-0.6-0.6H206c-0.3,0-0.6,0.3-0.6,0.6
	C205.4,164.9,205.7,165.1,206,165.1z"/>
<polygon class="st3" points="56.3,288.2 108.8,323.1 92.2,347.9 40.3,312.6 "/>
<polygon class="st0" points="49.2,290.6 106.8,331.9 88.6,361.4 6.3,361.4 "/>
<path class="st7" d="M74,270.9c0,0-1.5-12.2,4-22.4s17.2-26.2,25-38.1s12.8-12.3,17.2-10.1s5.9,5.2,4.4,7.3s-6.8,9-7.9,10.4
	c-1.6,1.9-0.2,2.6,0.2,2c1-1.2,5.2-5.8,8.8-10.5c2.7-4,7.9-5.3,12.2-3.2c3.6,1.7,5.8,5.9,4.5,8s-8.4,12.9-9.4,14.5s-0.1,1.7,0.4,1.7
	s6.4-8.1,9.9-13.2s8.4-6.3,12.4-5s6.6,4.6,5.5,6.6s-10.6,16.6-11.4,18s0.4,2.1,1.9,0.3s39.1-57.9,41.7-61.6s8.2-4.9,13.6-1.5
	s2.9,10.5,0.8,13.7S160.2,257,149.5,271c-0.7,0.9,0.7,1.2,1.2,0.7s9.8-12.5,15.6-19.6c6.2-7.5,11.1-6.9,12.9-6.4
	c2.1,0.5,4,1.5,5.6,2.9c-1.6,1.4-5.6,4.8-7.2,7.3c-1.3,1.8-1.8,3.9-1.5,6.1c-6.5,6.5-15.4,14.9-24.1,22.5
	c-10.3,9-22.4,15.9-35.5,20.1l-10.8,16.4l-45-30L74,270.9z"/>
<path class="st8" d="M177.6,256c1.7-2.5,5.6-5.9,7.2-7.3c0.6,0.5,1,1.2,1.1,2c0.1,1-3.9,5.4-9.9,11.4
	C175.7,260,176.3,257.8,177.6,256z"/>
<path class="st8" d="M194.9,176.7c1.3-1.8,3.4-2.8,5.6-2.7c1.9,0,3.7,0.6,5.2,1.6c1.2,0.7,2,1.9,2.3,3.2c0.6,2.8-0.9,6.1-1.9,7.6
	c-0.2,0.2-0.7,1-1.5,2.2c-2.5,0.2-6,0.2-8.5-1.7s-4.1-4.2-4.1-6.1C193.9,178.2,194.6,177.2,194.9,176.7z"/>
</svg>
