<svg xmlns="http://www.w3.org/2000/svg" xmlns:xlink="http://www.w3.org/1999/xlink" width="124" height="124" viewBox="0 0 124 124">
  <defs>
    <linearGradient id="linear-gradient" x1="0.5" x2="0.5" y2="1" gradientUnits="objectBoundingBox">
      <stop offset="0" stop-color="#f5f5f5"/>
      <stop offset="1" stop-color="#fff"/>
    </linearGradient>
  </defs>
  <g id="Group_316" data-name="Group 316" transform="translate(-902 -1856)">
    <circle id="Ellipse_5" data-name="Ellipse 5" cx="62" cy="62" r="62" transform="translate(902 1856)" fill="url(#linear-gradient)"/>
    <g id="Group_315" data-name="Group 315" transform="translate(822 1869)">
      <path id="Path_178" data-name="Path 178" d="M159.222,8H125.23A5.236,5.236,0,0,0,120,13.23v70.6a5.236,5.236,0,0,0,5.23,5.23h33.992a5.236,5.236,0,0,0,5.23-5.23V13.23A5.236,5.236,0,0,0,159.222,8Zm-10.878,2.615-.735,2.615h-10.9l-.654-2.615Zm13.492,73.214a2.618,2.618,0,0,1-2.615,2.615H125.23a2.618,2.618,0,0,1-2.615-2.615V13.23a2.618,2.618,0,0,1,2.615-2.615h8.13l1.061,4.239a1.307,1.307,0,0,0,1.268.99H148.6a1.307,1.307,0,0,0,1.258-.953l1.2-4.277h8.161a2.618,2.618,0,0,1,2.615,2.615Z" transform="translate(0 0)" fill="#182b4c"/>
      <path id="Path_179" data-name="Path 179" d="M162.459,456h-9.152a1.307,1.307,0,0,0,0,2.615h9.152a1.307,1.307,0,1,0,0-2.615Z" transform="translate(-26.77 -374.785)" fill="#182b4c"/>
      <path id="Path_180" data-name="Path 180" d="M234.615,456h-1.307a1.307,1.307,0,0,0,0,2.615h1.307a1.307,1.307,0,0,0,0-2.615Z" transform="translate(-93.696 -374.785)" fill="#182b4c"/>
      <g id="Path_216" data-name="Path 216" transform="translate(134 35)" fill="#fff" stroke-linecap="round" stroke-linejoin="round">
        <path d="M 7.038881778717041 17.53026008605957 C 6.354259490966797 16.7049560546875 5.217250823974609 15.2667121887207 4.094190120697021 13.61670303344727 C 2.098870038986206 10.68519306182861 1 8.335332870483398 1 7.000003337860107 C 1 3.691593170166016 3.691590070724487 1.000003099441528 7 1.000003099441528 C 10.30840969085693 1.000003099441528 13 3.691593170166016 13 7.000003337860107 C 13 8.322262763977051 11.94456958770752 10.63828277587891 10.02812957763672 13.52142333984375 C 8.855911254882813 15.28494071960449 7.717227935791016 16.73098945617676 7.038881778717041 17.53026008605957 Z" stroke="none"/>
        <path d="M 7 2.000003814697266 C 4.242989540100098 2.000003814697266 2 4.242993354797363 2 7.000002861022949 C 2 7.408633232116699 2.206560134887695 9.046863555908203 4.86439037322998 12.97085380554199 C 5.626901626586914 14.09661960601807 6.407946586608887 15.13628768920898 7.041823387145996 15.94200992584229 C 7.680060863494873 15.13060188293457 8.479533195495605 14.05320167541504 9.27455997467041 12.84821319580078 C 11.80346012115479 9.015263557434082 12 7.402883529663086 12 7.000002861022949 C 12 4.242993354797363 9.757009506225586 2.000003814697266 7 2.000003814697266 M 7 3.814697265625e-06 C 10.86598968505859 3.814697265625e-06 14 3.134002685546875 14 7.000002861022949 C 14 10.83791351318359 7.306987762451172 19.00130844116211 7.005558013916016 19.00130844116211 C 7.003352642059326 19.00130844116211 7.001515865325928 19.00087928771973 7 19.00000381469727 C 6.791279792785645 18.87949371337891 0 10.86599349975586 0 7.000002861022949 C 0 3.134002685546875 3.134010314941406 3.814697265625e-06 7 3.814697265625e-06 Z" stroke="none" fill="#e74c3c"/>
      </g>
      <g id="Ellipse_10" data-name="Ellipse 10" transform="translate(139 40)" fill="#fff" stroke="#e74c3c" stroke-width="1">
        <circle cx="2" cy="2" r="2" stroke="none"/>
        <circle cx="2" cy="2" r="1.5" fill="none"/>
      </g>
    </g>
  </g>
</svg>
