<svg xmlns="http://www.w3.org/2000/svg" xmlns:xlink="http://www.w3.org/1999/xlink" width="124" height="124" viewBox="0 0 124 124">
  <defs>
    <linearGradient id="linear-gradient" x1="0.5" x2="0.5" y2="1" gradientUnits="objectBoundingBox">
      <stop offset="0" stop-color="#f5f5f5"/>
      <stop offset="1" stop-color="#fff"/>
    </linearGradient>
  </defs>
  <g id="Group_735" data-name="Group 735" transform="translate(-11797 -820)">
    <g id="Group_734" data-name="Group 734" transform="translate(10415 -1048)">
      <circle id="Ellipse_4" data-name="Ellipse 4" cx="62" cy="62" r="62" transform="translate(1382 1868)" fill="url(#linear-gradient)"/>
    </g>
    <g id="Group_733" data-name="Group 733" transform="translate(11963.946 766.288)">
      <path id="Path_876" data-name="Path 876" d="M184.524,291.591a7.233,7.233,0,0,0-4.49-2.092,7.291,7.291,0,1,0-9.767,0,7.289,7.289,0,0,0-6.64,7.261v11.695a.956.956,0,1,0,1.912,0v-3.818l1.681.841a1.149,1.149,0,0,1,.639,1.033v8.3h-2.22a.1.1,0,0,1-.1-.1v-2.43a.956.956,0,1,0-1.912,0v2.43a2.014,2.014,0,0,0,2.012,2.012h19.022a2.014,2.014,0,0,0,2.012-2.012V296.76a7.241,7.241,0,0,0-2.149-5.169Zm-8.109-.209-1.187,1.595a.1.1,0,0,1-.154,0l-1.187-1.595Zm-6.643-7.291a5.379,5.379,0,1,1,5.379,5.379A5.385,5.385,0,0,1,169.772,284.091Zm-1.7,19.677L165.54,302.5v-5.74a5.379,5.379,0,0,1,5.414-5.379h.549l2.042,2.743.008.01a2.012,2.012,0,0,0,3.194,0l.008-.01,2.042-2.743h.585a5.379,5.379,0,0,1,5.379,5.379v5.74l-2.536,1.268a3.051,3.051,0,0,0-1.7,2.744v8.3H169.772v-8.3a3.05,3.05,0,0,0-1.7-2.744Zm16.586,11.041h-2.22v-8.3a1.149,1.149,0,0,1,.639-1.034l1.681-.841v10.071a.1.1,0,0,1-.1.1Z" transform="translate(-260.07 -173.461)" fill="#182b4c"/>
      <path id="Path_877" data-name="Path 877" d="M266.165,432.035a3.068,3.068,0,1,0-3.067-3.068A3.071,3.071,0,0,0,266.165,432.035Zm0-4.223a1.156,1.156,0,1,1-1.156,1.156A1.157,1.157,0,0,1,266.165,427.812Z" transform="translate(-346.861 -303.556)" fill="#e74c3c"/>
      <path id="Path_878" data-name="Path 878" d="M-14.087,379.34H-25.449v-1.156a2,2,0,0,0-1.112-1.8,2,2,0,0,0-2.107.19L-34.3,380.8a1.994,1.994,0,0,0-.8,1.609,2,2,0,0,0,.8,1.609l5.631,4.223a2,2,0,0,0,1.205.4,2.014,2.014,0,0,0,.9-.214,2,2,0,0,0,1.112-1.8v-1.156h11.362a2.014,2.014,0,0,0,2.012-2.012v-2.112A2.014,2.014,0,0,0-14.087,379.34Zm.1,4.123a.1.1,0,0,1-.1.1H-26.4a.956.956,0,0,0-.956.956v2.112a.089.089,0,0,1-.055.089.089.089,0,0,1-.1-.009l-5.631-4.223a.094.094,0,0,1-.04-.08.094.094,0,0,1,.04-.08l5.631-4.223a.091.091,0,0,1,.057-.022.106.106,0,0,1,.048.012.089.089,0,0,1,.055.089V380.3a.956.956,0,0,0,.956.956h12.318a.1.1,0,0,1,.1.1Z" transform="translate(-86.669 -260.166)" fill="#182b4c"/>
      <path id="Path_879" data-name="Path 879" d="M-12.881,480.2l-5.631-4.223a2,2,0,0,0-2.107-.19,2,2,0,0,0-1.112,1.8v1.156H-33.092A2.014,2.014,0,0,0-35.1,480.75v2.112a2.014,2.014,0,0,0,2.012,2.012H-21.73v1.156a2,2,0,0,0,1.112,1.8,2.014,2.014,0,0,0,.9.214,2,2,0,0,0,1.205-.4l5.631-4.223a1.994,1.994,0,0,0,.8-1.609A1.994,1.994,0,0,0-12.881,480.2Zm-1.147,1.689-5.631,4.223a.089.089,0,0,1-.1.009.089.089,0,0,1-.055-.089v-2.111a.956.956,0,0,0-.956-.956H-33.092a.1.1,0,0,1-.1-.1v-2.112a.1.1,0,0,1,.1-.1h12.318a.956.956,0,0,0,.956-.956v-2.112a.089.089,0,0,1,.055-.089.089.089,0,0,1,.1.009l5.631,4.223a.094.094,0,0,1,.04.08A.094.094,0,0,1-14.028,481.886Z" transform="translate(-86.668 -346.895)" fill="#182b4c"/>
      <path id="Path_880" data-name="Path 880" d="M-116.584,78a17.869,17.869,0,0,0-17.849,17.849A17.869,17.869,0,0,0-116.584,113.7a17.866,17.866,0,0,0,11.448-4.155.956.956,0,0,0,.12-1.347.956.956,0,0,0-1.347-.12,15.95,15.95,0,0,1-10.221,3.709,15.955,15.955,0,0,1-15.937-15.937,15.955,15.955,0,0,1,15.937-15.937,15.955,15.955,0,0,1,15.937,15.937,15.794,15.794,0,0,1-3.226,9.614.956.956,0,0,0,.185,1.339.956.956,0,0,0,1.339-.185,17.692,17.692,0,0,0,3.613-10.769A17.869,17.869,0,0,0-116.584,78Z" fill="#182b4c"/>
      <path id="Path_881" data-name="Path 881" d="M-87.674,111.134A13.641,13.641,0,0,0-101.3,124.759a13.641,13.641,0,0,0,13.626,13.626,13.641,13.641,0,0,0,13.625-13.626,13.641,13.641,0,0,0-13.625-13.625Zm0,25.339A11.727,11.727,0,0,1-99.388,124.76a11.727,11.727,0,0,1,11.714-11.713A11.727,11.727,0,0,1-75.961,124.76a11.727,11.727,0,0,1-11.713,11.714Z" transform="translate(-28.91 -28.911)" fill="#e74c3c"/>
      <path id="Path_882" data-name="Path 882" d="M-20.416,150.5a.956.956,0,0,0,.956.956.956.956,0,0,0,.956-.956,4.13,4.13,0,0,0-3.167-4.01v-1.269a.956.956,0,0,0-.956-.956.956.956,0,0,0-.956.956v1.269a4.13,4.13,0,0,0-3.168,4.01,4.13,4.13,0,0,0,3.168,4.01v4.316a2.212,2.212,0,0,1-1.256-1.991.956.956,0,0,0-.956-.956.956.956,0,0,0-.956.956,4.13,4.13,0,0,0,3.168,4.01v1.269a.956.956,0,0,0,.956.956.956.956,0,0,0,.956-.956v-1.269a4.13,4.13,0,0,0,3.167-4.01,4.13,4.13,0,0,0-3.167-4.01v-4.316A2.212,2.212,0,0,1-20.416,150.5Zm-4.423,0a2.212,2.212,0,0,1,1.256-1.991v3.982A2.212,2.212,0,0,1-24.839,150.5Zm4.423,6.335a2.212,2.212,0,0,1-1.255,1.991v-3.982A2.212,2.212,0,0,1-20.416,156.837Z" transform="translate(-93.957 -57.821)" fill="#e74c3c"/>
    </g>
  </g>
</svg>
