<svg xmlns="http://www.w3.org/2000/svg" xmlns:xlink="http://www.w3.org/1999/xlink" width="124" height="124" viewBox="0 0 124 124">
  <defs>
    <linearGradient id="linear-gradient" x1="0.5" x2="0.5" y2="1" gradientUnits="objectBoundingBox">
      <stop offset="0" stop-color="#f5f5f5"/>
      <stop offset="1" stop-color="#fff"/>
    </linearGradient>
  </defs>
  <g id="Group_1054" data-name="Group 1054" transform="translate(-783 -1356)">
    <g id="Group_670" data-name="Group 670" transform="translate(391 -524)">
      <circle id="Ellipse_5" data-name="Ellipse 5" cx="62" cy="62" r="62" transform="translate(392 1880)" fill="url(#linear-gradient)"/>
    </g>
    <g id="Group_709" data-name="Group 709" transform="translate(805.784 1382)">
      <g id="Group_684" data-name="Group 684" transform="translate(4)">
        <g id="Group_683" data-name="Group 683">
          <path id="Path_804" data-name="Path 804" d="M58,0H10A6.007,6.007,0,0,0,4,6V44.4a6,6,0,0,0,4.5,5.81l.6-2.323A3.6,3.6,0,0,1,6.4,44.4V6A3.6,3.6,0,0,1,10,2.4H58A3.6,3.6,0,0,1,61.6,6V7.2H64V6A6.007,6.007,0,0,0,58,0Z" transform="translate(-4)" fill="#182b4c"/>
        </g>
      </g>
      <g id="Group_686" data-name="Group 686" transform="translate(8.836 4.743)">
        <g id="Group_685" data-name="Group 685" transform="translate(0 0)">
          <rect id="Rectangle_305" data-name="Rectangle 305" width="2" height="2" transform="translate(0.381 0.257)" fill="#182b4c"/>
        </g>
      </g>
      <g id="Group_688" data-name="Group 688" transform="translate(13.579 4.743)">
        <g id="Group_687" data-name="Group 687" transform="translate(0 0)">
          <rect id="Rectangle_306" data-name="Rectangle 306" width="3" height="2" transform="translate(-0.362 0.257)" fill="#182b4c"/>
        </g>
      </g>
      <g id="Group_690" data-name="Group 690" transform="translate(18.321 4.743)">
        <g id="Group_689" data-name="Group 689" transform="translate(0 0)">
          <rect id="Rectangle_307" data-name="Rectangle 307" width="3" height="2" transform="translate(-0.105 0.257)" fill="#182b4c"/>
        </g>
      </g>
      <g id="Group_692" data-name="Group 692" transform="translate(16 19.2)">
        <g id="Group_691" data-name="Group 691">
          <path id="Path_805" data-name="Path 805" d="M142.449,175.152,131.067,163.77a16.6,16.6,0,0,0,1.426-3.37H134.4V158h-1.392A16.169,16.169,0,0,0,132,149.4V137.6h-2.4v7.642a16.889,16.889,0,0,0-2.4-2.491V132.8h-2.4v8.273a16.691,16.691,0,0,0-2.4-1.146V128H120v11.2a16.618,16.618,0,0,0-2.4-.337V130.4h-2.4v8.461a16.618,16.618,0,0,0-2.4.337v-4h-2.4v4.727a16.7,16.7,0,0,0-2.4,1.146V134h-2.4v8.75a16.889,16.889,0,0,0-2.4,2.491V136.4h-2.4v13a16.169,16.169,0,0,0-1.008,8.6H84v2.4h16.308a16.765,16.765,0,0,0,25.733,8.938l11.111,11.111a1.2,1.2,0,0,0,1.7,0l3.6-3.6A1.2,1.2,0,0,0,142.449,175.152ZM116.4,170a14.4,14.4,0,1,1,14.4-14.4A14.416,14.416,0,0,1,116.4,170Zm21.6,7.9-10.094-10.094a17,17,0,0,0,1.806-2L139.9,176Z" transform="translate(-84 -128)" fill="#e74c3c"/>
        </g>
      </g>
      <g id="Group_694" data-name="Group 694" transform="translate(36.4 34.8)">
        <g id="Group_693" data-name="Group 693">
          <path id="Path_806" data-name="Path 806" d="M232,232a12,12,0,1,0,12,12A12,12,0,0,0,232,232Zm0,21.6a9.6,9.6,0,0,1-8.3-4.8h16.6A9.6,9.6,0,0,1,232,253.6Zm-9.284-7.2A9.512,9.512,0,0,1,226,236.518V244h2.4v-8.893a9.556,9.556,0,0,1,2.4-.624V244h2.4v-9.517a9.556,9.556,0,0,1,2.4.624V244H238v-7.482a9.512,9.512,0,0,1,3.284,9.882Z" transform="translate(-220 -232)" fill="#e74c3c"/>
        </g>
      </g>
      <g id="Group_696" data-name="Group 696" transform="translate(11.2 9.6)">
        <g id="Group_695" data-name="Group 695">
          <path id="Path_807" data-name="Path 807" d="M106,64H58a6.007,6.007,0,0,0-6,6v38.4a6.007,6.007,0,0,0,6,6H73.6V112H58a3.6,3.6,0,0,1-3.6-3.6V70A3.6,3.6,0,0,1,58,66.4h48a3.6,3.6,0,0,1,3.6,3.6v38.4a3.6,3.6,0,0,1-.9,2.381l1.8,1.588A5.992,5.992,0,0,0,112,108.4V70A6.007,6.007,0,0,0,106,64Z" transform="translate(-52 -64)" fill="#182b4c"/>
        </g>
      </g>
      <g id="Group_698" data-name="Group 698" transform="translate(16.165 14.228)">
        <g id="Group_697" data-name="Group 697" transform="translate(0 0)">
          <rect id="Rectangle_308" data-name="Rectangle 308" width="2" height="3" transform="translate(0.051 -0.228)" fill="#182b4c"/>
        </g>
      </g>
      <g id="Group_700" data-name="Group 700" transform="translate(20.908 14.228)">
        <g id="Group_699" data-name="Group 699" transform="translate(0 0)">
          <rect id="Rectangle_309" data-name="Rectangle 309" width="2" height="3" transform="translate(0.308 -0.228)" fill="#182b4c"/>
        </g>
      </g>
      <g id="Group_702" data-name="Group 702" transform="translate(25.65 14.228)">
        <g id="Group_701" data-name="Group 701" transform="translate(0 0)">
          <rect id="Rectangle_310" data-name="Rectangle 310" width="3" height="3" transform="translate(-0.434 -0.228)" fill="#182b4c"/>
        </g>
      </g>
      <g id="Group_704" data-name="Group 704" transform="translate(18.321 39.665)">
        <g id="Group_703" data-name="Group 703" transform="translate(0 0)">
          <rect id="Rectangle_311" data-name="Rectangle 311" width="3" height="7" transform="translate(-0.105 0.335)" fill="#182b4c"/>
        </g>
      </g>
      <g id="Group_706" data-name="Group 706" transform="translate(23.064 32.336)">
        <g id="Group_705" data-name="Group 705" transform="translate(0 0)">
          <rect id="Rectangle_312" data-name="Rectangle 312" width="2" height="15" transform="translate(0.153 -0.336)" fill="#182b4c"/>
        </g>
      </g>
      <g id="Group_708" data-name="Group 708" transform="translate(27.806 36.216)">
        <g id="Group_707" data-name="Group 707" transform="translate(0 0)">
          <rect id="Rectangle_313" data-name="Rectangle 313" width="2" height="11" transform="translate(0.41 -0.216)" fill="#182b4c"/>
        </g>
      </g>
    </g>
  </g>
</svg>
