<svg xmlns="http://www.w3.org/2000/svg" xmlns:xlink="http://www.w3.org/1999/xlink" width="124" height="124" viewBox="0 0 124 124">
  <defs>
    <linearGradient id="linear-gradient" x1="0.5" x2="0.5" y2="1" gradientUnits="objectBoundingBox">
      <stop offset="0" stop-color="#f5f5f5"/>
      <stop offset="1" stop-color="#fff"/>
    </linearGradient>
  </defs>
  <g id="Group_323" data-name="Group 323" transform="translate(-1282 -1880)">
    <circle id="Ellipse_5" data-name="Ellipse 5" cx="62" cy="62" r="62" transform="translate(1282 1880)" fill="url(#linear-gradient)"/>
    <g id="Group_322" data-name="Group 322">
      <g id="Group_311" data-name="Group 311" transform="translate(1233.553 1901)">
        <g id="Group_310" data-name="Group 310" transform="translate(83.447)">
          <path id="Path_188" data-name="Path 188" d="M136.959,65.754a1.189,1.189,0,0,0-1.189,1.189V78.12a.657.657,0,0,1-.656.656h-6.39V55.366a1.189,1.189,0,0,0-2.378,0V78.776H113.478l3.732-4.105a2.131,2.131,0,0,0,.514-1.71c0-.012,0-.024-.006-.036l-3.554-21,.958-1.441a2.7,2.7,0,0,0,1.7.738,2.082,2.082,0,0,0,1.863-1.152h0l3.749-7.513,8.54,3.307a8.237,8.237,0,0,1,4.8,7.487V61.4a1.189,1.189,0,1,0,2.378,0V53.354a10.61,10.61,0,0,0-6.274-9.689l-.023-.009-14.213-5.5V34.819a11.139,11.139,0,0,0,4.216-7.327,5.146,5.146,0,0,0,3.023-1.233,5.047,5.047,0,0,0,.527-7.121v-4.4a14.733,14.733,0,1,0-29.467,0v4.519a4.773,4.773,0,0,0-1.226,3.182,5.038,5.038,0,0,0,1.753,3.825,5.143,5.143,0,0,0,3.021,1.232,11.021,11.021,0,0,0,4.457,7.5v3.157l-14.2,5.5-.022.009a10.609,10.609,0,0,0-6.274,9.689V78.119a3.038,3.038,0,0,0,3.034,3.034H97.807a1.189,1.189,0,0,0,0-2.378H95.25V55.366a1.189,1.189,0,0,0-2.378,0V78.776H86.481a.657.657,0,0,1-.656-.656V53.354a8.237,8.237,0,0,1,4.794-7.487l8.533-3.308,3.749,7.513a2.082,2.082,0,0,0,1.863,1.152,2.694,2.694,0,0,0,1.7-.738l.958,1.441-3.554,21c0,.012,0,.024-.006.036a2.131,2.131,0,0,0,.514,1.71l3.732,4.105h-4.754a1.189,1.189,0,1,0,0,2.378h31.759a3.038,3.038,0,0,0,3.034-3.034V66.943A1.189,1.189,0,0,0,136.959,65.754ZM120.209,41.7l-3.495,7-4.2-2.985,4.317-5.328Zm-7.027,7.412-.906,1.364h-2.965L108.4,49.11l2.389-1.7Zm-6.863-10.574V36.311a12.062,12.062,0,0,0,4.5.852,11.161,11.161,0,0,0,4.446-.927v2.309l-4.467,5.514Zm17.933-16.1a2.663,2.663,0,0,1-.925,2.021,2.769,2.769,0,0,1-1.373.632V19.782A2.689,2.689,0,0,1,124.251,22.434ZM99.386,25.088a2.686,2.686,0,0,1-2.3-2.654,2.823,2.823,0,0,1,2.3-2.593Zm.064-7.669a5.877,5.877,0,0,0-1.136.256V14.733a12.356,12.356,0,1,1,24.711,0v2.86a5.285,5.285,0,0,0-1.072-.207c0-1.147.01-.926-3.743-4.96a2.115,2.115,0,0,0-2.7-.329,22.92,22.92,0,0,1-13.856,3.73A2.114,2.114,0,0,0,99.45,17.419Zm2.314,8.6V18.216a25.4,25.4,0,0,0,14.858-4.007c1.721,1.848,2.653,2.817,2.954,3.186v8.629a8.907,8.907,0,0,1-17.812,0ZM104.873,48.7l-3.495-7,3.375-1.307,4.318,5.33Zm1.364,24.48,3.441-20.33h2.23l3.441,20.33-4.556,5.012Z" transform="translate(-83.447)" fill="#182b4c"/>
        </g>
      </g>
      <path id="Path_215" data-name="Path 215" d="M1340.807,1949.764l.807-.613,1.238,1.58h2.2l.984-1.58.811.613-.9,1.232,3.582,20.966s.157.471-.5,1.238-5.248,5.692-5.248,5.692l-5-5.362a1.963,1.963,0,0,1-.707-1.668c.188-.922,3.545-21,3.545-21Z" transform="translate(0.556 1.966)" fill="none" stroke="#e74c3c" stroke-width="2.4"/>
    </g>
  </g>
</svg>
