<svg xmlns="http://www.w3.org/2000/svg" xmlns:xlink="http://www.w3.org/1999/xlink" width="354.731" height="354.751" viewBox="0 0 354.731 354.751">
  <defs>
    <clipPath id="clip-path">
      <circle id="Ellipse_152" data-name="Ellipse 152" cx="162.28" cy="162.28" r="162.28" transform="translate(61.471 49.675)" fill="#133048"/>
    </clipPath>
  </defs>
  <g id="Group_509" data-name="Group 509" transform="translate(-31.301 -49.675)">
    <g id="Group_493" data-name="Group 493">
      <circle id="Ellipse_151" data-name="Ellipse 151" cx="162.28" cy="162.28" r="162.28" transform="translate(61.471 49.675)" fill="#133048"/>
      <g id="Group_492" data-name="Group 492" clip-path="url(#clip-path)">
        <path id="Path_635" data-name="Path 635" d="M161.182,333.217,232.37,404.4H416.2V207.379L286.4,77.576l-6.022,233.972Z" fill="#0d223b"/>
      </g>
    </g>
    <path id="Rectangle_229" data-name="Rectangle 229" d="M17.706,0H118.527a17.706,17.706,0,0,1,17.706,17.706V247.719a17.706,17.706,0,0,1-17.706,17.706H17.705A17.705,17.705,0,0,1,0,247.719V17.706A17.706,17.706,0,0,1,17.706,0Z" transform="translate(155.635 72.696)" fill="#fff"/>
    <rect id="Rectangle_230" data-name="Rectangle 230" width="34.256" height="4.798" rx="2.309" transform="translate(206.623 92.202)" fill="#dedede"/>
    <path id="Path_636" data-name="Path 636" d="M227.416,84.605a3.665,3.665,0,1,1-3.666-3.666A3.665,3.665,0,0,1,227.416,84.605Z" fill="#dedede"/>
    <path id="Path_637" data-name="Path 637" d="M235.27,321.261a11.52,11.52,0,1,1-11.519-11.519A11.519,11.519,0,0,1,235.27,321.261Z" fill="#dedede"/>
    <rect id="Rectangle_231" data-name="Rectangle 231" width="125.75" height="198.834" transform="translate(160.876 106.665)" fill="#a2a2a3"/>
    <path id="Path_638" data-name="Path 638" d="M225.347,170.816A29.285,29.285,0,1,0,255.111,200.1,29.525,29.525,0,0,0,225.347,170.816Zm0,54.76a25.482,25.482,0,1,1,25.9-25.478A25.689,25.689,0,0,1,225.347,225.576Z" fill="#e0332d"/>
    <g id="Group_507" data-name="Group 507">
      <path id="Path_639" data-name="Path 639" d="M247.951,200.4a22.6,22.6,0,1,1-22.6-22.6A22.6,22.6,0,0,1,247.951,200.4Z" fill="#e0332d"/>
      <g id="Group_506" data-name="Group 506">
        <g id="Group_494" data-name="Group 494">
          <path id="Path_640" data-name="Path 640" d="M215.263,195.857a.559.559,0,0,0,.559-.559v-3.249a3.021,3.021,0,0,1,3.126-2.9h3.019a.559.559,0,0,0,0-1.117h-3.019a4.138,4.138,0,0,0-4.244,4.013V195.3A.559.559,0,0,0,215.263,195.857Z" fill="#fff"/>
        </g>
        <g id="Group_495" data-name="Group 495">
          <path id="Path_641" data-name="Path 641" d="M221.967,210.382h-3.019a3.021,3.021,0,0,1-3.126-2.9v-3.25a.559.559,0,0,0-1.118,0v3.25a4.139,4.139,0,0,0,4.244,4.013h3.019a.559.559,0,0,0,0-1.118Z" fill="#fff"/>
        </g>
        <g id="Group_496" data-name="Group 496">
          <path id="Path_642" data-name="Path 642" d="M231.748,188.036h-3.019a.559.559,0,0,0,0,1.117h3.019a3.021,3.021,0,0,1,3.126,2.9V195.3a.559.559,0,0,0,1.118,0v-3.249A4.138,4.138,0,0,0,231.748,188.036Z" fill="#fff"/>
        </g>
        <g id="Group_497" data-name="Group 497">
          <path id="Path_643" data-name="Path 643" d="M235.433,203.679a.558.558,0,0,0-.559.558v3.25a3.021,3.021,0,0,1-3.126,2.9h-3.019a.559.559,0,0,0,0,1.118h3.019a4.139,4.139,0,0,0,4.244-4.013v-3.25A.558.558,0,0,0,235.433,203.679Z" fill="#fff"/>
        </g>
        <g id="Group_498" data-name="Group 498">
          <path id="Path_644" data-name="Path 644" d="M223.925,198.2a.558.558,0,0,0-.112.782,8.771,8.771,0,0,1,1.564,4.693.559.559,0,0,0,1.118,0,9.825,9.825,0,0,0-1.788-5.363A.558.558,0,0,0,223.925,198.2Z" fill="#fff"/>
        </g>
        <g id="Group_499" data-name="Group 499">
          <path id="Path_645" data-name="Path 645" d="M222.893,195.358a2.861,2.861,0,0,0-1.421,3.232,7.276,7.276,0,0,0,.613,1.987.556.556,0,0,0,.5.308.567.567,0,0,0,.249-.058.56.56,0,0,0,.251-.75c-.014-.028-1.4-2.866.3-3.715.073-.032,1.806-.752,3.73,3.1a.559.559,0,0,0,1-.5C225.656,194.047,223,195.3,222.893,195.358Z" fill="#fff"/>
        </g>
        <g id="Group_500" data-name="Group 500">
          <path id="Path_646" data-name="Path 646" d="M226.295,194.145c.165.065,4.035,1.678,3,9.46a.558.558,0,0,0,.48.627.468.468,0,0,0,.074.005.558.558,0,0,0,.553-.485c1.163-8.72-3.51-10.577-3.709-10.652a.559.559,0,0,0-.4,1.045Z" fill="#fff"/>
        </g>
        <g id="Group_501" data-name="Group 501">
          <path id="Path_647" data-name="Path 647" d="M219.763,198.857a.557.557,0,0,0-.476.63,9.808,9.808,0,0,0,1.688,4.332.559.559,0,0,0,.885-.682,8.853,8.853,0,0,1-1.467-3.8A.555.555,0,0,0,219.763,198.857Z" fill="#fff"/>
        </g>
        <g id="Group_502" data-name="Group 502">
          <path id="Path_648" data-name="Path 648" d="M219.239,196.328a.559.559,0,0,0,.464.64.533.533,0,0,0,.089.007.56.56,0,0,0,.551-.47,3.641,3.641,0,0,1,3.917-2.882.559.559,0,1,0,0-1.117A4.821,4.821,0,0,0,219.239,196.328Z" fill="#fff"/>
        </g>
        <g id="Group_503" data-name="Group 503">
          <path id="Path_649" data-name="Path 649" d="M218.115,207.031a.558.558,0,1,0,0,1.117h.5a.558.558,0,0,0,0-1.117Z" fill="#fff"/>
        </g>
        <g id="Group_504" data-name="Group 504">
          <path id="Path_650" data-name="Path 650" d="M225.069,207.031h-.5a.558.558,0,1,0,0,1.117h.5a.558.558,0,0,0,0-1.117Z" fill="#fff"/>
        </g>
        <g id="Group_505" data-name="Group 505">
          <path id="Path_651" data-name="Path 651" d="M231.023,208.148h.5a.558.558,0,1,0,0-1.117h-.5a.558.558,0,1,0,0,1.117Z" fill="#fff"/>
        </g>
      </g>
    </g>
    <g id="Group_508" data-name="Group 508">
      <path id="Path_652" data-name="Path 652" d="M81.33,331.194l52.437,34.891-16.549,24.822L65.28,355.6Z" fill="#fff"/>
      <path id="Path_653" data-name="Path 653" d="M74.248,333.6l57.594,41.263-18.249,29.562-82.292-.02Z" fill="#133048"/>
      <path id="Path_654" data-name="Path 654" d="M98.976,313.849s-1.495-12.163,3.987-22.431,17.25-26.221,25.031-38.126,12.792-12.269,17.229-10.129,5.9,5.221,4.385,7.31-6.747,9.016-7.936,10.391c-1.65,1.909-.244,2.6.209,2.036.957-1.2,5.179-5.759,8.772-10.495a9.543,9.543,0,0,1,12.166-3.184c3.6,1.672,5.795,5.952,4.49,8.04s-8.354,12.845-9.451,14.465-.065,1.684.412,1.684,6.4-8.115,9.93-13.174,8.4-6.3,12.41-4.965,6.587,4.582,5.536,6.587-10.6,16.612-11.36,17.949.382,2.1,1.91.285,39.142-57.948,41.72-61.576,8.168-4.861,13.6-1.5,2.888,10.516.819,13.663-47.607,69.355-58.369,83.346c-.684.888.733,1.163,1.206.689s9.772-12.468,15.622-19.572c6.223-7.558,11.054-6.918,12.931-6.354a14.671,14.671,0,0,1,5.6,2.887c-1.612,1.356-5.558,4.792-7.245,7.3a8.506,8.506,0,0,0-1.536,6.1c-6.53,6.514-15.431,14.848-24.061,22.529a100.893,100.893,0,0,1-35.463,20.09l-10.806,16.437L85.717,334.085Z" fill="#c7e8fc"/>
      <path id="Path_655" data-name="Path 655" d="M202.577,298.973c1.687-2.505,5.633-5.941,7.245-7.3a3.268,3.268,0,0,1,1.151,1.982c.1.95-3.909,5.407-9.932,11.412A8.506,8.506,0,0,1,202.577,298.973Z" fill="#f6e4db"/>
      <path id="Path_656" data-name="Path 656" d="M219.908,219.718a6.7,6.7,0,0,1,5.588-2.7,10.02,10.02,0,0,1,5.228,1.6,4.948,4.948,0,0,1,2.33,3.227c.624,2.828-.87,6.108-1.851,7.6-.16.242-.7,1.039-1.518,2.256-2.5.164-5.962.19-8.482-1.732-2.472-1.888-4.1-4.181-4.1-6.134C218.9,221.188,219.577,220.184,219.908,219.718Z" fill="#f6e4db"/>
    </g>
  </g>
</svg>
