<svg xmlns="http://www.w3.org/2000/svg" xmlns:xlink="http://www.w3.org/1999/xlink" width="124" height="124" viewBox="0 0 124 124">
  <defs>
    <linearGradient id="linear-gradient" x1="0.5" x2="0.5" y2="1" gradientUnits="objectBoundingBox">
      <stop offset="0" stop-color="#f5f5f5"/>
      <stop offset="1" stop-color="#fff"/>
    </linearGradient>
  </defs>
  <g id="Group_1063" data-name="Group 1063" transform="translate(-1282 -843)">
    <circle id="Ellipse_6" data-name="Ellipse 6" cx="62" cy="62" r="62" transform="translate(1282 843)" fill="url(#linear-gradient)"/>
    <g id="Group_317" data-name="Group 317" transform="translate(-106 -454)">
      <path id="Path_184" data-name="Path 184" d="M22.66,0H3.34A3.343,3.343,0,0,0,0,3.34V22.66A3.343,3.343,0,0,0,3.34,26H22.66A3.343,3.343,0,0,0,26,22.66V3.34A3.343,3.343,0,0,0,22.66,0ZM24,22.66A1.341,1.341,0,0,1,22.66,24H3.34A1.341,1.341,0,0,1,2,22.66V3.34A1.341,1.341,0,0,1,3.34,2H22.66A1.341,1.341,0,0,1,24,3.34Z" transform="translate(1422 1343)"/>
      <path id="Path_185" data-name="Path 185" d="M52.66,0H33.34A3.343,3.343,0,0,0,30,3.34V22.66A3.343,3.343,0,0,0,33.34,26H52.66A3.343,3.343,0,0,0,56,22.66V3.34A3.343,3.343,0,0,0,52.66,0ZM54,22.66A1.341,1.341,0,0,1,52.66,24H33.34A1.341,1.341,0,0,1,32,22.66V3.34A1.341,1.341,0,0,1,33.34,2H52.66A1.341,1.341,0,0,1,54,3.34Z" transform="translate(1422 1343)"/>
      <path id="Path_186" data-name="Path 186" d="M22.66,30H3.34A3.343,3.343,0,0,0,0,33.34V52.66A3.343,3.343,0,0,0,3.34,56H22.66A3.343,3.343,0,0,0,26,52.66V33.34A3.343,3.343,0,0,0,22.66,30ZM24,52.66A1.341,1.341,0,0,1,22.66,54H3.34A1.341,1.341,0,0,1,2,52.66V33.34A1.341,1.341,0,0,1,3.34,32H22.66A1.341,1.341,0,0,1,24,33.34Z" transform="translate(1422 1343)"/>
      <path id="Path_213" data-name="Path 213" d="M1484.223,1347v10.234l21.679-.241" transform="translate(-539.245 1588.379) rotate(-48)" fill="none" stroke="#e74c3c" stroke-linecap="round" stroke-linejoin="round" stroke-width="3"/>
    </g>
  </g>
</svg>
