<svg xmlns="http://www.w3.org/2000/svg" width="406.176" height="383.534" viewBox="0 0 406.176 383.534">
  <g id="Group_476" data-name="Group 476" transform="translate(-10.798 -17.67)">
    <g id="Group_460" data-name="Group 460">
      <circle id="Ellipse_147" data-name="Ellipse 147" cx="163.468" cy="163.468" r="163.468" transform="translate(48.222 53.996) rotate(-1.234)" fill="none" stroke="#a2a2a3" stroke-miterlimit="10" stroke-width="4" stroke-dasharray="3.379 3.379"/>
    </g>
    <path id="Path_505" data-name="Path 505" d="M393.394,133.717a40.462,40.462,0,1,1-40.463-40.461A40.462,40.462,0,0,1,393.394,133.717Z" fill="#c7e8fc"/>
    <path id="Path_506" data-name="Path 506" d="M111.195,251.011a40.462,40.462,0,1,1-40.462-40.463A40.461,40.461,0,0,1,111.195,251.011Z" fill="#c7e8fc"/>
    <path id="Path_507" data-name="Path 507" d="M77.254,174.316" fill="#de2e34"/>
    <path id="Path_508" data-name="Path 508" d="M77.252,174.18" fill="#de2e34"/>
    <g id="Group_461" data-name="Group 461">
      <path id="Path_509" data-name="Path 509" d="M255.634,58.131A40.462,40.462,0,1,1,215.172,17.67,40.463,40.463,0,0,1,255.634,58.131Z" fill="#133048"/>
    </g>
    <path id="Path_510" data-name="Path 510" d="M255.634,58.131A40.462,40.462,0,1,1,215.172,17.67,40.463,40.463,0,0,1,255.634,58.131Z" fill="none"/>
    <g id="Group_462" data-name="Group 462">
      <path id="Path_511" data-name="Path 511" d="M269.415,24.561a6.891,6.891,0,1,1-6.891-6.891A6.891,6.891,0,0,1,269.415,24.561Z" fill="#0e213c"/>
      <circle id="Ellipse_148" data-name="Ellipse 148" cx="5.111" cy="5.111" r="5.111" transform="translate(269.988 35.106)" fill="#c7e8fc"/>
      <path id="Path_512" data-name="Path 512" d="M284.324,24.561a4.613,4.613,0,1,1-4.613-4.613A4.612,4.612,0,0,1,284.324,24.561Z" fill="#a2a2a3"/>
    </g>
    <g id="Group_463" data-name="Group 463">
      <path id="Path_513" data-name="Path 513" d="M81.919,70.719a6.89,6.89,0,1,1-9.58-1.785A6.89,6.89,0,0,1,81.919,70.719Z" fill="#e0332d"/>
      <path id="Path_514" data-name="Path 514" d="M99.677,77.522A5.111,5.111,0,1,1,92.572,76.2,5.113,5.113,0,0,1,99.677,77.522Z" fill="#133048"/>
      <path id="Path_515" data-name="Path 515" d="M94.213,62.285A4.612,4.612,0,1,1,87.8,61.092,4.612,4.612,0,0,1,94.213,62.285Z" fill="#a2a2a3"/>
    </g>
    <g id="Group_464" data-name="Group 464">
      <path id="Path_516" data-name="Path 516" d="M18.952,214.442a6.89,6.89,0,1,1-8.036,5.511A6.89,6.89,0,0,1,18.952,214.442Z" fill="#c7e8fc"/>
      <path id="Path_517" data-name="Path 517" d="M36.32,206.7a5.111,5.111,0,1,1-5.961,4.087A5.111,5.111,0,0,1,36.32,206.7Z" fill="#133048"/>
      <path id="Path_518" data-name="Path 518" d="M21.681,199.783a4.612,4.612,0,1,1-5.378,3.692A4.614,4.614,0,0,1,21.681,199.783Z" fill="#a2a2a3"/>
    </g>
    <g id="Group_465" data-name="Group 465">
      <path id="Path_519" data-name="Path 519" d="M395.544,162.426a6.891,6.891,0,1,1-9.475,2.277A6.889,6.889,0,0,1,395.544,162.426Z" fill="#133048"/>
      <path id="Path_520" data-name="Path 520" d="M414.532,161.4a5.111,5.111,0,1,1-7.028,1.689A5.112,5.112,0,0,1,414.532,161.4Z" fill="#0e213c"/>
      <path id="Path_521" data-name="Path 521" d="M403.33,149.713a4.612,4.612,0,1,1-6.342,1.526A4.609,4.609,0,0,1,403.33,149.713Z" fill="#a2a2a3"/>
    </g>
    <g id="Group_466" data-name="Group 466">
      <path id="Path_522" data-name="Path 522" d="M374.052,311.889a6.891,6.891,0,1,1-3.874,8.941A6.891,6.891,0,0,1,374.052,311.889Z" fill="#c7e8fc"/>
      <path id="Path_523" data-name="Path 523" d="M384.64,296.092a5.111,5.111,0,1,1-2.874,6.633A5.114,5.114,0,0,1,384.64,296.092Z" fill="#e0332d"/>
      <path id="Path_524" data-name="Path 524" d="M368.568,298.026a4.612,4.612,0,1,1-2.592,5.984A4.61,4.61,0,0,1,368.568,298.026Z" fill="#a2a2a3"/>
    </g>
    <g id="Group_467" data-name="Group 467">
      <path id="Path_525" data-name="Path 525" d="M52.217,313.858a6.891,6.891,0,1,1-3.874,8.941A6.891,6.891,0,0,1,52.217,313.858Z" fill="#c7e8fc"/>
      <path id="Path_526" data-name="Path 526" d="M62.805,298.061a5.111,5.111,0,1,1-2.874,6.633A5.112,5.112,0,0,1,62.805,298.061Z" fill="#a2a2a3"/>
      <path id="Path_527" data-name="Path 527" d="M46.733,299.994a4.613,4.613,0,1,1-2.591,5.985A4.613,4.613,0,0,1,46.733,299.994Z" fill="#133048"/>
    </g>
    <path id="Path_528" data-name="Path 528" d="M294.863,383.115c0,9.99-36.255,18.089-80.974,18.089s-80.979-8.1-80.979-18.089,36.255-18.091,80.979-18.091S294.863,373.124,294.863,383.115Z" fill="#bababa"/>
    <g id="Group_470" data-name="Group 470">
      <rect id="Rectangle_202" data-name="Rectangle 202" width="147.012" height="248.014" rx="13.533" transform="translate(141.844 132.307)" fill="#d2d1d1"/>
      <path id="Rectangle_203" data-name="Rectangle 203" d="M13.062,0H128.844a13.065,13.065,0,0,1,13.065,13.065V229.824a13.063,13.063,0,0,1-13.062,13.063H13.061A13.061,13.061,0,0,1,0,229.825V13.062A13.062,13.062,0,0,1,13.062,0Z" transform="translate(144.393 134.869)" fill="#0e213c"/>
      <rect id="Rectangle_204" data-name="Rectangle 204" width="117.488" height="205.385" transform="translate(156.603 150.823)" fill="#fff"/>
      <g id="Group_468" data-name="Group 468">
        <path id="Path_529" data-name="Path 529" d="M233.036,366.315a3.431,3.431,0,0,1-3.43,3.425H201.093a3.423,3.423,0,0,1-3.429-3.425h0a3.425,3.425,0,0,1,3.429-3.426h28.513a3.432,3.432,0,0,1,3.43,3.426Z" fill="#fff"/>
        <path id="Path_530" data-name="Path 530" d="M197.664,366.358a3.429,3.429,0,0,0,3.429,3.382h28.513a3.433,3.433,0,0,0,3.43-3.382Z" fill="#a3a3a3"/>
      </g>
      <g id="Group_469" data-name="Group 469">
        <rect id="Rectangle_205" data-name="Rectangle 205" width="31.166" height="2.461" transform="translate(197.355 141.123)" fill="#a3a3a3"/>
        <path id="Path_531" data-name="Path 531" d="M233.34,142.356a1.743,1.743,0,1,1-1.741-1.743A1.744,1.744,0,0,1,233.34,142.356Z" fill="#a3a3a3"/>
      </g>
    </g>
    <path id="Path_532" data-name="Path 532" d="M117.874,133.853A40.462,40.462,0,1,1,77.413,93.39,40.463,40.463,0,0,1,117.874,133.853Z" fill="#e0332d"/>
    <path id="Path_533" data-name="Path 533" d="M401.525,251.008a40.462,40.462,0,1,1-40.463-40.461A40.464,40.464,0,0,1,401.525,251.008Z" fill="#0d223b"/>
    <g id="Layer_1" data-name="Layer 1">
      <path id="Path_534" data-name="Path 534" d="M203.664,40.132h-6v42h34v-6h6v-42h-34Zm26,40h-30v-38h23v7h7v31Zm-5-36.586,3.586,3.586h-3.586Zm-19-7.414h30v38h-4V47.718l-7.586-7.586H205.664Z" fill="#fff"/>
      <path id="Path_535" data-name="Path 535" d="M214.664,47.132h-12v12h12Zm-2,10h-8v-8h8Z" fill="#fff"/>
      <rect id="Rectangle_206" data-name="Rectangle 206" width="9" height="2" transform="translate(217.664 52.132)" fill="#fff"/>
      <rect id="Rectangle_207" data-name="Rectangle 207" width="9" height="2" transform="translate(217.664 57.132)" fill="#fff"/>
      <rect id="Rectangle_208" data-name="Rectangle 208" width="15" height="2" transform="translate(202.664 62.132)" fill="#fff"/>
      <rect id="Rectangle_209" data-name="Rectangle 209" width="6" height="2" transform="translate(220.664 62.132)" fill="#fff"/>
      <rect id="Rectangle_210" data-name="Rectangle 210" width="6" height="2" transform="translate(202.664 67.132)" fill="#fff"/>
      <rect id="Rectangle_211" data-name="Rectangle 211" width="15" height="2" transform="translate(211.664 67.132)" fill="#fff"/>
      <rect id="Rectangle_212" data-name="Rectangle 212" width="14" height="2" transform="translate(202.664 72.132)" fill="#fff"/>
      <rect id="Rectangle_213" data-name="Rectangle 213" width="7" height="2" transform="translate(219.664 72.132)" fill="#fff"/>
    </g>
    <g id="Group_471" data-name="Group 471">
      <path id="Path_536" data-name="Path 536" d="M383.646,248.07h-3.238A17.608,17.608,0,0,0,366,233.665v-3.238a2.94,2.94,0,0,0-5.88,0v3.238a17.609,17.609,0,0,0-14.4,14.405H342.48a2.94,2.94,0,1,0,0,5.88h3.238a17.609,17.609,0,0,0,14.4,14.405v3.238a2.94,2.94,0,0,0,5.88,0v-3.238a17.608,17.608,0,0,0,14.4-14.405h3.238a2.94,2.94,0,1,0,0-5.88Zm-20.583,14.7a11.761,11.761,0,1,1,11.761-11.761A11.761,11.761,0,0,1,363.063,262.771Z" fill="#fff"/>
      <path id="Path_537" data-name="Path 537" d="M363.063,245.129a5.881,5.881,0,1,0,5.881,5.881A5.881,5.881,0,0,0,363.063,245.129Z" fill="#fff"/>
    </g>
    <rect id="Rectangle_214" data-name="Rectangle 214" width="117.488" height="7.435" transform="translate(156.603 150.823)" fill="#a2a2a3"/>
    <rect id="Rectangle_215" data-name="Rectangle 215" width="32.49" height="32.49" transform="translate(165.866 192.756)" fill="#a2a2a3"/>
    <rect id="Rectangle_216" data-name="Rectangle 216" width="52.357" height="8.424" transform="translate(212.157 194.756)" fill="#a2a2a3"/>
    <rect id="Rectangle_217" data-name="Rectangle 217" width="98.649" height="8.424" transform="translate(165.866 257.335)" fill="#a2a2a3"/>
    <rect id="Rectangle_218" data-name="Rectangle 218" width="98.649" height="8.424" transform="translate(165.866 270.808)" fill="#a2a2a3"/>
    <rect id="Rectangle_219" data-name="Rectangle 219" width="98.649" height="8.424" transform="translate(165.848 284.281)" fill="#a2a2a3"/>
    <rect id="Rectangle_220" data-name="Rectangle 220" width="98.649" height="8.424" transform="translate(166.025 298.429)" fill="#a2a2a3"/>
    <rect id="Rectangle_221" data-name="Rectangle 221" width="98.649" height="8.424" transform="translate(165.848 312.906)" fill="#a2a2a3"/>
    <rect id="Rectangle_222" data-name="Rectangle 222" width="52.357" height="8.424" transform="translate(212.157 205.788)" fill="#a2a2a3"/>
    <rect id="Rectangle_223" data-name="Rectangle 223" width="52.357" height="8.424" transform="translate(212.157 216.821)" fill="#a2a2a3"/>
    <g id="Group_472" data-name="Group 472">
      <path id="Path_538" data-name="Path 538" d="M91.05,111.481H61.424a2.339,2.339,0,0,0-2.339,2.339v42.1a2.339,2.339,0,0,0,2.339,2.339H91.05a2.339,2.339,0,0,0,2.339-2.339v-42.1A2.339,2.339,0,0,0,91.05,111.481ZM61.424,156.7a.78.78,0,0,1-.779-.78v-42.1a.78.78,0,0,1,.779-.78h2.339V156.7Zm30.405-.78a.78.78,0,0,1-.779.78H65.322V113.04H91.05a.78.78,0,0,1,.779.78Z" fill="#fff"/>
      <path id="Path_539" data-name="Path 539" d="M86.372,119.277H70.78a.78.78,0,0,0-.78.779v9.356a.78.78,0,0,0,.78.78H86.372a.78.78,0,0,0,.78-.78v-9.356A.78.78,0,0,0,86.372,119.277Zm-.78,9.355H71.559v-7.8H85.592Z" fill="#fff"/>
      <path id="Path_540" data-name="Path 540" d="M86.372,134.09H70.78a.78.78,0,1,0,0,1.559H86.372a.78.78,0,1,0,0-1.559Z" fill="#fff"/>
      <path id="Path_541" data-name="Path 541" d="M86.372,137.988H70.78a.779.779,0,1,0,0,1.559H86.372a.779.779,0,1,0,0-1.559Z" fill="#fff"/>
    </g>
    <g id="Group_475" data-name="Group 475">
      <g id="Group_473" data-name="Group 473">
        <path id="Path_542" data-name="Path 542" d="M375.064,150.823H336.19a4.619,4.619,0,0,1-4.613-4.614V121.227a4.612,4.612,0,0,1,4.613-4.613h38.874a4.609,4.609,0,0,1,4.613,4.613v24.982A4.619,4.619,0,0,1,375.064,150.823ZM336.19,118.687a2.539,2.539,0,0,0-2.539,2.54v24.982a2.542,2.542,0,0,0,2.539,2.54h38.874a2.542,2.542,0,0,0,2.54-2.54V121.227a2.537,2.537,0,0,0-2.54-2.54Z" fill="#fff"/>
      </g>
      <g id="Group_474" data-name="Group 474">
        <path id="Path_543" data-name="Path 543" d="M355.835,139.316a1.034,1.034,0,0,1-.714-.285l-20.733-19.7a1.037,1.037,0,1,1,1.428-1.5l20.019,19.017,20.018-19.017a1.037,1.037,0,1,1,1.428,1.5l-20.732,19.7A1.034,1.034,0,0,1,355.835,139.316Z" fill="#fff"/>
      </g>
    </g>
    <path id="Path_544" data-name="Path 544" d="M80.8,273.426h-22a4,4,0,0,1-4-4v-30a4,4,0,0,1,4-4h7v-4a4,4,0,1,1,8,0v4h7a4,4,0,0,1,4,4v30A4,4,0,0,1,80.8,273.426Zm-9-42a2,2,0,1,0-4,0v6a2,2,0,0,0,4,0Zm11,8a2,2,0,0,0-2-2h-7a4,4,0,0,1-8,0h-7a2,2,0,0,0-2,2v24h3.8a10.841,10.841,0,0,1,1.16-2.24c.025-.014.848-1.739,5-1.79.006-.021.01-1.042.022-1.027a7.287,7.287,0,0,1-1.051-.816,4.187,4.187,0,0,1-1.452-2.583,39.457,39.457,0,0,1-.488-4.166c0-3.171,1.265-6.381,5.953-6.381h.121c4.688,0,5.953,3.21,5.953,6.381a39.459,39.459,0,0,1-.488,4.166,4.183,4.183,0,0,1-1.452,2.583,7.11,7.11,0,0,1-1.051.816c.013-.015.018,1.007.022,1.027,4.151.051,4.974,1.776,5,1.79a10.841,10.841,0,0,1,1.16,2.24h3.8ZM70.811,257.914v0l-.017-.781a11.219,11.219,0,0,0,2.031-1.378,3.029,3.029,0,0,0,.741-1.362,33.627,33.627,0,0,0,.238-3.7c0-2.062-1.033-4.28-4.007-4.28v0c-2.974,0-4.007,2.219-4.007,4.28a34.124,34.124,0,0,0,.238,3.7,3.029,3.029,0,0,0,.741,1.362,11.219,11.219,0,0,0,2.031,1.378s-.014.781-.018.781v0s.029,1.146.029,1.486a2.186,2.186,0,0,1-2.223,2.019h0c-2.593.114-3.2.976-3.21.984a4.882,4.882,0,0,0-.579,1.023H76.8a4.784,4.784,0,0,0-.582-1.022c-.006-.009-.619-.87-3.211-.984h0a2.186,2.186,0,0,1-2.224-2.019C70.781,259.06,70.811,257.914,70.811,257.914ZM82.8,265.426h-26v4a2,2,0,0,0,2,2h22a2,2,0,0,0,2-2Zm-6,4h-3a1,1,0,0,1,0-2h3a1,1,0,0,1,0,2Zm-8,0h-6a1,1,0,1,1,0-2h6a1,1,0,0,1,0,2Zm0-38h2v2h-2Z" fill="#fff" fill-rule="evenodd"/>
  </g>
</svg>
