<svg xmlns="http://www.w3.org/2000/svg" xmlns:xlink="http://www.w3.org/1999/xlink" width="79" height="79" viewBox="0 0 79 79">
  <defs>
    <linearGradient id="linear-gradient" x1="0.5" x2="0.5" y2="1" gradientUnits="objectBoundingBox">
      <stop offset="0" stop-color="#f5f5f5"/>
      <stop offset="1" stop-color="#fff"/>
    </linearGradient>
  </defs>
  <g id="Group_1103" data-name="Group 1103" transform="translate(-0.411)">
    <circle id="Ellipse_6" data-name="Ellipse 6" cx="39.5" cy="39.5" r="39.5" transform="translate(0.411)" fill="url(#linear-gradient)"/>
    <g id="Group_317" data-name="Group 317" transform="translate(21.661 19.233)">
      <path id="Path_184" data-name="Path 184" d="M16.894,0H2.49A2.493,2.493,0,0,0,0,2.49v14.4a2.493,2.493,0,0,0,2.49,2.49h14.4a2.493,2.493,0,0,0,2.49-2.49V2.49A2.493,2.493,0,0,0,16.894,0Zm1,16.894a1,1,0,0,1-1,1H2.49a1,1,0,0,1-1-1V2.49a1,1,0,0,1,1-1h14.4a1,1,0,0,1,1,1Z"/>
      <path id="Path_185" data-name="Path 185" d="M46.894,0H32.49A2.493,2.493,0,0,0,30,2.49v14.4a2.493,2.493,0,0,0,2.49,2.49h14.4a2.493,2.493,0,0,0,2.49-2.49V2.49A2.493,2.493,0,0,0,46.894,0Zm1,16.894a1,1,0,0,1-1,1H32.49a1,1,0,0,1-1-1V2.49a1,1,0,0,1,1-1h14.4a1,1,0,0,1,1,1Z" transform="translate(-7.634)"/>
      <path id="Path_186" data-name="Path 186" d="M16.894,30H2.49A2.493,2.493,0,0,0,0,32.49v14.4a2.493,2.493,0,0,0,2.49,2.49h14.4a2.493,2.493,0,0,0,2.49-2.49V32.49A2.493,2.493,0,0,0,16.894,30Zm1,16.894a1,1,0,0,1-1,1H2.49a1,1,0,0,1-1-1V32.49a1,1,0,0,1,1-1h14.4a1,1,0,0,1,1,1Z" transform="translate(0 -7.634)"/>
      <path id="Path_213" data-name="Path 213" d="M0,0V7.63l16.162-.18" transform="translate(24.536 32.585) rotate(-48)" fill="none" stroke="#e74c3c" stroke-linecap="round" stroke-linejoin="round" stroke-width="3"/>
    </g>
  </g>
</svg>
