<svg xmlns="http://www.w3.org/2000/svg" xmlns:xlink="http://www.w3.org/1999/xlink" width="79" height="79" viewBox="0 0 79 79">
  <defs>
    <linearGradient id="linear-gradient" x1="0.5" x2="0.5" y2="1" gradientUnits="objectBoundingBox">
      <stop offset="0" stop-color="#f5f5f5"/>
      <stop offset="1" stop-color="#fff"/>
    </linearGradient>
  </defs>
  <g id="Group_1104" data-name="Group 1104" transform="translate(-0.363)">
    <g id="Group_319" data-name="Group 319" transform="translate(0)">
      <circle id="Ellipse_2" data-name="Ellipse 2" cx="39.5" cy="39.5" r="39.5" transform="translate(0.363)" fill="url(#linear-gradient)"/>
    </g>
    <g id="Group_328" data-name="Group 328" transform="translate(25.484 14.653)">
      <path id="Path_189" data-name="Path 189" d="M111.6,37.208v4.139a.7.7,0,0,1-1.4,0V37.208a5.828,5.828,0,0,0-5.831-5.831,4.3,4.3,0,0,1-3.7-2.078.7.7,0,1,1,1.2-.729,2.911,2.911,0,0,0,2.5,1.406,7.228,7.228,0,0,1,7.232,7.232ZM99.375,30.184a.7.7,0,0,1-.535.834A6.707,6.707,0,0,1,93.626,30a4.249,4.249,0,0,1-3.17,1.379,5.828,5.828,0,0,0-5.831,5.831v4.139a.7.7,0,0,1-1.4,0V37.208a7.228,7.228,0,0,1,7.232-7.232,2.921,2.921,0,0,0,2.928-2.92v-.185a9.387,9.387,0,0,1-5.336-8.115,2.859,2.859,0,0,1-2.2-2.77V12.354c-.038-1.778.226-6.231,3.473-9.361C93.334-.872,99.764-.626,104.492,1.65a.7.7,0,0,1,.148,1.167,9.458,9.458,0,0,1,5.787,4.164.774.774,0,0,1,.161.551.709.709,0,0,1-.2.445,4.575,4.575,0,0,0-1.324,3.232v4.78a.7.7,0,0,1-1.4,0v-4.78A5.965,5.965,0,0,1,109.023,7.4a8.094,8.094,0,0,0-5.81-3.411l-1.232-.132a.7.7,0,0,1-.192-1.345l.56-.231c-7.295-2.543-15.1.283-15.1,10.066v3.64a1.447,1.447,0,0,0,.788,1.282V12.726a4.911,4.911,0,0,1,4.905-4.9h8.934a4.91,4.91,0,0,1,4.905,4.9v5.737A9.385,9.385,0,0,1,94.771,27.4a4.284,4.284,0,0,1-.367,1.431,5.307,5.307,0,0,0,4.137.816.7.7,0,0,1,.834.536Zm-1.961-3.8a7.98,7.98,0,0,0,7.971-7.971V12.726a3.507,3.507,0,0,0-3.5-3.5H92.946a3.508,3.508,0,0,0-3.5,3.5V18.41a7.98,7.98,0,0,0,7.971,7.971Zm7.095,12.076h-2.1a.7.7,0,1,0,0,1.4h2.1a.7.7,0,0,0,0-1.4Z" transform="translate(-83.224 3.823)" fill="#182b4c"/>
      <circle id="Ellipse_11" data-name="Ellipse 11" cx="3.5" cy="3.5" r="3.5" transform="translate(25.879 0.347)" fill="#e74c3c"/>
    </g>
  </g>
</svg>
