<svg xmlns="http://www.w3.org/2000/svg" width="217" height="218" viewBox="0 0 217 218">
  <g id="Group_1142" data-name="Group 1142" transform="translate(-48 -1969)">
    <g id="Group_514" data-name="Group 514" transform="translate(47.914 1968.996)">
      <ellipse id="Ellipse_14" data-name="Ellipse 14" cx="108.5" cy="109" rx="108.5" ry="109" transform="translate(0.086 0.004)" fill="#fcfcfc"/>
      <ellipse id="Ellipse_13" data-name="Ellipse 13" cx="91" cy="90.5" rx="91" ry="90.5" transform="translate(17.086 21.004)" fill="#f9f9f9"/>
      <path id="Path_664" data-name="Path 664" d="M149.559,121.965A74.78,74.78,0,0,1,0,121.965C0,80.8,149.559,80.8,149.559,121.965Z" transform="translate(33.488 -10.607)" fill="#f5f5f5"/>
    </g>
    <g id="Group_511" data-name="Group 511" transform="translate(121.188 2020.675)">
      <path id="Path_657" data-name="Path 657" d="M104.386,35.04,86.194,33.353l-7.226-16.78a1.458,1.458,0,0,0-2.678,0l-7.226,16.78L50.873,35.04a1.458,1.458,0,0,0-.828,2.547L63.771,49.644,59.754,67.467a1.458,1.458,0,0,0,2.166,1.574l15.709-9.328,15.709,9.328A1.458,1.458,0,0,0,95.5,67.467L91.488,49.644l13.726-12.058A1.458,1.458,0,0,0,104.386,35.04Z" transform="translate(-42.808 -15.049)" fill="#ffdc64"/>
      <g id="Group_510" data-name="Group 510" transform="translate(0 0)">
        <path id="Path_658" data-name="Path 658" d="M93.11,11.917c.927,1.288,3.545,6.82,5.041,10.044a.506.506,0,0,1-.807.581c-2.583-2.442-7-6.679-7.926-7.967a2.274,2.274,0,1,1,3.691-2.657Z" transform="translate(-76.886 -10.971)" fill="#fff082"/>
        <path id="Path_659" data-name="Path 659" d="M360.377,11.917c-.927,1.288-3.545,6.82-5.041,10.044a.506.506,0,0,0,.807.581c2.583-2.442,7-6.679,7.926-7.967a2.274,2.274,0,0,0-3.691-2.657Z" transform="translate(-306.959 -10.971)" fill="#fff082"/>
        <path id="Path_660" data-name="Path 660" d="M426.318,284.476c-1.509-.492-7.575-1.305-11.1-1.751a.506.506,0,0,0-.308.945c3.111,1.719,8.49,4.638,10,5.13a2.274,2.274,0,0,0,1.41-4.324Z" transform="translate(-358.246 -245.757)" fill="#fff082"/>
        <path id="Path_661" data-name="Path 661" d="M1.57,284.476c1.509-.492,7.575-1.305,11.1-1.751a.506.506,0,0,1,.308.945c-3.111,1.719-8.49,4.638-10,5.13a2.274,2.274,0,0,1-1.41-4.324Z" transform="translate(0 -245.757)" fill="#fff082"/>
        <path id="Path_662" data-name="Path 662" d="M239.794,411.211c0-1.587,1.108-7.606,1.777-11.1a.506.506,0,0,1,.994,0c.669,3.491,1.777,9.509,1.777,11.1a2.274,2.274,0,0,1-4.548,0Z" transform="translate(-207.177 -346.827)" fill="#fff082"/>
      </g>
      <path id="Path_663" data-name="Path 663" d="M81.6,22.675l-2.628-6.1a1.458,1.458,0,0,0-2.678,0l-7.226,16.78L50.873,35.04a1.458,1.458,0,0,0-.828,2.547L63.771,49.644,59.754,67.467a1.458,1.458,0,0,0,2.166,1.574L64.011,67.8A113.169,113.169,0,0,1,81.6,22.675Z" transform="translate(-42.808 -15.049)" fill="#ffc850"/>
    </g>
  </g>
</svg>
