<svg xmlns="http://www.w3.org/2000/svg" xmlns:xlink="http://www.w3.org/1999/xlink" width="273.77" height="273.786" viewBox="0 0 273.77 273.786">
  <defs>
    <clipPath id="clip-path">
      <circle id="Ellipse_152" data-name="Ellipse 152" cx="125.243" cy="125.243" r="125.243" fill="#133048"/>
    </clipPath>
  </defs>
  <g id="Group_1099" data-name="Group 1099" transform="translate(-31.301 -49.675)">
    <g id="Group_493" data-name="Group 493" transform="translate(54.585 49.675)">
      <circle id="Ellipse_151" data-name="Ellipse 151" cx="125.243" cy="125.243" r="125.243" fill="#133048"/>
      <g id="Group_492" data-name="Group 492" clip-path="url(#clip-path)">
        <path id="Path_635" data-name="Path 635" d="M161.182,274.872l54.941,54.941H358V177.754L257.82,77.576l-4.647,180.572Z" transform="translate(-84.228 -56.043)" fill="#0d223b"/>
      </g>
    </g>
    <path id="Rectangle_229" data-name="Rectangle 229" d="M17.706,0H87.434A17.706,17.706,0,0,1,105.14,17.706V187.141a17.706,17.706,0,0,1-17.706,17.706H17.705A17.705,17.705,0,0,1,0,187.141V17.706A17.706,17.706,0,0,1,17.706,0Z" transform="translate(127.258 67.442)" fill="#fff"/>
    <rect id="Rectangle_230" data-name="Rectangle 230" width="26.437" height="3.703" rx="1.852" transform="translate(166.609 82.496)" fill="#dedede"/>
    <path id="Path_636" data-name="Path 636" d="M225.743,83.768a2.829,2.829,0,1,1-2.829-2.829A2.829,2.829,0,0,1,225.743,83.768Z" transform="translate(-43.086 -7.135)" fill="#dedede"/>
    <path id="Path_637" data-name="Path 637" d="M230.012,318.632a8.89,8.89,0,1,1-8.89-8.89A8.89,8.89,0,0,1,230.012,318.632Z" transform="translate(-41.294 -59.355)" fill="#dedede"/>
    <rect id="Rectangle_231" data-name="Rectangle 231" width="97.05" height="153.454" transform="translate(131.303 93.658)" fill="#a2a2a3"/>
    <path id="Path_638" data-name="Path 638" d="M218.554,170.816a22.6,22.6,0,1,0,22.971,22.6A22.786,22.786,0,0,0,218.554,170.816Zm0,42.262a19.666,19.666,0,1,1,19.987-19.663A19.826,19.826,0,0,1,218.554,213.078Z" transform="translate(-37.495 -27.648)" fill="#e0332d"/>
    <g id="Group_507" data-name="Group 507" transform="translate(163.616 148.551)">
      <path id="Path_639" data-name="Path 639" d="M237.634,195.237a17.444,17.444,0,1,1-17.444-17.446A17.445,17.445,0,0,1,237.634,195.237Z" transform="translate(-202.745 -177.791)" fill="#e0332d"/>
      <g id="Group_506" data-name="Group 506" transform="translate(9.23 7.907)">
        <g id="Group_494" data-name="Group 494">
          <path id="Path_640" data-name="Path 640" d="M215.135,194.072a.431.431,0,0,0,.431-.431v-2.507a2.331,2.331,0,0,1,2.413-2.235h2.33a.431.431,0,0,0,0-.862h-2.33a3.194,3.194,0,0,0-3.275,3.1v2.507A.431.431,0,0,0,215.135,194.072Z" transform="translate(-214.704 -188.036)" fill="#fff"/>
        </g>
        <g id="Group_495" data-name="Group 495" transform="translate(0 12.073)">
          <path id="Path_641" data-name="Path 641" d="M220.309,208.852h-2.33a2.331,2.331,0,0,1-2.413-2.234V204.11a.431.431,0,0,0-.863,0v2.508a3.194,3.194,0,0,0,3.275,3.1h2.33a.431.431,0,0,0,0-.863Z" transform="translate(-214.704 -203.679)" fill="#fff"/>
        </g>
        <g id="Group_496" data-name="Group 496" transform="translate(10.393)">
          <path id="Path_642" data-name="Path 642" d="M230.932,188.036H228.6a.431.431,0,0,0,0,.862h2.33a2.331,2.331,0,0,1,2.413,2.235v2.507a.431.431,0,0,0,.863,0v-2.507A3.194,3.194,0,0,0,230.932,188.036Z" transform="translate(-228.171 -188.036)" fill="#fff"/>
        </g>
        <g id="Group_497" data-name="Group 497" transform="translate(10.393 12.073)">
          <path id="Path_643" data-name="Path 643" d="M233.776,203.679a.431.431,0,0,0-.431.431v2.508a2.331,2.331,0,0,1-2.413,2.234H228.6a.431.431,0,0,0,0,.863h2.33a3.194,3.194,0,0,0,3.275-3.1V204.11A.431.431,0,0,0,233.776,203.679Z" transform="translate(-228.171 -203.679)" fill="#fff"/>
        </g>
        <g id="Group_498" data-name="Group 498" transform="translate(6.944 7.761)">
          <path id="Path_644" data-name="Path 644" d="M223.874,198.178a.431.431,0,0,0-.086.6,6.769,6.769,0,0,1,1.207,3.622.431.431,0,0,0,.863,0,7.582,7.582,0,0,0-1.38-4.139A.43.43,0,0,0,223.874,198.178Z" transform="translate(-223.701 -198.092)" fill="#fff"/>
        </g>
        <g id="Group_499" data-name="Group 499" transform="translate(5.186 5.51)">
          <path id="Path_645" data-name="Path 645" d="M222.558,195.316a2.208,2.208,0,0,0-1.1,2.494,5.616,5.616,0,0,0,.473,1.534.429.429,0,0,0,.385.238.438.438,0,0,0,.192-.045.432.432,0,0,0,.194-.579c-.011-.022-1.079-2.212.23-2.867.056-.025,1.394-.58,2.879,2.39a.431.431,0,0,0,.772-.385C224.69,194.3,222.643,195.274,222.558,195.316Z" transform="translate(-221.423 -195.175)" fill="#fff"/>
        </g>
        <g id="Group_500" data-name="Group 500" transform="translate(8.67 3.881)">
          <path id="Path_646" data-name="Path 646" d="M226.214,193.9c.127.05,3.114,1.3,2.314,7.3a.431.431,0,0,0,.37.484.364.364,0,0,0,.057,0,.431.431,0,0,0,.427-.374c.9-6.73-2.709-8.163-2.863-8.221a.431.431,0,0,0-.306.806Z" transform="translate(-225.938 -193.065)" fill="#fff"/>
        </g>
        <g id="Group_501" data-name="Group 501" transform="translate(3.533 8.346)">
          <path id="Path_647" data-name="Path 647" d="M219.653,198.856a.43.43,0,0,0-.367.486,7.569,7.569,0,0,0,1.3,3.343.431.431,0,0,0,.683-.526,6.833,6.833,0,0,1-1.132-2.937A.428.428,0,0,0,219.653,198.856Z" transform="translate(-219.281 -198.851)" fill="#fff"/>
        </g>
        <g id="Group_502" data-name="Group 502" transform="translate(3.495 3.45)">
          <path id="Path_648" data-name="Path 648" d="M219.237,195.456a.432.432,0,0,0,.358.494.41.41,0,0,0,.069.005.432.432,0,0,0,.425-.363,2.81,2.81,0,0,1,3.023-2.224.431.431,0,1,0,0-.862A3.72,3.72,0,0,0,219.237,195.456Z" transform="translate(-219.232 -192.506)" fill="#fff"/>
        </g>
        <g id="Group_503" data-name="Group 503" transform="translate(2.201 14.66)">
          <path id="Path_649" data-name="Path 649" d="M217.987,207.031a.431.431,0,1,0,0,.862h.386a.431.431,0,0,0,0-.862Z" transform="translate(-217.556 -207.031)" fill="#fff"/>
        </g>
        <g id="Group_504" data-name="Group 504" transform="translate(7.182 14.66)">
          <path id="Path_650" data-name="Path 650" d="M224.827,207.031h-.386a.431.431,0,1,0,0,.862h.386a.431.431,0,0,0,0-.862Z" transform="translate(-224.01 -207.031)" fill="#fff"/>
        </g>
        <g id="Group_505" data-name="Group 505" transform="translate(12.163 14.66)">
          <path id="Path_651" data-name="Path 651" d="M230.9,207.893h.385a.431.431,0,1,0,0-.862H230.9a.431.431,0,1,0,0,.862Z" transform="translate(-230.464 -207.031)" fill="#fff"/>
        </g>
      </g>
    </g>
    <g id="Group_508" data-name="Group 508" transform="translate(31.301 177.304)">
      <path id="Path_652" data-name="Path 652" d="M77.667,331.194l40.469,26.928-12.772,19.157L65.28,350.033Z" transform="translate(-39.056 -241.555)" fill="#fff"/>
      <path id="Path_653" data-name="Path 653" d="M64.447,333.6,108.9,365.446,94.812,388.261,31.3,388.246Z" transform="translate(-31.301 -242.105)" fill="#133048"/>
      <path id="Path_654" data-name="Path 654" d="M95.95,291.3s-1.154-9.387,3.077-17.312,13.313-20.237,19.318-29.424,9.872-9.469,13.3-7.817,4.553,4.029,3.384,5.642-5.207,6.958-6.125,8.019c-1.273,1.473-.188,2.009.161,1.571.739-.927,4-4.445,6.77-8.1a7.365,7.365,0,0,1,9.389-2.457c2.781,1.29,4.472,4.594,3.465,6.205s-6.447,9.913-7.294,11.164-.05,1.3.318,1.3,4.937-6.263,7.664-10.167,6.483-4.864,9.578-3.832,5.084,3.536,4.273,5.084-8.178,12.821-8.767,13.852.295,1.621,1.474.22,30.209-44.723,32.2-47.522,6.3-3.752,10.495-1.157,2.229,8.116.632,10.545-36.742,53.526-45.047,64.324c-.528.685.566.9.931.532s7.542-9.622,12.057-15.105c4.8-5.833,8.531-5.339,9.98-4.9a11.322,11.322,0,0,1,4.321,2.228,35.931,35.931,0,0,0-5.591,5.632,6.564,6.564,0,0,0-1.185,4.705c-5.04,5.027-11.909,11.459-18.57,17.387a77.866,77.866,0,0,1-27.369,15.5l-8.34,12.686L85.717,306.917Z" transform="translate(-43.72 -215.047)" fill="#c7e8fc"/>
      <path id="Path_655" data-name="Path 655" d="M202.2,297.308a35.928,35.928,0,0,1,5.591-5.632,2.522,2.522,0,0,1,.888,1.53c.076.733-3.017,4.173-7.665,8.807A6.564,6.564,0,0,1,202.2,297.308Z" transform="translate(-70.013 -232.536)" fill="#f6e4db"/>
      <path id="Path_656" data-name="Path 656" d="M219.267,219.1a5.172,5.172,0,0,1,4.313-2.083,7.733,7.733,0,0,1,4.035,1.235,3.818,3.818,0,0,1,1.8,2.49c.482,2.183-.671,4.714-1.429,5.866-.123.187-.536.8-1.172,1.741-1.926.127-4.6.147-6.546-1.337-1.908-1.457-3.168-3.227-3.168-4.734C218.486,220.236,219.011,219.462,219.267,219.1Z" transform="translate(-73.705 -215.497)" fill="#f6e4db"/>
    </g>
  </g>
</svg>
