<svg xmlns="http://www.w3.org/2000/svg" xmlns:xlink="http://www.w3.org/1999/xlink" width="78" height="78" viewBox="0 0 78 78">
  <defs>
    <linearGradient id="linear-gradient" x1="0.5" x2="0.5" y2="1" gradientUnits="objectBoundingBox">
      <stop offset="0" stop-color="#f5f5f5"/>
      <stop offset="1" stop-color="#fff"/>
    </linearGradient>
    <linearGradient id="linear-gradient-2" x1="0.5" x2="0.5" y2="1" gradientUnits="objectBoundingBox">
      <stop offset="0" stop-color="#182b4c"/>
      <stop offset="1" stop-color="#05090f"/>
    </linearGradient>
  </defs>
  <g id="Group_1100" data-name="Group 1100" transform="translate(-1381.538 -1868)">
    <circle id="Ellipse_4" data-name="Ellipse 4" cx="39" cy="39" r="39" transform="translate(1381.538 1868)" fill="url(#linear-gradient)"/>
    <g id="Calendar" transform="translate(1398.258 1884.258)">
      <path id="Path_191" data-name="Path 191" d="M56.727,20.443h-3.7V18.962a2.962,2.962,0,1,0-5.924,0v1.481H41.177V18.962a2.962,2.962,0,1,0-5.924,0v1.481H29.329V18.962a2.962,2.962,0,1,0-5.924,0v1.481H19.7a3.7,3.7,0,0,0-3.7,3.7v29.62a3.7,3.7,0,0,0,3.7,3.7H40.436a.74.74,0,0,0,0-1.481H19.7a2.228,2.228,0,0,1-2.221-2.221V30.81H58.948V43.4a.74.74,0,0,0,1.481,0V24.145A3.7,3.7,0,0,0,56.727,20.443Zm-8.145-1.481a1.481,1.481,0,1,1,2.962,0V23.4a1.481,1.481,0,1,1-2.962,0Zm-11.848,0a1.481,1.481,0,0,1,2.962,0V23.4a1.481,1.481,0,1,1-2.962,0Zm-11.848,0a1.481,1.481,0,0,1,2.962,0V23.4a1.481,1.481,0,1,1-2.962,0ZM58.948,29.329H17.481V24.145A2.228,2.228,0,0,1,19.7,21.924h3.7V23.4a2.962,2.962,0,1,0,5.924,0V21.924h5.924V23.4a2.962,2.962,0,1,0,5.924,0V21.924H47.1V23.4a2.962,2.962,0,1,0,5.924,0V21.924h3.7a2.228,2.228,0,0,1,2.221,2.221Z" transform="translate(-16 -16)" fill="#182b4c"/>
      <path id="Path_192" data-name="Path 192" d="M181.924,217.481A1.481,1.481,0,0,0,180.443,216h-2.962A1.481,1.481,0,0,0,176,217.481V219.7a1.481,1.481,0,0,0,1.481,1.481h2.962a1.481,1.481,0,0,0,1.481-1.481Zm-4.443,2.221v-2.221h2.962V219.7Z" transform="translate(-161.19 -197.488)" fill="url(#linear-gradient-2)"/>
      <path id="Path_193" data-name="Path 193" d="M85.924,217.481A1.481,1.481,0,0,0,84.443,216H81.481A1.481,1.481,0,0,0,80,217.481V219.7a1.481,1.481,0,0,0,1.481,1.481h2.962a1.481,1.481,0,0,0,1.481-1.481ZM81.481,219.7v-2.221h2.962V219.7Z" transform="translate(-74.076 -197.488)" fill="url(#linear-gradient-2)"/>
      <path id="Path_194" data-name="Path 194" d="M372.443,221.183a1.481,1.481,0,0,0,1.481-1.481v-2.221A1.481,1.481,0,0,0,372.443,216h-2.962A1.481,1.481,0,0,0,368,217.481V219.7a1.481,1.481,0,0,0,1.481,1.481Zm-2.962-3.7h2.962V219.7h-2.962Z" transform="translate(-335.419 -197.488)" fill="url(#linear-gradient-2)"/>
      <path id="Path_195" data-name="Path 195" d="M181.924,289.481A1.481,1.481,0,0,0,180.443,288h-2.962A1.481,1.481,0,0,0,176,289.481V291.7a1.481,1.481,0,0,0,1.481,1.481h2.962a1.481,1.481,0,0,0,1.481-1.481Zm-4.443,2.221v-2.221h2.962V291.7Z" transform="translate(-161.19 -262.823)" fill="url(#linear-gradient-2)"/>
      <path id="Path_196" data-name="Path 196" d="M85.924,289.481A1.481,1.481,0,0,0,84.443,288H81.481A1.481,1.481,0,0,0,80,289.481V291.7a1.481,1.481,0,0,0,1.481,1.481h2.962a1.481,1.481,0,0,0,1.481-1.481ZM81.481,291.7v-2.221h2.962V291.7Z" transform="translate(-74.076 -262.823)" fill="url(#linear-gradient-2)"/>
      <path id="Path_197" data-name="Path 197" d="M180.443,360h-2.962A1.481,1.481,0,0,0,176,361.481V363.7a1.481,1.481,0,0,0,1.481,1.481h2.962a1.481,1.481,0,0,0,1.481-1.481v-2.221A1.481,1.481,0,0,0,180.443,360Zm-2.962,3.7v-2.221h2.962V363.7Z" transform="translate(-161.19 -328.159)" fill="url(#linear-gradient-2)"/>
      <path id="Path_198" data-name="Path 198" d="M273.481,221.183h2.962a1.481,1.481,0,0,0,1.481-1.481v-2.221A1.481,1.481,0,0,0,276.443,216h-2.962A1.481,1.481,0,0,0,272,217.481V219.7A1.481,1.481,0,0,0,273.481,221.183Zm0-3.7h2.962V219.7h-2.962Z" transform="translate(-248.304 -197.488)" fill="url(#linear-gradient-2)"/>
      <path id="Path_199" data-name="Path 199" d="M272,291.7a1.481,1.481,0,0,0,1.481,1.481.74.74,0,0,0,0-1.481v-2.221h2.962a.74.74,0,1,0,0-1.481h-2.962A1.481,1.481,0,0,0,272,289.481Z" transform="translate(-248.304 -262.823)" fill="url(#linear-gradient-2)"/>
      <path id="Path_200" data-name="Path 200" d="M84.443,360H81.481A1.481,1.481,0,0,0,80,361.481V363.7a1.481,1.481,0,0,0,1.481,1.481h2.962a1.481,1.481,0,0,0,1.481-1.481v-2.221A1.481,1.481,0,0,0,84.443,360Zm-2.962,3.7v-2.221h2.962V363.7Z" transform="translate(-74.076 -328.159)" fill="url(#linear-gradient-2)"/>
      <path id="Path_201" data-name="Path 201" d="M297.626,288a9.626,9.626,0,1,0,9.626,9.626A9.626,9.626,0,0,0,297.626,288Zm0,17.772a8.145,8.145,0,1,1,8.145-8.145A8.145,8.145,0,0,1,297.626,305.772Z" transform="translate(-262.823 -262.823)" fill="#e74c3c"/>
      <path id="Path_202" data-name="Path 202" d="M343.794,356.426l-5.76,5.76-2.618-2.618a.74.74,0,0,0-1.047,1.047l3.141,3.142a.74.74,0,0,0,1.047,0l6.283-6.283a.74.74,0,0,0-1.047-1.047Z" transform="translate(-304.712 -324.727)" fill="#e74c3c"/>
    </g>
  </g>
</svg>
