<svg xmlns="http://www.w3.org/2000/svg" xmlns:xlink="http://www.w3.org/1999/xlink" width="79" height="79" viewBox="0 0 79 79">
  <defs>
    <linearGradient id="linear-gradient" x1="0.5" x2="0.5" y2="1" gradientUnits="objectBoundingBox">
      <stop offset="0" stop-color="#f5f5f5"/>
      <stop offset="1" stop-color="#fff"/>
    </linearGradient>
  </defs>
  <g id="Group_1106" data-name="Group 1106" transform="translate(0.016)">
    <circle id="Ellipse_5" data-name="Ellipse 5" cx="39.5" cy="39.5" r="39.5" transform="translate(-0.016)" fill="url(#linear-gradient)"/>
    <g id="Group_322" data-name="Group 322" transform="translate(22.298 13.379)">
      <g id="Group_311" data-name="Group 311" transform="translate(0)">
        <g id="Group_310" data-name="Group 310" transform="translate(0)">
          <path id="Path_188" data-name="Path 188" d="M117.539,41.892a.757.757,0,0,0-.757.757V49.77a.419.419,0,0,1-.418.418h-4.071V35.273a.757.757,0,0,0-1.515,0V50.188h-8.2l2.377-2.615a1.358,1.358,0,0,0,.328-1.089c0-.008,0-.015,0-.023l-2.264-13.377.61-.918a1.718,1.718,0,0,0,1.084.47A1.326,1.326,0,0,0,105.9,31.9h0l2.388-4.787,5.441,2.107a5.248,5.248,0,0,1,3.055,4.77v5.123a.757.757,0,1,0,1.515,0V33.992a6.759,6.759,0,0,0-4-6.173l-.014-.006-9.055-3.507V22.183a7.1,7.1,0,0,0,2.686-4.668,3.278,3.278,0,0,0,1.926-.786,3.215,3.215,0,0,0,.335-4.537V9.387a9.387,9.387,0,1,0-18.773,0v2.879a3.041,3.041,0,0,0-.781,2.027,3.209,3.209,0,0,0,1.117,2.437,3.276,3.276,0,0,0,1.925.785,7.022,7.022,0,0,0,2.839,4.78v2.012l-9.045,3.507-.014.006a6.759,6.759,0,0,0-4,6.173V49.77A1.935,1.935,0,0,0,85.38,51.7H92.6a.757.757,0,1,0,0-1.515h-1.63V35.273a.757.757,0,0,0-1.515,0V50.188H85.38a.419.419,0,0,1-.418-.418V33.992a5.248,5.248,0,0,1,3.054-4.77l5.436-2.108L95.841,31.9a1.326,1.326,0,0,0,1.187.734,1.716,1.716,0,0,0,1.084-.47l.61.918L96.458,46.46l0,.023a1.358,1.358,0,0,0,.328,1.09l2.377,2.615H96.131a.757.757,0,1,0,0,1.515h20.233A1.935,1.935,0,0,0,118.3,49.77V42.649A.758.758,0,0,0,117.539,41.892ZM106.868,26.565l-2.227,4.462-2.678-1.9,2.75-3.395Zm-4.477,4.722-.577.869H99.925l-.577-.869,1.522-1.081Zm-4.373-6.737V23.134a7.685,7.685,0,0,0,2.864.543,7.11,7.11,0,0,0,2.833-.59v1.471l-2.846,3.513Zm11.425-10.258a1.7,1.7,0,0,1-.59,1.288,1.764,1.764,0,0,1-.875.4V12.6A1.713,1.713,0,0,1,109.443,14.293ZM93.6,15.983a1.711,1.711,0,0,1-1.464-1.691A1.8,1.8,0,0,1,93.6,12.641Zm.041-4.886a3.744,3.744,0,0,0-.724.163V9.387a7.872,7.872,0,1,1,15.743,0v1.822a3.367,3.367,0,0,0-.683-.132c0-.731.006-.59-2.384-3.16a1.347,1.347,0,0,0-1.72-.21,14.6,14.6,0,0,1-8.827,2.376A1.347,1.347,0,0,0,93.642,11.1Zm1.474,5.482V11.606a16.185,16.185,0,0,0,9.466-2.553c1.1,1.177,1.69,1.795,1.882,2.03v5.5a5.675,5.675,0,0,1-11.348,0ZM97.1,31.028l-2.227-4.462,2.15-.833,2.751,3.4Zm.869,15.6,2.192-12.952h1.421l2.192,12.952-2.9,3.193Z" transform="translate(-83.447)" fill="#182b4c"/>
        </g>
      </g>
      <path id="Path_215" data-name="Path 215" d="M1339.8,1949.542l.514-.39.788,1.007h1.4l.627-1.007.517.39-.576.785,2.282,13.357s.1.3-.315.789-3.343,3.626-3.343,3.626l-3.188-3.416a1.251,1.251,0,0,1-.451-1.062c.12-.587,2.259-13.378,2.259-13.378Z" transform="translate(-1324.282 -1917.222)" fill="none" stroke="#e74c3c" stroke-width="2"/>
    </g>
  </g>
</svg>
