<svg id="appstore_icon" data-name="appstore icon" xmlns="http://www.w3.org/2000/svg" width="156.043" height="46.397" viewBox="0 0 156.043 46.397">
  <path id="Path_1334" data-name="Path 1334" d="M170.471,56.414a4.436,4.436,0,0,1-4.43,4.444H20.931A4.443,4.443,0,0,1,16.5,56.414V20.972a4.449,4.449,0,0,1,4.44-4.451H166.045a4.441,4.441,0,0,1,4.435,4.449h0V56.412Z" transform="translate(-15.463 -15.492)" fill="#fff"/>
  <path id="Path_1335" data-name="Path 1335" d="M150.576,46.427H5.469A5.478,5.478,0,0,1,0,40.95V5.514A5.483,5.483,0,0,1,5.469.031H150.574a5.485,5.485,0,0,1,5.469,5.483V40.95a5.478,5.478,0,0,1-5.467,5.478Z" transform="translate(0 -0.031)" fill="#a6a6a6"/>
  <path id="Path_1336" data-name="Path 1336" d="M170.471,56.414a4.436,4.436,0,0,1-4.43,4.444H20.931A4.443,4.443,0,0,1,16.5,56.414V20.972a4.449,4.449,0,0,1,4.44-4.451H166.045a4.441,4.441,0,0,1,4.435,4.449h0V56.412Z" transform="translate(-15.463 -15.492)"/>
  <path id="Path_1337" data-name="Path 1337" d="M257.122,130.911a6.709,6.709,0,0,1,3.193-5.624,6.873,6.873,0,0,0-5.4-2.923c-2.275-.239-4.482,1.361-5.641,1.361s-2.967-1.339-4.89-1.3a7.2,7.2,0,0,0-6.055,3.695c-2.618,4.536-.666,11.2,1.844,14.868,1.257,1.8,2.723,3.8,4.644,3.729,1.879-.077,2.581-1.2,4.849-1.2s2.906,1.2,4.865,1.145c2.018-.031,3.288-1.8,4.5-3.615a14.822,14.822,0,0,0,2.057-4.189,6.485,6.485,0,0,1-3.955-5.96Zm-3.7-10.964a6.6,6.6,0,0,0,1.51-4.728,6.722,6.722,0,0,0-4.346,2.248,6.277,6.277,0,0,0-1.55,4.552,5.552,5.552,0,0,0,4.385-2.073Z" transform="translate(-222.28 -107.967)" fill="#fff"/>
  <g id="Group_966" data-name="Group 966" transform="translate(49.079 20.956)">
    <path id="Path_1339" data-name="Path 1339" d="M799.365,349.146h-2.618l-1.438-4.52h-5l-1.37,4.52H786.38l4.955-15.382h3.06l4.978,15.382Zm-4.5-6.416-1.309-4.017q-.206-.615-.776-2.9h-.046q-.229.982-.732,2.9l-1.28,4.017Zm17.218.731a6.283,6.283,0,0,1-1.538,4.474,4.51,4.51,0,0,1-3.422,1.461,3.425,3.425,0,0,1-3.17-1.574v5.822h-2.466V341.7q0-1.777-.092-3.646h2.168l.137,1.759h.056a4.387,4.387,0,0,1,7.022-.435,6.133,6.133,0,0,1,1.309,4.091Zm-2.512.09a4.57,4.57,0,0,0-.731-2.672,2.527,2.527,0,0,0-2.147-1.095,2.564,2.564,0,0,0-1.654.605,2.805,2.805,0,0,0-.971,1.588,3.237,3.237,0,0,0-.115.751v1.851a2.968,2.968,0,0,0,.743,2.044,2.464,2.464,0,0,0,1.929.833,2.527,2.527,0,0,0,2.168-1.074,4.722,4.722,0,0,0,.777-2.829Zm15.276-.09a6.28,6.28,0,0,1-1.538,4.474,4.513,4.513,0,0,1-3.422,1.461,3.425,3.425,0,0,1-3.17-1.574v5.822h-2.466V341.7q0-1.777-.092-3.646h2.168l.137,1.759h.046a4.389,4.389,0,0,1,7.022-.435,6.142,6.142,0,0,1,1.309,4.091Zm-2.514.09a4.581,4.581,0,0,0-.731-2.672,2.522,2.522,0,0,0-2.144-1.095,2.574,2.574,0,0,0-1.658.605,2.8,2.8,0,0,0-.969,1.587,3.3,3.3,0,0,0-.116.751v1.851a2.977,2.977,0,0,0,.741,2.044,2.471,2.471,0,0,0,1.931.833,2.525,2.525,0,0,0,2.168-1.074,4.721,4.721,0,0,0,.779-2.829Zm16.785,1.278a4.109,4.109,0,0,1-1.368,3.2,6.067,6.067,0,0,1-4.193,1.347,7.32,7.32,0,0,1-3.984-.959l.569-2.055a6.861,6.861,0,0,0,3.562.959,3.36,3.36,0,0,0,2.168-.628,2.051,2.051,0,0,0,.779-1.677,2.148,2.148,0,0,0-.641-1.576,5.938,5.938,0,0,0-2.127-1.186q-4.042-1.507-4.043-4.407a3.891,3.891,0,0,1,1.427-3.109,5.645,5.645,0,0,1,3.78-1.211,7.471,7.471,0,0,1,3.494.731l-.619,2.01a6.111,6.111,0,0,0-2.957-.707,3.007,3.007,0,0,0-2.041.64,1.83,1.83,0,0,0-.619,1.394,1.884,1.884,0,0,0,.708,1.507,7.991,7.991,0,0,0,2.237,1.186,7.582,7.582,0,0,1,2.923,1.87,3.9,3.9,0,0,1,.941,2.669Zm8.174-4.929h-2.718v5.387q0,2.055,1.438,2.054a4.339,4.339,0,0,0,1.095-.115l.069,1.872a5.588,5.588,0,0,1-1.918.273,2.955,2.955,0,0,1-2.291-.892,4.371,4.371,0,0,1-.818-2.991V339.9h-1.62v-1.851h1.62v-2.031l2.422-.731v2.762h2.715V339.9Zm12.239,3.6a6.085,6.085,0,0,1-1.461,4.2,5.212,5.212,0,0,1-4.063,1.689,4.968,4.968,0,0,1-3.895-1.618,5.9,5.9,0,0,1-1.45-4.091,6.036,6.036,0,0,1,1.5-4.222,5.183,5.183,0,0,1,4.032-1.636,5.073,5.073,0,0,1,3.927,1.622,5.823,5.823,0,0,1,1.417,4.06Zm-2.556.057a4.967,4.967,0,0,0-.655-2.618,2.442,2.442,0,0,0-2.216-1.322,2.476,2.476,0,0,0-2.261,1.322,5.051,5.051,0,0,0-.655,2.664,4.952,4.952,0,0,0,.655,2.618,2.528,2.528,0,0,0,4.456-.021,4.988,4.988,0,0,0,.681-2.643Zm10.574-3.345a4.3,4.3,0,0,0-.777-.069,2.327,2.327,0,0,0-2.01.982,3.7,3.7,0,0,0-.615,2.191v5.821h-2.461v-7.6q0-1.748-.072-3.494h2.147l.09,2.127h.069a3.807,3.807,0,0,1,1.232-1.759,2.981,2.981,0,0,1,1.782-.594,3.96,3.96,0,0,1,.617.046v2.352Zm11.028,2.854a5.784,5.784,0,0,1-.09,1.118h-7.4a3.217,3.217,0,0,0,1.073,2.514,3.671,3.671,0,0,0,2.419.774,8.182,8.182,0,0,0,2.993-.524l.386,1.71a9.254,9.254,0,0,1-3.721.686,5.4,5.4,0,0,1-4.055-1.517,5.607,5.607,0,0,1-1.473-4.075,6.354,6.354,0,0,1,1.371-4.176,4.726,4.726,0,0,1,3.88-1.779,4.135,4.135,0,0,1,3.633,1.779,5.987,5.987,0,0,1,.982,3.489Zm-2.352-.64a3.34,3.34,0,0,0-.478-1.895,2.154,2.154,0,0,0-1.964-1.029,2.337,2.337,0,0,0-1.964,1,3.679,3.679,0,0,0-.73,1.916h5.135Z" transform="translate(-786.38 -333.517)" fill="#fff"/>
  </g>
  <g id="Group_967" data-name="Group 967" transform="translate(50.514 7.604)">
    <path id="Path_1340" data-name="Path 1340" d="M811.277,129.471a15.746,15.746,0,0,1-1.772-.09v-7.439a13.417,13.417,0,0,1,2.088-.164c2.828,0,4.13,1.391,4.13,3.659C815.715,128.059,814.185,129.471,811.277,129.471Zm.414-6.732a4.948,4.948,0,0,0-.982.079v5.655a6.416,6.416,0,0,0,.818.033,2.679,2.679,0,0,0,2.908-3.029,2.468,2.468,0,0,0-2.744-2.738Zm8.089,6.789a2.6,2.6,0,0,1-2.618-2.8,2.656,2.656,0,0,1,2.716-2.883,2.576,2.576,0,0,1,2.626,2.795,2.672,2.672,0,0,1-2.716,2.893Zm.046-4.8c-.875,0-1.437.818-1.437,1.964s.573,1.941,1.425,1.941,1.425-.875,1.425-1.964-.561-1.941-1.414-1.941Zm11.757-.774-1.705,5.452h-1.111l-.707-2.368a17.922,17.922,0,0,1-.438-1.761H827.6a11.789,11.789,0,0,1-.437,1.761l-.751,2.368h-1.123l-1.605-5.452h1.245l.617,2.592q.219.926.37,1.751h.023a17.9,17.9,0,0,1,.448-1.74l.774-2.6h.982l.741,2.548c.18.617.327,1.224.439,1.8h.033a15.721,15.721,0,0,1,.37-1.8l.654-2.548Zm6.281,5.452h-1.2v-3.124c0-.964-.37-1.448-1.1-1.448a1.258,1.258,0,0,0-1.213,1.335v3.243h-1.213v-3.895c0-.483-.011-1-.046-1.559h1.067l.057.841h.034a1.964,1.964,0,0,1,1.73-.952c1.146,0,1.9.875,1.9,2.3v3.273Zm3.343,0h-1.213V121.45h1.213Zm4.418.124a2.6,2.6,0,0,1-2.618-2.8,2.656,2.656,0,0,1,2.715-2.883,2.574,2.574,0,0,1,2.626,2.795,2.67,2.67,0,0,1-2.715,2.893Zm.046-4.8c-.875,0-1.437.818-1.437,1.964s.573,1.941,1.424,1.941,1.425-.875,1.425-1.964S846.525,124.726,845.671,124.726Zm7.449,4.678-.088-.628H853a1.863,1.863,0,0,1-1.6.751,1.586,1.586,0,0,1-1.671-1.605c0-1.345,1.167-2.042,3.188-2.042v-.1c0-.718-.381-1.077-1.132-1.077a2.553,2.553,0,0,0-1.425.4l-.247-.8a3.487,3.487,0,0,1,1.872-.471c1.425,0,2.144.751,2.144,2.255V128.1a8.252,8.252,0,0,0,.078,1.309Zm-.164-2.716c-1.347,0-2.021.327-2.021,1.1a.772.772,0,0,0,.831.853,1.16,1.16,0,0,0,1.19-1.109Zm7.066,2.716-.057-.875h-.034a1.828,1.828,0,0,1-1.751,1,2.486,2.486,0,0,1-2.291-2.782,2.587,2.587,0,0,1,2.387-2.906,1.636,1.636,0,0,1,1.538.741h.025v-3.13h1.213v6.485c0,.527.013,1.021.046,1.473Zm-.18-3.209a1.319,1.319,0,0,0-1.276-1.414c-.9,0-1.448.8-1.448,1.918s.569,1.852,1.424,1.852a1.362,1.362,0,0,0,1.309-1.448V126.2Zm8.905,3.332a2.6,2.6,0,0,1-2.618-2.8,2.655,2.655,0,0,1,2.715-2.883,2.574,2.574,0,0,1,2.626,2.795,2.67,2.67,0,0,1-2.716,2.893Zm.046-4.8c-.874,0-1.435.818-1.435,1.964s.573,1.941,1.424,1.941,1.425-.875,1.425-1.964S869.649,124.724,868.793,124.724Zm9.19,4.678h-1.213v-3.122c0-.964-.37-1.448-1.1-1.448a1.258,1.258,0,0,0-1.211,1.335v3.243h-1.213v-3.895c0-.483-.011-1-.046-1.559h1.067l.057.841h.034a1.964,1.964,0,0,1,1.728-.954c1.145,0,1.9.875,1.9,2.3Zm8.154-4.544H884.8v2.648c0,.674.234,1.011.705,1.011a2.39,2.39,0,0,0,.538-.057l.033.92a2.683,2.683,0,0,1-.939.136c-.956,0-1.527-.527-1.527-1.908v-2.749h-.8v-.908h.8v-1l1.19-.36v1.358h1.334v.91Zm6.416,4.544h-1.211v-3.109c0-.982-.368-1.473-1.1-1.473a1.188,1.188,0,0,0-1.213,1.291V129.4H887.82v-7.955h1.211v3.273h.025a1.839,1.839,0,0,1,1.636-.887c1.154,0,1.859.9,1.859,2.322V129.4Zm6.573-2.435h-3.638a1.564,1.564,0,0,0,1.718,1.615,4.091,4.091,0,0,0,1.473-.259l.188.841a4.553,4.553,0,0,1-1.829.337,2.531,2.531,0,0,1-2.715-2.748,2.662,2.662,0,0,1,2.579-2.929,2.291,2.291,0,0,1,2.268,2.592,2.334,2.334,0,0,1-.041.55Zm-1.111-.864c0-.841-.424-1.437-1.2-1.437a1.439,1.439,0,0,0-1.326,1.437Z" transform="translate(-809.505 -121.445)" fill="#fff"/>
  </g>
</svg>
