<svg xmlns="http://www.w3.org/2000/svg" xmlns:xlink="http://www.w3.org/1999/xlink" width="78" height="78" viewBox="0 0 78 78">
  <defs>
    <linearGradient id="linear-gradient" x1="0.5" x2="0.5" y2="1" gradientUnits="objectBoundingBox">
      <stop offset="0" stop-color="#f5f5f5"/>
      <stop offset="1" stop-color="#fff"/>
    </linearGradient>
  </defs>
  <g id="Group_1137" data-name="Group 1137" transform="translate(-783 -822)">
    <circle id="Ellipse_5" data-name="Ellipse 5" cx="39" cy="39" r="39" transform="translate(783 822)" fill="url(#linear-gradient)"/>
    <ellipse id="Ellipse_36" data-name="Ellipse 36" cx="1" cy="0.5" rx="1" ry="0.5" transform="translate(836 869)" fill="#182b4c"/>
    <g id="Group_727" data-name="Group 727" transform="translate(802.728 839.298)">
      <g id="Group_720" data-name="Group 720" transform="translate(0 0)">
        <g id="Group_719" data-name="Group 719" transform="translate(0 0)">
          <path id="Path_855" data-name="Path 855" d="M46.838,20.487a1.171,1.171,0,0,1,0-1.035l1.49-3.048a3.467,3.467,0,0,0-1.5-4.6l-3-1.59a1.171,1.171,0,0,1-.608-.837l-.586-3.341a3.468,3.468,0,0,0-3.917-2.846l-3.359.475a1.171,1.171,0,0,1-.984-.32L31.943.983a3.467,3.467,0,0,0-4.842,0L24.664,3.342a1.171,1.171,0,0,1-.984.32l-3.359-.475A3.467,3.467,0,0,0,16.4,6.032l-.586,3.341a1.171,1.171,0,0,1-.608.837l-3,1.59a3.468,3.468,0,0,0-1.5,4.6l1.49,3.048a1.171,1.171,0,0,1,0,1.035l-1.49,3.048a3.467,3.467,0,0,0,1.5,4.6l3,1.59a1.171,1.171,0,0,1,.608.837l.586,3.341a3.465,3.465,0,0,0,3.418,2.881,3.563,3.563,0,0,0,.5-.035l3.359-.475a1.17,1.17,0,0,1,.984.32L27.1,38.957a3.467,3.467,0,0,0,4.842,0L34.381,36.6a1.172,1.172,0,0,1,.984-.32l3.359.475a3.467,3.467,0,0,0,3.917-2.846l.586-3.341a1.171,1.171,0,0,1,.608-.837l3-1.59a3.468,3.468,0,0,0,1.5-4.6ZM45.752,26.1l-3,1.59a3.46,3.46,0,0,0-1.8,2.474l-.586,3.341a1.173,1.173,0,0,1-1.325.963L35.688,34a3.459,3.459,0,0,0-2.908.945L30.342,37.3a1.173,1.173,0,0,1-1.638,0l-2.438-2.359a3.456,3.456,0,0,0-2.413-.98,3.535,3.535,0,0,0-.5.035L20,34.472a1.173,1.173,0,0,1-1.325-.963l-.586-3.341a3.459,3.459,0,0,0-1.8-2.474l-3-1.59a1.173,1.173,0,0,1-.506-1.558l1.49-3.048a3.46,3.46,0,0,0,0-3.058l-1.49-3.048a1.173,1.173,0,0,1,.506-1.558l3-1.59a3.46,3.46,0,0,0,1.8-2.474l.586-3.341A1.173,1.173,0,0,1,20,5.467l3.359.475A3.46,3.46,0,0,0,26.265,5L28.7,2.639a1.173,1.173,0,0,1,1.638,0L32.779,5a3.459,3.459,0,0,0,2.908.945l3.359-.475a1.173,1.173,0,0,1,1.325.963l.586,3.341a3.459,3.459,0,0,0,1.8,2.474l3,1.59a1.173,1.173,0,0,1,.506,1.558l-1.49,3.048a3.46,3.46,0,0,0,0,3.058l1.49,3.048A1.173,1.173,0,0,1,45.752,26.1Z" transform="translate(-10.359 0.002)" fill="#182b4c" stroke="#fff" stroke-width="1"/>
        </g>
      </g>
      <g id="Group_722" data-name="Group 722" transform="translate(10.41 11.218)">
        <g id="Group_721" data-name="Group 721">
          <path id="Path_856" data-name="Path 856" d="M160.962,144.129a1.152,1.152,0,0,0-1.629,0l-15.2,15.2a1.152,1.152,0,1,0,1.629,1.629l15.2-15.2A1.152,1.152,0,0,0,160.962,144.129Z" transform="translate(-143.792 -143.792)" fill="#182b4c"/>
        </g>
      </g>
      <g id="Group_724" data-name="Group 724" transform="translate(10.332 9.605)">
        <g id="Group_723" data-name="Group 723">
          <path id="Path_857" data-name="Path 857" d="M147.026,123.116a4.224,4.224,0,1,0,4.224,4.224A4.228,4.228,0,0,0,147.026,123.116Zm0,6.143a1.92,1.92,0,1,1,1.92-1.92A1.922,1.922,0,0,1,147.026,129.259Z" transform="translate(-142.802 -123.116)" fill="#e74c3c"/>
        </g>
      </g>
      <g id="Group_726" data-name="Group 726" transform="translate(19.547 21.892)">
        <g id="Group_725" data-name="Group 725">
          <path id="Path_858" data-name="Path 858" d="M265.146,280.61a4.224,4.224,0,1,0,4.224,4.224A4.228,4.228,0,0,0,265.146,280.61Zm0,6.143a1.92,1.92,0,1,1,1.92-1.92A1.922,1.922,0,0,1,265.146,286.753Z" transform="translate(-260.922 -280.61)" fill="#e74c3c"/>
        </g>
      </g>
    </g>
  </g>
</svg>
