<svg xmlns="http://www.w3.org/2000/svg" xmlns:xlink="http://www.w3.org/1999/xlink" width="124" height="124" viewBox="0 0 124 124">
  <defs>
    <linearGradient id="linear-gradient" x1="0.5" x2="0.5" y2="1" gradientUnits="objectBoundingBox">
      <stop offset="0" stop-color="#f5f5f5"/>
      <stop offset="1" stop-color="#fff"/>
    </linearGradient>
    <linearGradient id="linear-gradient-2" x1="0.5" x2="0.5" y2="1" gradientUnits="objectBoundingBox">
      <stop offset="0" stop-color="#182b4c"/>
      <stop offset="1" stop-color="#05090f"/>
    </linearGradient>
  </defs>
  <g id="Group_321" data-name="Group 321" transform="translate(-1382 -1868)">
    <circle id="Ellipse_4" data-name="Ellipse 4" cx="62" cy="62" r="62" transform="translate(1382 1868)" fill="url(#linear-gradient)"/>
    <g id="Calendar" transform="translate(1392 1878)">
      <path id="Path_191" data-name="Path 191" d="M81.131,23.105H75.21V20.737a4.737,4.737,0,1,0-9.474,0v2.368H56.263V20.737a4.737,4.737,0,1,0-9.474,0v2.368H37.315V20.737a4.737,4.737,0,1,0-9.474,0v2.368H21.921A5.921,5.921,0,0,0,16,29.026V76.394a5.921,5.921,0,0,0,5.921,5.921H55.078a1.184,1.184,0,0,0,0-2.368H21.921a3.563,3.563,0,0,1-3.553-3.553V39.684H84.683V59.815a1.184,1.184,0,0,0,2.368,0V29.026A5.921,5.921,0,0,0,81.131,23.105ZM68.1,20.737a2.368,2.368,0,1,1,4.737,0v7.105a2.368,2.368,0,1,1-4.737,0Zm-18.947,0a2.368,2.368,0,0,1,4.737,0v7.105a2.368,2.368,0,1,1-4.737,0Zm-18.947,0a2.368,2.368,0,1,1,4.737,0v7.105a2.368,2.368,0,1,1-4.737,0ZM84.683,37.315H18.368V29.026a3.563,3.563,0,0,1,3.553-3.553h5.921v2.368a4.737,4.737,0,1,0,9.474,0V25.474h9.474v2.368a4.737,4.737,0,1,0,9.474,0V25.474h9.474v2.368a4.737,4.737,0,1,0,9.474,0V25.474h5.921a3.563,3.563,0,0,1,3.553,3.553Z" fill="#182b4c"/>
      <path id="Path_192" data-name="Path 192" d="M185.474,218.368A2.368,2.368,0,0,0,183.105,216h-4.737A2.368,2.368,0,0,0,176,218.368v3.553a2.368,2.368,0,0,0,2.368,2.368h4.737a2.368,2.368,0,0,0,2.368-2.368Zm-7.105,3.553v-3.553h4.737v3.553Z" transform="translate(-136.316 -170.395)" fill="url(#linear-gradient-2)"/>
      <path id="Path_193" data-name="Path 193" d="M89.474,218.368A2.368,2.368,0,0,0,87.105,216H82.368A2.368,2.368,0,0,0,80,218.368v3.553a2.368,2.368,0,0,0,2.368,2.368h4.737a2.368,2.368,0,0,0,2.368-2.368Zm-7.105,3.553v-3.553h4.737v3.553Z" transform="translate(-54.526 -170.395)" fill="url(#linear-gradient-2)"/>
      <path id="Path_194" data-name="Path 194" d="M375.105,224.289a2.368,2.368,0,0,0,2.368-2.368v-3.553A2.368,2.368,0,0,0,375.105,216h-4.737A2.368,2.368,0,0,0,368,218.368v3.553a2.368,2.368,0,0,0,2.368,2.368Zm-4.737-5.921h4.737v3.553h-4.737Z" transform="translate(-299.895 -170.395)" fill="url(#linear-gradient-2)"/>
      <path id="Path_195" data-name="Path 195" d="M185.474,290.368A2.368,2.368,0,0,0,183.105,288h-4.737A2.368,2.368,0,0,0,176,290.368v3.553a2.368,2.368,0,0,0,2.368,2.368h4.737a2.368,2.368,0,0,0,2.368-2.368Zm-7.105,3.553v-3.553h4.737v3.553Z" transform="translate(-136.316 -231.737)" fill="url(#linear-gradient-2)"/>
      <path id="Path_196" data-name="Path 196" d="M89.474,290.368A2.368,2.368,0,0,0,87.105,288H82.368A2.368,2.368,0,0,0,80,290.368v3.553a2.368,2.368,0,0,0,2.368,2.368h4.737a2.368,2.368,0,0,0,2.368-2.368Zm-7.105,3.553v-3.553h4.737v3.553Z" transform="translate(-54.526 -231.737)" fill="url(#linear-gradient-2)"/>
      <path id="Path_197" data-name="Path 197" d="M183.105,360h-4.737A2.368,2.368,0,0,0,176,362.368v3.553a2.368,2.368,0,0,0,2.368,2.368h4.737a2.368,2.368,0,0,0,2.368-2.368v-3.553A2.368,2.368,0,0,0,183.105,360Zm-4.737,5.921v-3.553h4.737v3.553Z" transform="translate(-136.316 -293.08)" fill="url(#linear-gradient-2)"/>
      <path id="Path_198" data-name="Path 198" d="M274.368,224.289h4.737a2.368,2.368,0,0,0,2.368-2.368v-3.553A2.368,2.368,0,0,0,279.105,216h-4.737A2.368,2.368,0,0,0,272,218.368v3.553A2.368,2.368,0,0,0,274.368,224.289Zm0-5.921h4.737v3.553h-4.737Z" transform="translate(-218.106 -170.395)" fill="url(#linear-gradient-2)"/>
      <path id="Path_199" data-name="Path 199" d="M272,293.921a2.368,2.368,0,0,0,2.368,2.368,1.184,1.184,0,0,0,0-2.368v-3.553h4.737a1.184,1.184,0,1,0,0-2.368h-4.737A2.368,2.368,0,0,0,272,290.368Z" transform="translate(-218.106 -231.737)" fill="url(#linear-gradient-2)"/>
      <path id="Path_200" data-name="Path 200" d="M87.105,360H82.368A2.368,2.368,0,0,0,80,362.368v3.553a2.368,2.368,0,0,0,2.368,2.368h4.737a2.368,2.368,0,0,0,2.368-2.368v-3.553A2.368,2.368,0,0,0,87.105,360Zm-4.737,5.921v-3.553h4.737v3.553Z" transform="translate(-54.526 -293.08)" fill="url(#linear-gradient-2)"/>
      <path id="Path_201" data-name="Path 201" d="M303.395,288a15.395,15.395,0,1,0,15.395,15.395A15.394,15.394,0,0,0,303.395,288Zm0,28.421a13.026,13.026,0,1,1,13.026-13.026A13.026,13.026,0,0,1,303.395,316.421Z" transform="translate(-231.737 -231.737)" fill="#e74c3c"/>
      <path id="Path_202" data-name="Path 202" d="M349.565,356.55l-9.211,9.211-4.186-4.187a1.184,1.184,0,0,0-1.674,1.674l5.023,5.025a1.184,1.184,0,0,0,1.674,0l10.048-10.048a1.184,1.184,0,0,0-1.674-1.674Z" transform="translate(-271.066 -289.857)" fill="#e74c3c"/>
    </g>
  </g>
</svg>
