<svg xmlns="http://www.w3.org/2000/svg" xmlns:xlink="http://www.w3.org/1999/xlink" width="78" height="78" viewBox="0 0 78 78">
  <defs>
    <linearGradient id="linear-gradient" x1="0.5" x2="0.5" y2="1" gradientUnits="objectBoundingBox">
      <stop offset="0" stop-color="#f5f5f5"/>
      <stop offset="1" stop-color="#fff"/>
    </linearGradient>
  </defs>
  <g id="Group_1123" data-name="Group 1123" transform="translate(-276.553 -820.553)">
    <g id="Group_321" data-name="Group 321" transform="translate(276.553 820.553)">
      <circle id="Ellipse_4" data-name="Ellipse 4" cx="39" cy="39" r="39" fill="url(#linear-gradient)"/>
    </g>
    <g id="Group_717" data-name="Group 717" transform="translate(295.459 838.834)">
      <g id="Group_715" data-name="Group 715" transform="translate(0 0)">
        <g id="patient_information-information-record-computer-data" data-name="patient information-information-record-computer-data">
          <path id="Path_831" data-name="Path 831" d="M53.2,16H19.382A3.382,3.382,0,0,0,16,19.382v25.7a3.382,3.382,0,0,0,3.382,3.382H32.234v4.058H28.175a2.035,2.035,0,0,0-2.029,2.029v1.353a.676.676,0,0,0,.676.676H45.762a.676.676,0,0,0,.676-.676V54.555a2.035,2.035,0,0,0-2.029-2.029H40.351V48.468H53.2a3.382,3.382,0,0,0,3.382-3.382v-25.7A3.382,3.382,0,0,0,53.2,16ZM44.409,53.879a.676.676,0,0,1,.676.676v.676H27.5v-.676a.676.676,0,0,1,.676-.676ZM33.587,52.526V48.468H39v4.058Zm21.645-7.44A2.035,2.035,0,0,1,53.2,47.115H19.382a2.035,2.035,0,0,1-2.029-2.029V43.056H55.232Zm0-3.382H17.353V19.382a2.035,2.035,0,0,1,2.029-2.029H53.2a2.035,2.035,0,0,1,2.029,2.029Z" transform="translate(-16 -16)" fill="#182b4c"/>
          <path id="Path_832" data-name="Path 832" d="M432,352h1.353v1.353H432Z" transform="translate(-396.827 -323.591)" fill="#182b4c"/>
          <path id="Path_833" data-name="Path 833" d="M400,352h1.353v1.353H400Z" transform="translate(-367.532 -323.591)" fill="#182b4c"/>
          <path id="Path_834" data-name="Path 834" d="M80.91,64H64.676a.676.676,0,0,0-.676.676V82.263a.676.676,0,0,0,.676.676H80.91a.676.676,0,0,0,.676-.676V64.676A.676.676,0,0,0,80.91,64ZM77.528,81.587h-9.47V79.557a3.382,3.382,0,0,1,3.382-3.382h2.706a3.382,3.382,0,0,1,3.382,3.382ZM74.085,70.778l1.414.473v1.542a2.035,2.035,0,0,1-2.029,2.029H72.117a2.035,2.035,0,0,1-2.029-2.029V71.353Zm-3.984-.8a2.021,2.021,0,0,1,2.016-1.921H73.47a2.029,2.029,0,0,1,2,1.759l-1.109-.372a.7.7,0,0,0-.311-.027ZM80.234,81.587H78.881V79.557a4.748,4.748,0,0,0-3-4.4,3.369,3.369,0,0,0,.967-2.361V70.088a3.382,3.382,0,0,0-3.382-3.382H72.117a3.382,3.382,0,0,0-3.382,3.382v2.706a3.369,3.369,0,0,0,.967,2.361,4.748,4.748,0,0,0-3,4.4v2.029H65.353V65.353H80.234Z" transform="translate(-59.942 -59.942)" fill="#182b4c"/>
          <path id="Path_835" data-name="Path 835" d="M288.676,244.058h12.175a.676.676,0,0,0,.676-.676v-2.706a.676.676,0,0,0-.676-.676H288.676a.676.676,0,0,0-.676.676v2.706A.676.676,0,0,0,288.676,244.058Zm.676-2.706h10.823v1.353H289.353Z" transform="translate(-265.002 -221.061)" fill="#182b4c"/>
          <path id="Path_841" data-name="Path 841" d="M336,160h9.47v1.353H336Z" transform="translate(-308.944 -146.725)" fill="#182b4c"/>
          <path id="Path_842" data-name="Path 842" d="M288,208h2.706v1.353H288Z" transform="translate(-265.002 -191.766)" fill="#182b4c"/>
          <path id="Path_843" data-name="Path 843" d="M336,208h9.47v1.353H336Z" transform="translate(-308.944 -191.766)" fill="#182b4c"/>
        </g>
        <path id="Path_845" data-name="Path 845" d="M0,0H13.021V15.3H0Z" transform="translate(6.426 6.341)" fill="#f5f5f5"/>
        <g id="Group_714" data-name="Group 714" transform="translate(8.947 8.442)">
          <path id="Path_844" data-name="Path 844" d="M105.585,196.451S104.958,192,109.472,192s3.95,4.451,3.95,4.451Z" transform="translate(-105.555 -185.856)" fill="#e74c3c"/>
          <circle id="Ellipse_182" data-name="Ellipse 182" cx="2.79" cy="2.79" r="2.79" transform="translate(1.155)" fill="#e74c3c"/>
        </g>
      </g>
      <g id="Group_716" data-name="Group 716" transform="translate(27.225 3.382)">
        <line id="Line_87" data-name="Line 87" y2="8.117" transform="translate(4.034 0)" fill="none" stroke="#e74c3c" stroke-width="3"/>
        <line id="Line_88" data-name="Line 88" y2="8.117" transform="translate(8.117 4.083) rotate(90)" fill="none" stroke="#e74c3c" stroke-width="3"/>
      </g>
    </g>
  </g>
</svg>
