<svg xmlns="http://www.w3.org/2000/svg" width="336.114" height="421.108" viewBox="0 0 336.114 421.108">
  <g id="Group_631" data-name="Group 631" transform="translate(-63.98 -41.788)">
    <g id="Group_604" data-name="Group 604" transform="translate(68.555 106.929)">
      <g id="Group_600" data-name="Group 600" transform="translate(3.441 3.441)" opacity="0.75">
        <path id="Path_742" data-name="Path 742" d="M380,301.063H85.7V113.835a12.25,12.25,0,0,1,12.25-12.25h269.8A12.25,12.25,0,0,1,380,113.835Z" transform="translate(-68.804 -101.585)" fill="#9bb3bb"/>
        <path id="Path_743" data-name="Path 743" d="M385.877,292.018H84.16a13.19,13.19,0,0,1-13.191-13.191v-3.316h328.1v3.316A13.19,13.19,0,0,1,385.877,292.018Z" transform="translate(-70.969 -76.034)" fill="#9bb3bb"/>
        <rect id="Rectangle_263" data-name="Rectangle 263" width="271.824" height="168.573" transform="translate(25.371 15.453)" fill="#9bb3bb"/>
        <path id="Path_744" data-name="Path 744" d="M252.486,283.765h-66.56a7.329,7.329,0,0,1-7.329-7.33v-.923h81.217v.923A7.329,7.329,0,0,1,252.486,283.765Z" transform="translate(-55.157 -76.034)" fill="#9bb3bb"/>
      </g>
      <g id="Group_603" data-name="Group 603">
        <g id="Group_602" data-name="Group 602">
          <g id="Group_601" data-name="Group 601" transform="translate(16.899)">
            <path id="Path_745" data-name="Path 745" d="M377,298.063H82.7V110.835a12.25,12.25,0,0,1,12.25-12.25h269.8A12.25,12.25,0,0,1,377,110.835Z" transform="translate(-82.703 -98.585)" fill="#103147"/>
          </g>
          <path id="Path_746" data-name="Path 746" d="M382.877,289.018H81.16a13.19,13.19,0,0,1-13.191-13.191v-3.316h328.1v3.316A13.19,13.19,0,0,1,382.877,289.018Z" transform="translate(-67.969 -73.034)" fill="#a2a2a3"/>
          <rect id="Rectangle_264" data-name="Rectangle 264" width="271.824" height="168.573" transform="translate(25.371 15.453)" fill="#e9ecf5"/>
          <path id="Path_747" data-name="Path 747" d="M249.486,280.765h-66.56a7.329,7.329,0,0,1-7.329-7.33v-.923h81.217v.923A7.329,7.329,0,0,1,249.486,280.765Z" transform="translate(-52.157 -73.034)" fill="#fff"/>
        </g>
      </g>
    </g>
    <rect id="Rectangle_265" data-name="Rectangle 265" width="81.703" height="28.798" rx="7.858" transform="translate(191.753 249.689)" fill="#e0332d"/>
    <rect id="Rectangle_266" data-name="Rectangle 266" width="10.536" height="95.98" rx="2.548" transform="translate(272.545 133.022)" fill="#2a4953"/>
    <g id="Group_605" data-name="Group 605" transform="translate(278.8 143.11)">
      <path id="Rectangle_267" data-name="Rectangle 267" d="M0,0H114.27a4.588,4.588,0,0,1,4.588,4.588V71.216A4.588,4.588,0,0,1,114.27,75.8H0a0,0,0,0,1,0,0V0A0,0,0,0,1,0,0Z" transform="translate(0)" fill="#c7e8fc"/>
      <rect id="Rectangle_268" data-name="Rectangle 268" width="118.858" height="18.161" transform="translate(0 42.116)" fill="#9bb3bb"/>
    </g>
    <g id="Group_606" data-name="Group 606" transform="translate(354.846 148.334)">
      <circle id="Ellipse_155" data-name="Ellipse 155" cx="10.536" cy="10.536" r="10.536" transform="matrix(0.555, -0.832, 0.832, 0.555, 9.342, 17.533)" fill="#e1351b"/>
      <circle id="Ellipse_156" data-name="Ellipse 156" cx="10.536" cy="10.536" r="10.536" transform="translate(0 8.13) rotate(-19.218)" fill="#0d223b"/>
    </g>
    <rect id="Rectangle_269" data-name="Rectangle 269" width="5.226" height="75.804" transform="translate(278.8 143.11)" fill="#c1d1d5"/>
    <line id="Line_85" data-name="Line 85" y2="80.862" transform="translate(277.813 140.38)" fill="none" stroke="#20363e" stroke-linecap="round" stroke-linejoin="round" stroke-width="3"/>
    <g id="Group_615" data-name="Group 615" transform="translate(236.403 41.788)">
      <g id="Group_610" data-name="Group 610" transform="translate(0 39.266)">
        <g id="Group_607" data-name="Group 607" transform="translate(4.588 4.588)" opacity="0.75">
          <circle id="Ellipse_157" data-name="Ellipse 157" cx="22.417" cy="22.417" r="22.417" fill="#969595"/>
          <circle id="Ellipse_158" data-name="Ellipse 158" cx="18.713" cy="18.713" r="18.713" transform="matrix(0.151, -0.989, 0.989, 0.151, 1.092, 38.089)" fill="#969595"/>
          <text id="_" data-name="$" transform="translate(22.389 32.011)" fill="#969595" font-size="27" font-family="Roboto-Bold, Roboto" font-weight="700"><tspan x="-7.745" y="0">$</tspan></text>
        </g>
        <g id="Group_609" data-name="Group 609">
          <g id="Group_608" data-name="Group 608">
            <circle id="Ellipse_159" data-name="Ellipse 159" cx="22.417" cy="22.417" r="22.417" fill="#828282"/>
            <circle id="Ellipse_160" data-name="Ellipse 160" cx="18.713" cy="18.713" r="18.713" transform="matrix(0.151, -0.989, 0.989, 0.151, 1.092, 38.089)" fill="#e9ecf5"/>
            <text id="_2" data-name="$" transform="translate(22.389 32.011)" fill="#a2a2a3" font-size="27" font-family="Roboto-Bold, Roboto" font-weight="700"><tspan x="-7.745" y="0">$</tspan></text>
          </g>
        </g>
      </g>
      <g id="Group_614" data-name="Group 614" transform="translate(22.417)">
        <g id="Group_611" data-name="Group 611" transform="translate(3.441 3.441)" opacity="0.75">
          <circle id="Ellipse_161" data-name="Ellipse 161" cx="31.189" cy="31.189" r="31.189" fill="#9bb3bb"/>
          <circle id="Ellipse_162" data-name="Ellipse 162" cx="26.036" cy="26.036" r="26.036" transform="matrix(0.161, -0.987, 0.987, 0.161, 1.29, 52.678)" fill="#9bb3bb"/>
          <text id="_3" data-name="$" transform="translate(30.866 45.479)" fill="#9bb3bb" font-size="37" font-family="Roboto-Bold, Roboto" font-weight="700"><tspan x="-10.614" y="0">$</tspan></text>
        </g>
        <g id="Group_613" data-name="Group 613">
          <g id="Group_612" data-name="Group 612">
            <circle id="Ellipse_163" data-name="Ellipse 163" cx="31.189" cy="31.189" r="31.189" fill="#828282"/>
            <circle id="Ellipse_164" data-name="Ellipse 164" cx="26.036" cy="26.036" r="26.036" transform="matrix(0.161, -0.987, 0.987, 0.161, 1.29, 52.678)" fill="#e9ecf5"/>
            <text id="_4" data-name="$" transform="translate(30.866 45.479)" fill="#a2a2a3" font-size="37" font-family="Roboto-Bold, Roboto" font-weight="700"><tspan x="-10.614" y="0">$</tspan></text>
          </g>
        </g>
      </g>
    </g>
    <g id="Group_627" data-name="Group 627" transform="translate(134.393 59.051)">
      <g id="Group_616" data-name="Group 616" transform="translate(3.441 3.441)" opacity="0.75">
        <path id="Path_748" data-name="Path 748" d="M206.847,207.782H128.374V61.024a.639.639,0,0,1,1.134-.4l3.77,4.64,4.09-5.034a1.05,1.05,0,0,1,1.63,0l4.09,5.034,4.09-5.034a1.05,1.05,0,0,1,1.63,0l4.089,5.034,4.09-5.034a1.05,1.05,0,0,1,1.63,0l4.09,5.034,4.09-5.034a1.05,1.05,0,0,1,1.63,0l4.09,5.034,4.089-5.034a1.05,1.05,0,0,1,1.63,0l4.09,5.034,4.09-5.034a1.05,1.05,0,0,1,1.63,0l4.09,5.034,4.09-5.034a1.05,1.05,0,0,1,1.63,0l4.089,5.034,3.771-4.64a.639.639,0,0,1,1.134.4V207.782Z" transform="translate(-128.374 -59.84)" fill="#9bb3bb"/>
        <rect id="Rectangle_270" data-name="Rectangle 270" width="78.472" height="10.405" transform="translate(0 137.537)" fill="#9bb3bb"/>
        <path id="Path_749" data-name="Path 749" d="M194.736,113.229H137.995a1.147,1.147,0,1,1,0-2.294h56.741a1.147,1.147,0,0,1,0,2.294Z" transform="translate(-127.129 -52.333)" fill="#9bb3bb"/>
        <path id="Path_750" data-name="Path 750" d="M194.736,121.124H137.995a1.147,1.147,0,1,1,0-2.294h56.741a1.147,1.147,0,1,1,0,2.294Z" transform="translate(-127.129 -51.174)" fill="#9bb3bb"/>
        <path id="Path_751" data-name="Path 751" d="M194.736,129.019H137.995a1.147,1.147,0,1,1,0-2.294h56.741a1.147,1.147,0,1,1,0,2.294Z" transform="translate(-127.129 -50.014)" fill="#9bb3bb"/>
        <path id="Path_752" data-name="Path 752" d="M194.736,136.913H137.995a1.147,1.147,0,1,1,0-2.294h56.741a1.147,1.147,0,1,1,0,2.294Z" transform="translate(-127.129 -48.854)" fill="#9bb3bb"/>
        <path id="Path_753" data-name="Path 753" d="M194.736,144.808H137.995a1.147,1.147,0,1,1,0-2.294h56.741a1.147,1.147,0,0,1,0,2.294Z" transform="translate(-127.129 -47.694)" fill="#9bb3bb"/>
        <path id="Path_754" data-name="Path 754" d="M194.736,152.7H137.995a1.147,1.147,0,1,1,0-2.294h56.741a1.147,1.147,0,1,1,0,2.294Z" transform="translate(-127.129 -46.534)" fill="#9bb3bb"/>
        <path id="Path_755" data-name="Path 755" d="M160.933,160.6H137.995a1.147,1.147,0,1,1,0-2.294h22.938a1.147,1.147,0,1,1,0,2.294Z" transform="translate(-127.129 -45.375)" fill="#9bb3bb"/>
      </g>
      <g id="Group_626" data-name="Group 626">
        <g id="Group_625" data-name="Group 625">
          <path id="Path_756" data-name="Path 756" d="M203.847,204.782H125.374V58.024a.639.639,0,0,1,1.134-.4l3.77,4.64,4.09-5.034a1.05,1.05,0,0,1,1.63,0l4.09,5.034,4.09-5.034a1.05,1.05,0,0,1,1.63,0l4.089,5.034,4.09-5.034a1.05,1.05,0,0,1,1.63,0l4.09,5.034,4.09-5.034a1.05,1.05,0,0,1,1.63,0l4.09,5.034,4.089-5.034a1.05,1.05,0,0,1,1.63,0l4.09,5.034,4.09-5.034a1.05,1.05,0,0,1,1.63,0l4.09,5.034,4.09-5.034a1.05,1.05,0,0,1,1.63,0l4.089,5.034,3.771-4.64a.639.639,0,0,1,1.134.4V204.782Z" transform="translate(-125.374 -56.84)" fill="#e6ecef"/>
          <g id="Group_617" data-name="Group 617" transform="translate(0 137.537)">
            <rect id="Rectangle_271" data-name="Rectangle 271" width="78.472" height="10.405" fill="#a2a2a3"/>
          </g>
          <g id="Group_618" data-name="Group 618" transform="translate(9.719 58.602)">
            <path id="Path_757" data-name="Path 757" d="M191.736,110.229H134.995a1.147,1.147,0,0,1,0-2.294h56.741a1.147,1.147,0,1,1,0,2.294Z" transform="translate(-133.848 -107.935)" fill="#a2a2a3"/>
          </g>
          <g id="Group_619" data-name="Group 619" transform="translate(9.719 67.656)">
            <path id="Path_758" data-name="Path 758" d="M191.736,118.124H134.995a1.147,1.147,0,0,1,0-2.294h56.741a1.147,1.147,0,0,1,0,2.294Z" transform="translate(-133.848 -115.83)" fill="#a2a2a3"/>
          </g>
          <g id="Group_620" data-name="Group 620" transform="translate(9.719 76.711)">
            <path id="Path_759" data-name="Path 759" d="M191.736,126.019H134.995a1.147,1.147,0,0,1,0-2.294h56.741a1.147,1.147,0,1,1,0,2.294Z" transform="translate(-133.848 -123.725)" fill="#a2a2a3"/>
          </g>
          <g id="Group_621" data-name="Group 621" transform="translate(9.719 85.765)">
            <path id="Path_760" data-name="Path 760" d="M191.736,133.913H134.995a1.147,1.147,0,0,1,0-2.294h56.741a1.147,1.147,0,0,1,0,2.294Z" transform="translate(-133.848 -131.619)" fill="#a2a2a3"/>
          </g>
          <g id="Group_622" data-name="Group 622" transform="translate(9.719 94.82)">
            <path id="Path_761" data-name="Path 761" d="M191.736,141.808H134.995a1.147,1.147,0,0,1,0-2.294h56.741a1.147,1.147,0,1,1,0,2.294Z" transform="translate(-133.848 -139.514)" fill="#a2a2a3"/>
          </g>
          <g id="Group_623" data-name="Group 623" transform="translate(9.719 103.875)">
            <path id="Path_762" data-name="Path 762" d="M191.736,149.7H134.995a1.147,1.147,0,0,1,0-2.294h56.741a1.147,1.147,0,0,1,0,2.294Z" transform="translate(-133.848 -147.409)" fill="#a2a2a3"/>
          </g>
          <g id="Group_624" data-name="Group 624" transform="translate(9.719 112.928)">
            <path id="Path_763" data-name="Path 763" d="M157.933,157.6H134.995a1.147,1.147,0,0,1,0-2.294h22.938a1.147,1.147,0,1,1,0,2.294Z" transform="translate(-133.848 -155.303)" fill="#a2a2a3"/>
          </g>
        </g>
      </g>
    </g>
    <g id="Group_628" data-name="Group 628" transform="translate(63.98 154.508)">
      <circle id="Ellipse_165" data-name="Ellipse 165" cx="36.412" cy="36.412" r="36.412" transform="translate(50.148 10.496)" fill="#48b7ce" opacity="0.36"/>
      <path id="Path_764" data-name="Path 764" d="M178.63,153.809a46.908,46.908,0,1,0,0,66.337A46.908,46.908,0,0,0,178.63,153.809Zm-58.916,58.916a36.412,36.412,0,1,1,51.494,0A36.412,36.412,0,0,1,119.714,212.724Z" transform="translate(-58.901 -140.07)" fill="#0d223b"/>
      <path id="Path_765" data-name="Path 765" d="M173.05,157.678a40.226,40.226,0,1,0,0,56.888A40.226,40.226,0,0,0,173.05,157.678Zm-54.191,54.19a36.412,36.412,0,1,1,51.494,0A36.412,36.412,0,0,1,118.859,211.868Z" transform="translate(-58.045 -139.214)" fill="#5a808d"/>
      <rect id="Rectangle_272" data-name="Rectangle 272" width="8.018" height="16.506" transform="matrix(0.707, 0.707, -0.707, 0.707, 54.781, 73.017)" fill="#103147"/>
      <path id="Path_766" data-name="Path 766" d="M66.157,261.023h0a7.432,7.432,0,0,1,0-10.509l40.066-40.066,10.508,10.508L76.665,261.023A7.43,7.43,0,0,1,66.157,261.023Z" transform="translate(-63.98 -129.731)" fill="#c7e8fc"/>
    </g>
    <g id="Group_630" data-name="Group 630" transform="translate(238.453 255.502)">
      <g id="Group_629" data-name="Group 629">
        <path id="Path_767" data-name="Path 767" d="M222.747,271.968a6.641,6.641,0,0,1,6.641,6.641v18.97a.953.953,0,0,0,.953.953h0a.953.953,0,0,0,.953-.953v-62.81a6.642,6.642,0,0,1,6.642-6.641h0a6.641,6.641,0,0,1,6.641,6.641v40.4a.953.953,0,0,0,.953.953h0a.953.953,0,0,0,.953-.953v-11.4a4.045,4.045,0,0,1,4.045-4.045h5.192a4.045,4.045,0,0,1,4.045,4.045v11.4a.953.953,0,0,0,.953.953h0a.954.954,0,0,0,.954-.953v-8.7a4.045,4.045,0,0,1,4.044-4.045h5.193a4.045,4.045,0,0,1,4.044,4.045v8.7a.953.953,0,0,0,.953.953h0a.953.953,0,0,0,.953-.953v-5.794a4.045,4.045,0,0,1,4.044-4.044h6.41a2.827,2.827,0,0,1,2.827,2.827l1,44.123a21.529,21.529,0,0,1-4.575,13.269l-2.9,3.7v29.47H234.782V340.453l-12.4-10.751a18.179,18.179,0,0,1-6.274-13.738h0V278.608a6.641,6.641,0,0,1,6.642-6.641Z" transform="translate(-216.105 -228.127)" fill="#f8ab81"/>
        <path id="Path_768" data-name="Path 768" d="M235.779,229.148h0a4.994,4.994,0,0,0-4.994,4.994v5.507a2.137,2.137,0,0,0,2.137,2.137h5.713a2.137,2.137,0,0,0,2.137-2.137v-5.507A4.994,4.994,0,0,0,235.779,229.148Z" transform="translate(-213.948 -227.977)" fill="#fbe2e2"/>
        <path id="Path_769" data-name="Path 769" d="M218.633,267.6h0a6.622,6.622,0,0,0-2.528,5.207v8.608h5.554a1.571,1.571,0,0,0,1.571-1.57V272.2A4.6,4.6,0,0,0,218.633,267.6Z" transform="translate(-216.105 -222.328)" fill="#fbe2e2"/>
      </g>
      <rect id="Rectangle_273" data-name="Rectangle 273" width="48.887" height="17.692" transform="translate(67.564 137.32) rotate(180)" fill="#fff"/>
      <rect id="Rectangle_274" data-name="Rectangle 274" width="54.95" height="81.608" transform="translate(70.596 207.394) rotate(180)" fill="#0d223b"/>
      <circle id="Ellipse_166" data-name="Ellipse 166" cx="3.495" cy="3.495" r="3.495" transform="translate(58.362 135.738)" fill="#7596a1"/>
      <circle id="Ellipse_167" data-name="Ellipse 167" cx="3.495" cy="3.495" r="3.495" transform="translate(58.362 147.473)" fill="#7596a1"/>
    </g>
  </g>
</svg>
