<svg xmlns="http://www.w3.org/2000/svg" xmlns:xlink="http://www.w3.org/1999/xlink" width="124" height="124" viewBox="0 0 124 124">
  <defs>
    <linearGradient id="linear-gradient" x1="0.5" x2="0.5" y2="1" gradientUnits="objectBoundingBox">
      <stop offset="0" stop-color="#f5f5f5"/>
      <stop offset="1" stop-color="#fff"/>
    </linearGradient>
  </defs>
  <g id="Group_1060" data-name="Group 1060" transform="translate(-1139 -842)">
    <circle id="Ellipse_5" data-name="Ellipse 5" cx="62" cy="62" r="62" transform="translate(1139 842)" fill="url(#linear-gradient)"/>
    <g id="Group_350" data-name="Group 350" transform="translate(213 -971.5)">
      <g id="Rectangle_103" data-name="Rectangle 103" transform="translate(953 1841)" fill="#fff" stroke="#182b4c" stroke-linecap="round" stroke-linejoin="round" stroke-width="2.5">
        <rect width="70" height="55" rx="7" stroke="none"/>
        <rect x="1.25" y="1.25" width="67.5" height="52.5" rx="5.75" fill="none"/>
      </g>
      <g id="Rectangle_104" data-name="Rectangle 104" transform="translate(980 1898)" fill="#182b4c" stroke="#182b4c" stroke-width="1">
        <rect width="16" height="3" stroke="none"/>
        <rect x="0.5" y="0.5" width="15" height="2" fill="none"/>
      </g>
      <line id="Line_13" data-name="Line 13" x2="35" transform="translate(970.5 1904.5)" fill="none" stroke="#182b4c" stroke-linecap="round" stroke-width="2"/>
      <line id="Line_14" data-name="Line 14" x2="30" transform="translate(983.5 1857.5)" fill="none" stroke="#182b4c" stroke-linecap="round" stroke-width="2.5"/>
      <line id="Line_15" data-name="Line 15" x2="30" transform="translate(983.5 1870.5)" fill="none" stroke="#182b4c" stroke-linecap="round" stroke-width="2.5"/>
      <path id="Path_224" data-name="Path 224" d="M4559.749,1852.98l3.2,3.02,6.572-6.75" transform="translate(-3598 4.75)" fill="none" stroke="#e74c3c" stroke-linecap="round" stroke-linejoin="round" stroke-width="2.5"/>
      <path id="Path_225" data-name="Path 225" d="M4559.749,1852.98l3.2,3.02,6.572-6.75" transform="translate(-3598 17.75)" fill="none" stroke="#e74c3c" stroke-linecap="round" stroke-linejoin="round" stroke-width="2.5"/>
      <line id="Line_12" data-name="Line 12" x2="69" transform="translate(953.5 1884.5)" fill="none" stroke="#182b4c" stroke-width="2"/>
    </g>
  </g>
</svg>
