<svg xmlns="http://www.w3.org/2000/svg" width="452" height="452" viewBox="0 0 452 452">
  <g id="Group_1053" data-name="Group 1053" transform="translate(-257 -2139)">
    <g id="Group_672" data-name="Group 672" transform="translate(-355 -1128)">
      <circle id="Ellipse_14" data-name="Ellipse 14" cx="226" cy="226" r="226" transform="translate(612 3267)" fill="#fcfcfc"/>
      <ellipse id="Ellipse_13" data-name="Ellipse 13" cx="188" cy="188.5" rx="188" ry="188.5" transform="translate(650 3308)" fill="#f9f9f9"/>
      <path id="Path_664" data-name="Path 664" d="M312,155.5C312,241.38,242.156,311,156,311S0,241.38,0,155.5,312,69.62,312,155.5Z" transform="translate(682 3342)" fill="#f5f5f5"/>
    </g>
    <g id="Group_673" data-name="Group 673" transform="translate(410 2236.028)">
      <path id="Path_657" data-name="Path 657" d="M163.948,56.055,126,52.535,110.923,17.53a3.041,3.041,0,0,0-5.586,0l-15.075,35-37.95,3.52a3.041,3.041,0,0,0-1.726,5.313L79.219,86.521l-8.38,37.18a3.041,3.041,0,0,0,4.519,3.284l32.771-19.459L140.9,126.985a3.041,3.041,0,0,0,4.519-3.284l-8.38-37.18,28.634-25.154A3.041,3.041,0,0,0,163.948,56.055Z" transform="translate(-35.488 -3.381)" fill="#ffdc64"/>
      <g id="Group_510" data-name="Group 510" transform="translate(0 10.971)">
        <path id="Path_658" data-name="Path 658" d="M97.584,12.944c1.935,2.687,7.4,14.228,10.517,20.953a1.055,1.055,0,0,1-1.683,1.211c-5.388-5.094-14.6-13.934-16.534-16.621a4.744,4.744,0,1,1,7.7-5.543Z" transform="translate(-63.739 -10.971)" fill="#fff082"/>
        <path id="Path_659" data-name="Path 659" d="M365.908,12.944c-1.935,2.687-7.4,14.228-10.517,20.953a1.055,1.055,0,0,0,1.683,1.211c5.388-5.094,14.6-13.934,16.534-16.621a4.744,4.744,0,0,0-7.7-5.543Z" transform="translate(-254.47 -10.971)" fill="#fff082"/>
        <path id="Path_660" data-name="Path 660" d="M439,286.383c-3.148-1.027-15.8-2.723-23.158-3.653a1.055,1.055,0,0,0-.643,1.971c6.49,3.585,17.711,9.676,20.859,10.7a4.744,4.744,0,0,0,2.942-9.02Z" transform="translate(-296.988 -205.61)" fill="#fff082"/>
        <path id="Path_661" data-name="Path 661" d="M3.275,286.383c3.148-1.027,15.8-2.723,23.158-3.653a1.055,1.055,0,0,1,.643,1.971c-6.49,3.585-17.711,9.676-20.859,10.7a4.744,4.744,0,0,1-2.942-9.02Z" transform="translate(0 -205.61)" fill="#fff082"/>
        <path id="Path_662" data-name="Path 662" d="M239.794,423.71c0-3.311,2.311-15.867,3.707-23.149a1.055,1.055,0,0,1,2.073,0c1.4,7.282,3.707,19.838,3.707,23.149a4.744,4.744,0,0,1-9.488,0Z" transform="translate(-171.751 -289.398)" fill="#fff082"/>
      </g>
      <path id="Path_663" data-name="Path 663" d="M116.4,30.259,110.923,17.53a3.041,3.041,0,0,0-5.586,0l-15.075,35-37.95,3.52a3.041,3.041,0,0,0-1.726,5.313L79.219,86.521l-8.38,37.18a3.041,3.041,0,0,0,4.519,3.284l4.362-2.59A236.086,236.086,0,0,1,116.4,30.259Z" transform="translate(-35.488 -3.381)" fill="#ffc850"/>
    </g>
  </g>
</svg>
