<svg xmlns="http://www.w3.org/2000/svg" width="154" height="154" viewBox="0 0 154 154">
  <g id="Group_1118" data-name="Group 1118" transform="translate(-20 -1844)">
    <g id="Group_1068" data-name="Group 1068" transform="translate(20 1844)">
      <circle id="Ellipse_14" data-name="Ellipse 14" cx="77" cy="77" r="77" fill="#fcfcfc"/>
      <ellipse id="Ellipse_13" data-name="Ellipse 13" cx="63.5" cy="64" rx="63.5" ry="64" transform="translate(14 14)" fill="#f9f9f9"/>
      <path id="Path_664" data-name="Path 664" d="M106.552,113.087A53.276,53.276,0,0,1,0,113.087C0,83.758,106.552,83.758,106.552,113.087Z" transform="translate(23.906 -34.368)" fill="#f5f5f5"/>
    </g>
    <g id="Group_1069" data-name="Group 1069" transform="translate(72.251 1880.2)">
      <path id="Path_657" data-name="Path 657" d="M88.617,29.476l-12.96-1.2L70.508,16.319a1.039,1.039,0,0,0-1.908,0L63.452,28.274l-12.96,1.2a1.039,1.039,0,0,0-.59,1.814l9.779,8.59-2.862,12.7A1.039,1.039,0,0,0,58.363,53.7l11.192-6.645L80.746,53.7a1.039,1.039,0,0,0,1.543-1.121l-2.862-12.7,9.779-8.59A1.039,1.039,0,0,0,88.617,29.476Z" transform="translate(-44.746 -15.234)" fill="#ffdc64"/>
      <g id="Group_510" data-name="Group 510" transform="translate(0 0)">
        <path id="Path_658" data-name="Path 658" d="M91.925,11.645c.661.918,2.526,4.859,3.592,7.156a.36.36,0,0,1-.575.414c-1.84-1.74-4.986-4.758-5.647-5.676a1.62,1.62,0,0,1,2.63-1.893Z" transform="translate(-80.366 -10.971)" fill="#fff082"/>
        <path id="Path_659" data-name="Path 659" d="M358.912,11.645c-.661.918-2.526,4.859-3.592,7.156a.36.36,0,0,0,.575.414c1.84-1.74,4.986-4.759,5.647-5.676a1.62,1.62,0,1,0-2.63-1.893Z" transform="translate(-320.855 -10.971)" fill="#fff082"/>
        <path id="Path_660" data-name="Path 660" d="M422.962,283.971c-1.075-.351-5.4-.93-7.909-1.248a.36.36,0,0,0-.22.673c2.217,1.224,6.049,3.3,7.124,3.655a1.62,1.62,0,0,0,1-3.081Z" transform="translate(-374.464 -256.386)" fill="#fff082"/>
        <path id="Path_661" data-name="Path 661" d="M1.119,283.971c1.075-.351,5.4-.93,7.909-1.248a.36.36,0,0,1,.22.673c-2.217,1.224-6.048,3.3-7.124,3.655a1.62,1.62,0,0,1-1-3.081Z" transform="translate(0 -256.386)" fill="#fff082"/>
        <path id="Path_662" data-name="Path 662" d="M239.794,407.9c0-1.131.789-5.419,1.266-7.906a.36.36,0,0,1,.708,0c.477,2.487,1.266,6.775,1.266,7.906a1.62,1.62,0,0,1-3.24,0Z" transform="translate(-216.557 -362.032)" fill="#fff082"/>
      </g>
      <path id="Path_663" data-name="Path 663" d="M72.38,20.667l-1.872-4.347a1.039,1.039,0,0,0-1.908,0L63.452,28.274l-12.96,1.2a1.039,1.039,0,0,0-.59,1.814l9.779,8.59-2.862,12.7A1.039,1.039,0,0,0,58.363,53.7l1.49-.884A80.626,80.626,0,0,1,72.38,20.667Z" transform="translate(-44.746 -15.234)" fill="#ffc850"/>
    </g>
  </g>
</svg>
