<svg xmlns="http://www.w3.org/2000/svg" xmlns:xlink="http://www.w3.org/1999/xlink" width="124" height="124" viewBox="0 0 124 124">
  <defs>
    <linearGradient id="linear-gradient" x1="0.5" x2="0.5" y2="1" gradientUnits="objectBoundingBox">
      <stop offset="0" stop-color="#f5f5f5"/>
      <stop offset="1" stop-color="#fff"/>
    </linearGradient>
  </defs>
  <g id="Group_1058" data-name="Group 1058" transform="translate(-277 -1356)">
    <g id="Group_324" data-name="Group 324" transform="translate(-115 -524)">
      <circle id="Ellipse_5" data-name="Ellipse 5" cx="62" cy="62" r="62" transform="translate(392 1880)" fill="url(#linear-gradient)"/>
    </g>
    <g id="Group_713" data-name="Group 713" transform="translate(282.59 1423.239)">
      <g id="Group_712" data-name="Group 712" transform="translate(27.41 -41)">
        <path id="Path_823" data-name="Path 823" d="M119.535,232.165h-40.8a1.051,1.051,0,0,0,0,2.1h40.8a1.051,1.051,0,0,0,0-2.1Z" transform="translate(-70.639 -193.879)"/>
        <path id="Path_824" data-name="Path 824" d="M119.535,283.939h-40.8a1.051,1.051,0,0,0,0,2.1h40.8a1.051,1.051,0,0,0,0-2.1Z" transform="translate(-70.639 -238.396)"/>
        <path id="Path_825" data-name="Path 825" d="M120.587,336.764a1.051,1.051,0,0,0-1.051-1.051h-40.8a1.051,1.051,0,1,0,0,2.1h40.8A1.051,1.051,0,0,0,120.587,336.764Z" transform="translate(-70.639 -282.914)"/>
        <path id="Path_826" data-name="Path 826" d="M78.736,387.486a1.051,1.051,0,1,0,0,2.1H99.089a1.051,1.051,0,1,0,0-2.1Z" transform="translate(-70.639 -327.43)"/>
        <path id="Path_827" data-name="Path 827" d="M277.859,144.506H262.867a1.051,1.051,0,1,0,0,2.1h14.992a1.051,1.051,0,1,0,0-2.1Z" transform="translate(-228.962 -118.506)"/>
        <path id="Path_828" data-name="Path 828" d="M277.859,103.843H262.867a1.051,1.051,0,1,0,0,2.1h14.992a1.051,1.051,0,1,0,0-2.1Z" transform="translate(-228.962 -83.542)"/>
        <path id="Path_829" data-name="Path 829" d="M83.259,18.7A1.051,1.051,0,0,0,84.31,17.65V-24.962a5.182,5.182,0,0,0-1.523-3.677c-11.14-11.1-10.852-10.952-11.56-11.44A5.162,5.162,0,0,0,68.272-41H32.611a5.207,5.207,0,0,0-5.2,5.2V25.56a5.207,5.207,0,0,0,5.2,5.2h46.5a5.207,5.207,0,0,0,5.2-5.2V22.583a1.051,1.051,0,1,0-2.1,0V25.56a3.1,3.1,0,0,1-3.1,3.1h-46.5a3.1,3.1,0,0,1-3.1-3.1V-35.8a3.1,3.1,0,0,1,3.1-3.1H68.272a3.117,3.117,0,0,1,.668.074v9.57a3.628,3.628,0,0,0,3.624,3.624h9.57a3.119,3.119,0,0,1,.074.668V17.65A1.051,1.051,0,0,0,83.259,18.7Zm-10.7-46.433a1.523,1.523,0,0,1-1.522-1.522v-8.158l9.68,9.68Z" transform="translate(-27.41 41)"/>
        <path id="Path_830" data-name="Path 830" d="M78.065,32.618a1.051,1.051,0,0,0-1.051,1.051v9.409a3.475,3.475,0,0,0,3.471,3.471H92.83A3.475,3.475,0,0,0,96.3,43.078V27.77A3.475,3.475,0,0,0,92.83,24.3H80.485a3.475,3.475,0,0,0-3.471,3.471v.985a1.051,1.051,0,0,0,2.1,0V27.77A1.37,1.37,0,0,1,80.485,26.4H92.83A1.37,1.37,0,0,1,94.2,27.77V40.1a10.033,10.033,0,0,0-3.479-2.533,4.905,4.905,0,1,0-8.124,0A10.035,10.035,0,0,0,79.116,40.1V33.669A1.051,1.051,0,0,0,78.065,32.618Zm8.593-.6a2.8,2.8,0,1,1-2.8,2.8A2.806,2.806,0,0,1,86.658,32.019Zm-2.294,7.137a4.891,4.891,0,0,0,4.588,0,7.95,7.95,0,0,1,5.075,4.585,1.369,1.369,0,0,1-1.2.706H80.485a1.369,1.369,0,0,1-1.2-.706A7.949,7.949,0,0,1,84.364,39.156Z" transform="translate(-70.062 -15.147)" fill="#e74c3c"/>
      </g>
    </g>
  </g>
</svg>
