<svg xmlns="http://www.w3.org/2000/svg" xmlns:xlink="http://www.w3.org/1999/xlink" width="124" height="124" viewBox="0 0 124 124">
  <defs>
    <linearGradient id="linear-gradient" x1="0.5" x2="0.5" y2="1" gradientUnits="objectBoundingBox">
      <stop offset="0" stop-color="#f5f5f5"/>
      <stop offset="1" stop-color="#fff"/>
    </linearGradient>
  </defs>
  <g id="Group_329" data-name="Group 329" transform="translate(-783 -1280)">
    <g id="Group_319" data-name="Group 319" transform="translate(-119 -12)">
      <circle id="Ellipse_2" data-name="Ellipse 2" cx="62" cy="62" r="62" transform="translate(902 1292)" fill="url(#linear-gradient)"/>
    </g>
    <g id="Group_328" data-name="Group 328">
      <path id="Path_189" data-name="Path 189" d="M127.768,58.4v6.5a1.1,1.1,0,0,1-2.2,0V58.4a9.147,9.147,0,0,0-9.152-9.152,6.753,6.753,0,0,1-5.81-3.262,1.1,1.1,0,1,1,1.879-1.144,4.569,4.569,0,0,0,3.931,2.207A11.346,11.346,0,0,1,127.768,58.4ZM108.575,47.378a1.1,1.1,0,0,1-.84,1.309,10.527,10.527,0,0,1-8.182-1.6,6.67,6.67,0,0,1-4.976,2.164A9.147,9.147,0,0,0,85.424,58.4v6.5a1.1,1.1,0,0,1-2.2,0V58.4A11.346,11.346,0,0,1,94.576,47.051a4.585,4.585,0,0,0,4.6-4.584v-.29A14.734,14.734,0,0,1,90.8,29.441a4.488,4.488,0,0,1-3.448-4.347v-5.7C87.288,16.6,87.7,9.611,92.8,4.7c6.293-6.066,16.386-5.681,23.807-2.109a1.1,1.1,0,0,1,.232,1.832,14.845,14.845,0,0,1,9.084,6.536,1.215,1.215,0,0,1,.253.864,1.112,1.112,0,0,1-.315.7,7.181,7.181,0,0,0-2.079,5.072v7.5a1.1,1.1,0,0,1-2.2,0v-7.5a9.363,9.363,0,0,1,2.137-5.979A12.7,12.7,0,0,0,114.6,6.259l-1.933-.207a1.1,1.1,0,0,1-.3-2.111l.879-.362c-11.45-3.992-23.7.444-23.7,15.8v5.714a2.271,2.271,0,0,0,1.237,2.012v-7.13a7.708,7.708,0,0,1,7.7-7.7h14.023a7.708,7.708,0,0,1,7.7,7.7v9.006a14.731,14.731,0,0,1-18.858,14.03,6.724,6.724,0,0,1-.575,2.246,8.329,8.329,0,0,0,6.493,1.28,1.1,1.1,0,0,1,1.309.841Zm-3.079-5.97A12.525,12.525,0,0,0,118.007,28.9V19.975a5.505,5.505,0,0,0-5.5-5.5H98.484a5.505,5.505,0,0,0-5.5,5.5V28.9A12.525,12.525,0,0,0,105.5,41.408Zm11.136,18.955h-3.3a1.1,1.1,0,1,0,0,2.2h3.3a1.1,1.1,0,0,0,0-2.2Z" transform="translate(739.776 1309)" fill="#182b4c"/>
      <circle id="Ellipse_11" data-name="Ellipse 11" cx="5.5" cy="5.5" r="5.5" transform="translate(864 1303)" fill="#e74c3c"/>
    </g>
  </g>
</svg>
