<svg xmlns="http://www.w3.org/2000/svg" xmlns:xlink="http://www.w3.org/1999/xlink" width="124" height="124" viewBox="0 0 124 124">
  <defs>
    <linearGradient id="linear-gradient" x1="0.5" x2="0.5" y2="1" gradientUnits="objectBoundingBox">
      <stop offset="0" stop-color="#f5f5f5"/>
      <stop offset="1" stop-color="#fff"/>
    </linearGradient>
  </defs>
  <g id="Group_1048" data-name="Group 1048" transform="translate(-783 -822)">
    <circle id="Ellipse_5" data-name="Ellipse 5" cx="62" cy="62" r="62" transform="translate(783 822)" fill="url(#linear-gradient)"/>
    <circle id="Ellipse_36" data-name="Ellipse 36" cx="1.5" cy="1.5" r="1.5" transform="translate(868 896)" fill="#182b4c"/>
    <g id="Group_727" data-name="Group 727" transform="translate(804.003 849.502)">
      <g id="Group_720" data-name="Group 720" transform="translate(10.359 -0.002)">
        <g id="Group_719" data-name="Group 719" transform="translate(0 0)">
          <path id="Path_855" data-name="Path 855" d="M68.352,32.571a1.861,1.861,0,0,1,0-1.645l2.368-4.845a5.512,5.512,0,0,0-2.378-7.32l-4.764-2.528a1.861,1.861,0,0,1-.967-1.331l-.932-5.312a5.513,5.513,0,0,0-6.227-4.524l-5.34.755a1.861,1.861,0,0,1-1.564-.508L44.673,1.564a5.512,5.512,0,0,0-7.7,0L33.1,5.314a1.862,1.862,0,0,1-1.564.508L26.2,5.067a5.512,5.512,0,0,0-6.227,4.524L19.037,14.9a1.861,1.861,0,0,1-.967,1.331l-4.764,2.528a5.513,5.513,0,0,0-2.378,7.32L13.3,30.926a1.861,1.861,0,0,1,0,1.645l-2.368,4.845a5.512,5.512,0,0,0,2.378,7.32l4.764,2.528a1.861,1.861,0,0,1,.967,1.331l.932,5.312a5.509,5.509,0,0,0,5.434,4.58,5.664,5.664,0,0,0,.793-.056l5.34-.755a1.86,1.86,0,0,1,1.564.508l3.876,3.749a5.512,5.512,0,0,0,7.7,0l3.876-3.749a1.863,1.863,0,0,1,1.564-.508l5.34.755a5.512,5.512,0,0,0,6.227-4.524l.932-5.311a1.861,1.861,0,0,1,.967-1.331l4.764-2.528a5.513,5.513,0,0,0,2.378-7.32ZM66.625,41.5l-4.764,2.528A5.5,5.5,0,0,0,59,47.961l-.932,5.312A1.865,1.865,0,0,1,55.965,54.8l-5.34-.755A5.5,5.5,0,0,0,46,55.55L42.126,59.3a1.865,1.865,0,0,1-2.6,0L35.646,55.55a5.494,5.494,0,0,0-3.836-1.558,5.621,5.621,0,0,0-.788.056l-5.34.755a1.865,1.865,0,0,1-2.107-1.531l-.932-5.312a5.5,5.5,0,0,0-2.858-3.933L15.023,41.5a1.865,1.865,0,0,1-.8-2.477l2.368-4.845a5.5,5.5,0,0,0,0-4.861l-2.368-4.845a1.865,1.865,0,0,1,.8-2.477l4.764-2.528a5.5,5.5,0,0,0,2.857-3.933l.932-5.312a1.865,1.865,0,0,1,2.107-1.531l5.34.755a5.5,5.5,0,0,0,4.624-1.5L39.522,4.2a1.865,1.865,0,0,1,2.6,0L46,7.946a5.5,5.5,0,0,0,4.624,1.5l5.34-.755a1.865,1.865,0,0,1,2.107,1.531L59,15.535a5.5,5.5,0,0,0,2.858,3.933L66.625,22a1.865,1.865,0,0,1,.8,2.477l-2.368,4.845a5.5,5.5,0,0,0,0,4.861l2.368,4.845A1.865,1.865,0,0,1,66.625,41.5Z" transform="translate(-10.359 0.002)" fill="#182b4c" stroke="#fff" stroke-width="1"/>
        </g>
      </g>
      <g id="Group_722" data-name="Group 722" transform="translate(26.908 17.832)">
        <g id="Group_721" data-name="Group 721">
          <path id="Path_856" data-name="Path 856" d="M171.088,144.328a1.831,1.831,0,0,0-2.59,0L144.328,168.5a1.831,1.831,0,1,0,2.59,2.59l24.171-24.171A1.831,1.831,0,0,0,171.088,144.328Z" transform="translate(-143.792 -143.792)" fill="#182b4c"/>
        </g>
      </g>
      <g id="Group_724" data-name="Group 724" transform="translate(26.785 15.267)">
        <g id="Group_723" data-name="Group 723">
          <path id="Path_857" data-name="Path 857" d="M149.516,123.116a6.714,6.714,0,1,0,6.714,6.714A6.722,6.722,0,0,0,149.516,123.116Zm0,9.766a3.052,3.052,0,1,1,3.052-3.052A3.055,3.055,0,0,1,149.516,132.882Z" transform="translate(-142.802 -123.116)" fill="#e74c3c"/>
        </g>
      </g>
      <g id="Group_726" data-name="Group 726" transform="translate(41.434 34.8)">
        <g id="Group_725" data-name="Group 725">
          <path id="Path_858" data-name="Path 858" d="M267.636,280.61a6.714,6.714,0,1,0,6.714,6.714A6.722,6.722,0,0,0,267.636,280.61Zm0,9.766a3.052,3.052,0,1,1,3.052-3.052A3.055,3.055,0,0,1,267.636,290.376Z" transform="translate(-260.922 -280.61)" fill="#e74c3c"/>
        </g>
      </g>
    </g>
  </g>
</svg>
