<svg xmlns="http://www.w3.org/2000/svg" width="41.225" height="30.919" viewBox="0 0 41.225 30.919">
  <path id="iconfinder_menu-alt_134216_1_" data-name="iconfinder_menu-alt_134216 (1)" d="M4.945,12.184H40.28a3.022,3.022,0,0,0,2.945-3.092A3.022,3.022,0,0,0,40.28,6H4.945A3.022,3.022,0,0,0,2,9.092,3.022,3.022,0,0,0,4.945,12.184ZM40.28,18.368H4.945a3.1,3.1,0,0,0,0,6.184H40.28a3.1,3.1,0,0,0,0-6.184Zm0,12.368H4.945a3.1,3.1,0,0,0,0,6.184H40.28a3.1,3.1,0,0,0,0-6.184Z" transform="translate(-2 -6)" fill="#172b4d"/>
</svg>
