<svg id="Facebook" xmlns="http://www.w3.org/2000/svg" width="32" height="32" viewBox="0 0 32 32">
  <path id="iconfinder_01_111032_1_" data-name="iconfinder_01_111032 (1)" d="M2.784,32.048a2.66,2.66,0,0,0,2.66,2.66h26.6a2.66,2.66,0,0,0,2.66-2.66V5.444a2.66,2.66,0,0,0-2.66-2.66H5.444a2.66,2.66,0,0,0-2.66,2.66v26.6Zm16.627-1.33V20.077h-2.66V16.086h2.66c0-6.857.292-7.316,8.646-7.316V12.76c-4.4,0-3.991.246-3.991,3.325h3.991v3.991H24.067V30.718H19.411Z" transform="translate(-2.784 -2.784)" fill="#172b4d" fill-rule="evenodd"/>
</svg>
