<svg xmlns="http://www.w3.org/2000/svg" xmlns:xlink="http://www.w3.org/1999/xlink" width="124" height="124" viewBox="0 0 124 124">
  <defs>
    <linearGradient id="linear-gradient" x1="0.5" x2="0.5" y2="1" gradientUnits="objectBoundingBox">
      <stop offset="0" stop-color="#f5f5f5"/>
      <stop offset="1" stop-color="#fff"/>
    </linearGradient>
  </defs>
  <g id="Group_320" data-name="Group 320" transform="translate(-915 -2320)">
    <circle id="Ellipse_3" data-name="Ellipse 3" cx="62" cy="62" r="62" transform="translate(915 2320)" fill="url(#linear-gradient)"/>
    <g id="Group_313" data-name="Group 313" transform="translate(856 2335)">
      <path id="Path_177" data-name="Path 177" d="M121.293,94a29.519,29.519,0,0,1-22.432-9.644,1.377,1.377,0,1,1,2.055-1.833,26.8,26.8,0,0,0,20.377,8.723,29,29,0,0,0,10.292-1.818A1.377,1.377,0,1,1,132.559,92a31.745,31.745,0,0,1-11.266,2Zm6.518-7.14c-13.247,0-18.5-6.557-21.026-9.708-.338-.422-.746-.931-.985-1.161-.227.067-.618.231-.944.369a21.775,21.775,0,0,1-9.316,1.854,1.377,1.377,0,0,1,0-2.754,19.024,19.024,0,0,0,8.247-1.638,4.051,4.051,0,0,1,2.822-.513c.831.257,1.425,1,2.324,2.121,2.43,3.032,6.952,8.676,18.877,8.676,8.874,0,13.924-2.381,15.261-3.111a1.377,1.377,0,1,1,1.32,2.417c-1.9,1.037-7.315,3.448-16.581,3.448Zm2.754-8.09a1.377,1.377,0,0,1,0-2.754c7.42,0,13.444-2.6,17.9-7.718a1.377,1.377,0,1,1,2.077,1.808c-5,5.749-11.727,8.664-19.979,8.664ZM124.7,78.1a1.375,1.375,0,0,1-.325-.039,20.284,20.284,0,0,1-12.662-9.088,26.781,26.781,0,0,1-3.392-8.622A16.592,16.592,0,0,1,93.065,70.5a1.377,1.377,0,1,1,0-2.754c5.37,0,14.459-3.676,14.459-17.454V39.608c0-7,1.28-12.833,3.7-16.861,2.448-4.072,5.93-6.224,10.07-6.224a11.006,11.006,0,0,1,8.455,3.99c2.264,2.6,3.831,6.284,4.657,10.962a1.377,1.377,0,1,1-2.712.479c-1.423-8.056-5.214-12.677-10.4-12.677-6.795,0-11.016,7.79-11.016,20.33V52.519c0,12.268,5.374,20.6,14.743,22.87A1.377,1.377,0,0,1,124.7,78.1ZM131,70.5a13.772,13.772,0,0,1-11.668-5.855,20.927,20.927,0,0,1-3.551-12.122V39.608a41.11,41.11,0,0,1,.971-9.593c.9-3.47,2.426-5.23,4.537-5.23a3.43,3.43,0,0,1,2.554,1.226c2.4,2.6,3.588,9.681,2.949,17.61a1.377,1.377,0,1,1-2.745-.221c.63-7.83-.678-13.841-2.229-15.522-.117-.127-.341-.339-.53-.339-1.144,0-2.754,3.744-2.754,12.069,0,8.147,2.5,13.208,6.518,13.208a5.659,5.659,0,0,0,5.077-2.667c1.444-2.2,2.176-5.742,2.176-10.541,0-.594-.01-1.19-.029-1.769a1.377,1.377,0,1,1,2.752-.091c.02.61.03,1.236.03,1.86,0,5.421-.86,9.364-2.628,12.054a8.339,8.339,0,0,1-7.378,3.908,7.713,7.713,0,0,1-6.518-3.866v.815c0,7.577,3.854,15.223,12.465,15.223,5.154,0,9.536-2.45,12.671-7.085,3.373-4.986,5.156-12.265,5.156-21.049,0-10.57-2.507-19.61-7.249-26.141a28.3,28.3,0,0,0-4.215-4.65,1.377,1.377,0,0,1,1.816-2.07,31.07,31.07,0,0,1,4.628,5.1c5.086,7,7.774,16.6,7.774,27.759,0,9.337-1.947,17.149-5.63,22.593-3.672,5.427-8.842,8.3-14.952,8.3Zm-1.934-7.62a1.377,1.377,0,1,1,0-2.754c7.9,0,11.5-10.634,11.5-20.515,0-8.663-2-16.582-5.349-21.182a16.8,16.8,0,0,0-27.857,0c-2.226,3.058-3.913,7.714-4.748,13.111a1.377,1.377,0,0,1-2.722-.421c.9-5.822,2.763-10.9,5.243-14.31a19.547,19.547,0,0,1,32.31,0c3.679,5.055,5.876,13.579,5.876,22.8,0,6.2-1.237,11.888-3.483,16.015-2.582,4.745-6.307,7.254-10.771,7.254Zm-36.693-.1a1.377,1.377,0,0,1,0-2.754c3.328,0,6.885-2.556,6.885-9.731V39.608c0-.62.01-1.245.029-1.858a1.377,1.377,0,0,1,2.752.086c-.018.585-.027,1.181-.027,1.772v10.68C102.016,59.5,96.823,62.773,92.377,62.773Zm0-9.1A1.377,1.377,0,0,1,91,52.3V39.608c0-11.155,2.689-20.754,7.775-27.759C104.323,4.208,112.32,0,121.293,0a26.638,26.638,0,0,1,12.649,3.113,1.377,1.377,0,0,1-1.294,2.431,23.911,23.911,0,0,0-11.355-2.791c-8.068,0-15.274,3.8-20.29,10.713C96.261,20,93.754,29.038,93.754,39.608V52.3a1.377,1.377,0,0,1-1.377,1.377Z" fill="#182b4c"/>
    </g>
    <g id="Group_318" data-name="Group 318" transform="translate(856 2335)">
      <path id="Path_177-2" data-name="Path 177" d="M131,70.5a13.772,13.772,0,0,1-11.668-5.855,20.927,20.927,0,0,1-3.551-12.122V39.608a41.11,41.11,0,0,1,.971-9.593c.9-3.47,2.426-5.23,4.537-5.23a3.43,3.43,0,0,1,2.554,1.226c2.4,2.6,3.588,9.681,2.949,17.61a1.377,1.377,0,1,1-2.745-.221c.63-7.83-.678-13.841-2.229-15.522-.117-.127-.341-.339-.53-.339-1.144,0-2.754,3.744-2.754,12.069,0,8.147,2.5,13.208,6.518,13.208a5.659,5.659,0,0,0,5.077-2.667c1.444-2.2,2.176-5.742,2.176-10.541,0-.594-.01-1.19-.029-1.769a1.377,1.377,0,1,1,2.752-.091c.02.61.03,1.236.03,1.86,0,5.421-.86,9.364-2.628,12.054a8.339,8.339,0,0,1-7.378,3.908,7.713,7.713,0,0,1-6.518-3.866v.815c0,7.577,3.854,15.223,12.465,15.223,5.154,0,9.536-2.45,12.671-7.085,3.373-4.986,5.156-12.265,5.156-21.049,0-10.57-2.507-19.61-7.249-26.141a28.3,28.3,0,0,0-4.215-4.65,1.377,1.377,0,0,1,1.816-2.07,31.07,31.07,0,0,1,4.628,5.1c5.086,7,7.909,17.157,7.909,28.312,0,9.337-2.081,16.6-5.764,22.039-3.672,5.427-8.842,8.3-14.952,8.3Zm-1.934-7.62ZM99.262,39.608C99.262,38.988,99.663,57.838,99.262,39.608Z" fill="#e74c3c"/>
    </g>
  </g>
</svg>
