<svg xmlns="http://www.w3.org/2000/svg" xmlns:xlink="http://www.w3.org/1999/xlink" width="71" height="71" viewBox="0 0 71 71">
  <defs>
    <linearGradient id="linear-gradient" x1="0.5" x2="0.5" y2="1" gradientUnits="objectBoundingBox">
      <stop offset="0" stop-color="#f5f5f5"/>
      <stop offset="1" stop-color="#fff"/>
    </linearGradient>
  </defs>
  <g id="Group_1141" data-name="Group 1141" transform="translate(-24 -2016)">
    <g id="Group_1131" data-name="Group 1131" transform="translate(24 2016)">
      <circle id="Ellipse_5" data-name="Ellipse 5" cx="35.5" cy="35.5" r="35.5" fill="url(#linear-gradient)"/>
    </g>
    <g id="_06-Coin" data-name=" 06-Coin" transform="translate(38.314 2031.024)">
      <g id="filled" transform="translate(0 0)">
        <path id="Path_873" data-name="Path 873" d="M44.8,16.026l-5.218-5.218a.978.978,0,0,0-1.67.692v1.631H35.959V7.587A3.591,3.591,0,0,0,32.371,4H16.718a3.591,3.591,0,0,0-3.587,3.587v21.2H11.175V27.153a.978.978,0,0,0-1.67-.692L4.287,31.679a.978.978,0,0,0,0,1.383L9.5,38.28a.984.984,0,0,0,1.67-.692V35.958h1.957V41.5a3.591,3.591,0,0,0,3.587,3.587H32.371A3.591,3.591,0,0,0,35.959,41.5v-21.2h1.957v1.631a.984.984,0,0,0,1.67.692L44.8,17.41A.978.978,0,0,0,44.8,16.026ZM16.718,5.957H32.371A1.632,1.632,0,0,1,34,7.587V9.218H15.088V7.587A1.632,1.632,0,0,1,16.718,5.957ZM32.371,43.132H16.718A1.632,1.632,0,0,1,15.088,41.5V39.871H34V41.5A1.632,1.632,0,0,1,32.371,43.132Zm7.5-23.559v-.247a.978.978,0,0,0-.978-.978H31.067a.978.978,0,1,0,0,1.957H34v17.61H15.088V35.958h2.935a.978.978,0,1,0,0-1.957H10.2a.978.978,0,0,0-.978.978v.247L6.362,32.371l2.856-2.856v.247a.978.978,0,0,0,.978.978h7.826a.978.978,0,0,0,0-1.957H15.088V11.174H34v1.957H31.067a.978.978,0,1,0,0,1.957h7.826a.978.978,0,0,0,.978-.978v-.247l2.856,2.856Z" transform="translate(-4 -4)" fill="#182b4c" stroke="#fff" stroke-width="0.5"/>
        <path id="Path_874" data-name="Path 874" d="M199.587,152.565h3.261a.979.979,0,0,1,.978.978.978.978,0,0,0,1.957,0,2.938,2.938,0,0,0-2.935-2.935h-.978v-1.631a.978.978,0,1,0-1.957,0v1.631h-.326a3.587,3.587,0,0,0,0,7.174H202.2a1.631,1.631,0,1,1,0,3.261h-3.261a.979.979,0,0,1-.978-.978.978.978,0,0,0-1.957,0A2.938,2.938,0,0,0,198.935,163h.978v1.631a.978.978,0,0,0,1.957,0V163h.326a3.587,3.587,0,1,0,0-7.174h-2.609a1.631,1.631,0,1,1,0-3.261Z" transform="translate(-180.347 -136.26)" fill="#e74c3c" stroke="#fff" stroke-width="0.5"/>
      </g>
    </g>
  </g>
</svg>
