<svg xmlns="http://www.w3.org/2000/svg" xmlns:xlink="http://www.w3.org/1999/xlink" width="124" height="124" viewBox="0 0 124 124">
  <defs>
    <linearGradient id="linear-gradient" x1="0.5" x2="0.5" y2="1" gradientUnits="objectBoundingBox">
      <stop offset="0" stop-color="#f5f5f5"/>
      <stop offset="1" stop-color="#fff"/>
    </linearGradient>
  </defs>
  <g id="Group_1049" data-name="Group 1049" transform="translate(-1282 -821)">
    <circle id="Ellipse_6" data-name="Ellipse 6" cx="62" cy="62" r="62" transform="translate(1282 821)" fill="url(#linear-gradient)"/>
    <g id="Group_718" data-name="Group 718" transform="translate(1240.82 831.271)">
      <path id="Path_846" data-name="Path 846" d="M135.253,296.719h4.729a.949.949,0,1,0,0-1.9h-4.729a.949.949,0,0,0,0,1.9Z" transform="translate(-47.647 -239.077)" fill="#182b4c"/>
      <path id="Path_847" data-name="Path 847" d="M203.12,295.769a.95.95,0,0,0,.949.949h21.779a.949.949,0,1,0,0-1.9H204.069a.949.949,0,0,0-.949.949Z" transform="translate(-107.13 -239.077)" fill="#182b4c"/>
      <path id="Path_848" data-name="Path 848" d="M135.253,342.239h4.729a.949.949,0,0,0,0-1.9h-4.729a.949.949,0,0,0,0,1.9Z" transform="translate(-47.647 -278.423)" fill="#182b4c"/>
      <path id="Path_849" data-name="Path 849" d="M225.849,340.34H204.069a.949.949,0,0,0,0,1.9h21.779a.949.949,0,1,0,0-1.9Z" transform="translate(-107.13 -278.423)" fill="#182b4c"/>
      <path id="Path_850" data-name="Path 850" d="M135.253,387.763h4.729a.949.949,0,1,0,0-1.9h-4.729a.949.949,0,0,0,0,1.9Z" transform="translate(-47.647 -317.773)" fill="#182b4c"/>
      <path id="Path_851" data-name="Path 851" d="M225.849,385.864H204.069a.949.949,0,1,0,0,1.9h21.779a.949.949,0,1,0,0-1.9Z" transform="translate(-107.13 -317.773)" fill="#182b4c"/>
      <path id="Path_852" data-name="Path 852" d="M223.59,126.9l-1.19,1.469a6.761,6.761,0,0,0,3.847,1.766v1.106h1.5v-1.056c2.394-.163,3.764-1.552,3.764-3.45,0-2.014-1.5-2.79-3.764-3.3v-3.106a5.4,5.4,0,0,1,2.344,1.238l1.122-1.519a6.135,6.135,0,0,0-3.466-1.535v-1.02h-1.5v1.007a3.523,3.523,0,0,0-3.4,3.4c0,1.948,1.37,2.675,3.4,3.2v3.219a5.642,5.642,0,0,1-2.658-1.418Zm4.16-1.419c1.172.347,1.7.693,1.7,1.452,0,.726-.578,1.356-1.7,1.486Zm-2.821-3.764a1.559,1.559,0,0,1,1.321-1.42v2.742c-.894-.316-1.323-.663-1.323-1.323Z" transform="translate(-123.795 -85.797)" fill="#e74c3c"/>
      <path id="Path_853" data-name="Path 853" d="M178.207,102.578A12.207,12.207,0,1,0,166,90.371,12.207,12.207,0,0,0,178.207,102.578Zm0-22.512A10.308,10.308,0,1,1,167.9,90.374,10.308,10.308,0,0,1,178.207,80.066Z" transform="translate(-75.044 -51.807)" fill="#e74c3c"/>
      <path id="Path_854" data-name="Path 854" d="M126.2,18.228H80.129a.949.949,0,0,0-.949.949v62.6a.949.949,0,0,0,1.621.672l3.935-3.936,3.936,3.936a.95.95,0,0,0,1.343,0l3.935-3.936,3.936,3.936a.95.95,0,0,0,1.343,0l3.935-3.936L107.1,82.45a.95.95,0,0,0,1.343,0l3.935-3.935,3.935,3.935a.95.95,0,0,0,1.343,0l3.936-3.936,3.935,3.936a.949.949,0,0,0,1.621-.672v-62.6a.949.949,0,0,0-.949-.949Zm-.949,61.258L122.262,76.5a.95.95,0,0,0-1.342,0l-3.936,3.936L113.049,76.5a.95.95,0,0,0-1.342,0l-3.936,3.936L103.836,76.5a.95.95,0,0,0-1.342,0l-3.936,3.936L94.623,76.5a.95.95,0,0,0-1.342,0l-3.936,3.936L85.409,76.5a.95.95,0,0,0-1.342,0l-2.984,2.984V20.127h44.167Z" transform="translate(0)" fill="#182b4c"/>
    </g>
  </g>
</svg>
