<svg xmlns="http://www.w3.org/2000/svg" xmlns:xlink="http://www.w3.org/1999/xlink" width="124" height="124" viewBox="0 0 124 124">
  <defs>
    <linearGradient id="linear-gradient" x1="0.5" x2="0.5" y2="1" gradientUnits="objectBoundingBox">
      <stop offset="0" stop-color="#f5f5f5"/>
      <stop offset="1" stop-color="#fff"/>
    </linearGradient>
  </defs>
  <g id="Group_1052" data-name="Group 1052" transform="translate(-1282 -1356)">
    <g id="Group_681" data-name="Group 681" transform="translate(890 -524)">
      <circle id="Ellipse_5" data-name="Ellipse 5" cx="62" cy="62" r="62" transform="translate(392 1880)" fill="url(#linear-gradient)"/>
    </g>
    <g id="_06-Coin" data-name=" 06-Coin" transform="translate(1302.999 1378.239)">
      <g id="filled" transform="translate(4 4)">
        <path id="Path_873" data-name="Path 873" d="M75.261,25l-9.113-9.113A1.709,1.709,0,0,0,63.232,17.1v2.848H59.815V10.265A6.272,6.272,0,0,0,53.55,4H26.212a6.272,6.272,0,0,0-6.265,6.265v37.02H16.53V44.437a1.709,1.709,0,0,0-2.917-1.208L4.5,52.341a1.709,1.709,0,0,0,0,2.416l9.113,9.113a1.719,1.719,0,0,0,2.917-1.208V59.814h3.417V69.5a6.272,6.272,0,0,0,6.265,6.265H53.55A6.272,6.272,0,0,0,59.815,69.5V32.477h3.417v2.848a1.719,1.719,0,0,0,2.917,1.208l9.113-9.113A1.709,1.709,0,0,0,75.261,25ZM26.212,7.417H53.55A2.851,2.851,0,0,1,56.4,10.265v2.848H23.365V10.265A2.851,2.851,0,0,1,26.212,7.417ZM53.55,72.344H26.212A2.851,2.851,0,0,1,23.365,69.5V66.649H56.4V69.5A2.851,2.851,0,0,1,53.55,72.344ZM66.649,31.2v-.431a1.709,1.709,0,0,0-1.709-1.709H51.272a1.709,1.709,0,1,0,0,3.417H56.4V63.231H23.365V59.814H28.49a1.709,1.709,0,1,0,0-3.417H14.822a1.709,1.709,0,0,0-1.709,1.709v.431L8.125,53.549l4.988-4.988v.431A1.709,1.709,0,0,0,14.822,50.7H28.49a1.709,1.709,0,1,0,0-3.417H23.365V16.53H56.4v3.417H51.272a1.709,1.709,0,1,0,0,3.417H64.94a1.709,1.709,0,0,0,1.709-1.709v-.431l4.988,4.988Z" transform="translate(-4 -4)" fill="#182b4c" stroke="#fff" stroke-width="1"/>
        <path id="Path_874" data-name="Path 874" d="M202.265,155.973h5.7a1.711,1.711,0,0,1,1.709,1.709,1.709,1.709,0,0,0,3.417,0,5.132,5.132,0,0,0-5.126-5.126h-1.709v-2.848a1.709,1.709,0,1,0-3.417,0v2.848h-.57a6.265,6.265,0,0,0,0,12.53h4.556a2.848,2.848,0,1,1,0,5.7h-5.7a1.711,1.711,0,0,1-1.709-1.709,1.709,1.709,0,1,0-3.417,0,5.131,5.131,0,0,0,5.126,5.126h1.709v2.848a1.709,1.709,0,0,0,3.417,0V174.2h.57a6.265,6.265,0,1,0,0-12.53h-4.556a2.848,2.848,0,1,1,0-5.7Z" transform="translate(-168.663 -127.497)" fill="#e74c3c" stroke="#fff" stroke-width="1"/>
      </g>
    </g>
  </g>
</svg>
