<svg xmlns="http://www.w3.org/2000/svg" xmlns:xlink="http://www.w3.org/1999/xlink" width="124" height="124" viewBox="0 0 124 124">
  <defs>
    <linearGradient id="linear-gradient" x1="0.5" x2="0.5" y2="1" gradientUnits="objectBoundingBox">
      <stop offset="0" stop-color="#f5f5f5"/>
      <stop offset="1" stop-color="#fff"/>
    </linearGradient>
  </defs>
  <g id="Group_1055" data-name="Group 1055" transform="translate(-277 -821)">
    <g id="Group_321" data-name="Group 321" transform="translate(-1105 -1047)">
      <circle id="Ellipse_4" data-name="Ellipse 4" cx="62" cy="62" r="62" transform="translate(1382 1868)" fill="url(#linear-gradient)"/>
    </g>
    <g id="Group_717" data-name="Group 717" transform="translate(-6308.5 330.5)">
      <g id="Group_715" data-name="Group 715" transform="translate(6615 519)">
        <g id="patient_information-information-record-computer-data" data-name="patient information-information-record-computer-data" transform="translate(0 0)">
          <path id="Path_831" data-name="Path 831" d="M75.492,16H21.408A5.408,5.408,0,0,0,16,21.408v41.1a5.408,5.408,0,0,0,5.408,5.408H41.96v6.49H35.47a3.255,3.255,0,0,0-3.245,3.245v2.163A1.082,1.082,0,0,0,33.307,80.9H63.594a1.082,1.082,0,0,0,1.082-1.082V77.655A3.255,3.255,0,0,0,61.43,74.41H54.94V67.92H75.492A5.408,5.408,0,0,0,80.9,62.512v-41.1A5.408,5.408,0,0,0,75.492,16ZM61.43,76.574a1.082,1.082,0,0,1,1.082,1.082v1.082H34.388V77.655a1.082,1.082,0,0,1,1.082-1.082ZM44.123,74.41V67.92h8.653v6.49Zm34.614-11.9a3.255,3.255,0,0,1-3.245,3.245H21.408a3.255,3.255,0,0,1-3.245-3.245V59.267H78.737Zm0-5.408H18.163v-35.7a3.255,3.255,0,0,1,3.245-3.245H75.492a3.255,3.255,0,0,1,3.245,3.245Z" transform="translate(-16 -16)" fill="#182b4c"/>
          <path id="Path_832" data-name="Path 832" d="M432,352h2.163v2.163H432Z" transform="translate(-375.753 -306.57)" fill="#182b4c"/>
          <path id="Path_833" data-name="Path 833" d="M400,352h2.163v2.163H400Z" transform="translate(-348.08 -306.57)" fill="#182b4c"/>
          <path id="Path_834" data-name="Path 834" d="M91.042,64H65.082A1.082,1.082,0,0,0,64,65.082V93.205a1.082,1.082,0,0,0,1.082,1.082h25.96a1.082,1.082,0,0,0,1.082-1.082V65.082A1.082,1.082,0,0,0,91.042,64ZM85.633,92.123H70.49V88.878A5.408,5.408,0,0,1,75.9,83.47h4.327a5.408,5.408,0,0,1,5.408,5.408ZM80.128,74.838l2.261.757v2.466a3.255,3.255,0,0,1-3.245,3.245H76.98a3.255,3.255,0,0,1-3.245-3.245v-2.3Zm-6.371-1.276A3.232,3.232,0,0,1,76.98,70.49h2.163a3.245,3.245,0,0,1,3.2,2.812l-1.774-.595a1.116,1.116,0,0,0-.5-.043Zm16.2,18.562H87.8V88.878A7.592,7.592,0,0,0,83,81.837a5.387,5.387,0,0,0,1.547-3.775V73.735a5.408,5.408,0,0,0-5.408-5.408H76.98a5.408,5.408,0,0,0-5.408,5.408v4.327a5.387,5.387,0,0,0,1.547,3.775,7.592,7.592,0,0,0-4.792,7.042v3.245H66.163V66.163h23.8Z" transform="translate(-57.51 -57.51)" fill="#182b4c"/>
          <path id="Path_835" data-name="Path 835" d="M289.082,246.49h19.47a1.082,1.082,0,0,0,1.082-1.082v-4.327A1.082,1.082,0,0,0,308.552,240h-19.47A1.082,1.082,0,0,0,288,241.082v4.327A1.082,1.082,0,0,0,289.082,246.49Zm1.082-4.327H307.47v2.163H290.163Z" transform="translate(-251.223 -209.713)" fill="#182b4c"/>
          <path id="Path_841" data-name="Path 841" d="M336,160h15.143v2.163H336Z" transform="translate(-292.733 -138.772)" fill="#182b4c"/>
          <path id="Path_842" data-name="Path 842" d="M288,208h4.327v2.163H288Z" transform="translate(-251.223 -182.04)" fill="#182b4c"/>
          <path id="Path_843" data-name="Path 843" d="M336,208h15.143v2.163H336Z" transform="translate(-292.733 -182.04)" fill="#182b4c"/>
        </g>
        <path id="Path_845" data-name="Path 845" d="M0,0H20.822V24.473H0Z" transform="translate(10.276 10.141)" fill="#f5f5f5"/>
        <g id="Group_714" data-name="Group 714" transform="translate(14.308 13.5)">
          <path id="Path_844" data-name="Path 844" d="M105.6,199.118s-1-7.118,6.216-7.118,6.316,7.118,6.316,7.118Z" transform="translate(-105.555 -182.175)" fill="#e74c3c"/>
          <circle id="Ellipse_182" data-name="Ellipse 182" cx="4.461" cy="4.461" r="4.461" transform="translate(1.846)" fill="#e74c3c"/>
        </g>
      </g>
      <g id="Group_716" data-name="Group 716" transform="translate(6658.537 524.408)">
        <line id="Line_87" data-name="Line 87" y2="12.98" transform="translate(6.451 0)" fill="none" stroke="#e74c3c" stroke-width="3"/>
        <line id="Line_88" data-name="Line 88" y2="12.98" transform="translate(12.98 6.529) rotate(90)" fill="none" stroke="#e74c3c" stroke-width="3"/>
      </g>
    </g>
  </g>
</svg>
