<svg xmlns="http://www.w3.org/2000/svg" xmlns:xlink="http://www.w3.org/1999/xlink" width="124" height="124" viewBox="0 0 124 124">
  <defs>
    <linearGradient id="linear-gradient" x1="0.5" x2="0.5" y2="1" gradientUnits="objectBoundingBox">
      <stop offset="0" stop-color="#f5f5f5"/>
      <stop offset="1" stop-color="#fff"/>
    </linearGradient>
  </defs>
  <g id="Group_1061" data-name="Group 1061" transform="translate(-1139 -1376)">
    <g id="Group_324" data-name="Group 324" transform="translate(747 -504)">
      <circle id="Ellipse_5" data-name="Ellipse 5" cx="62" cy="62" r="62" transform="translate(392 1880)" fill="url(#linear-gradient)"/>
    </g>
    <g id="Group_364" data-name="Group 364" transform="translate(1103.119 1383.249)">
      <path id="Path_232" data-name="Path 232" d="M74.393,90.972h45.146a3.942,3.942,0,0,0,4.006-3.874V81.052a3.975,3.975,0,0,0,3.813-3.864V22.864a4.014,4.014,0,0,0-4.087-3.874h-51.3a4.014,4.014,0,0,0-4.087,3.875V84.736c0,.02.034.041.034.061A6.351,6.351,0,0,0,74.393,90.972ZM70.321,22.865a1.579,1.579,0,0,1,1.647-1.435h51.3a1.578,1.578,0,0,1,1.647,1.434V77.188a1.576,1.576,0,0,1-1.647,1.431H74.393a7.078,7.078,0,0,0-4.072,1.342Zm.069,61.884a3.886,3.886,0,0,1,4-3.69H121.1V87.1a1.5,1.5,0,0,1-1.566,1.434H74.393a3.881,3.881,0,0,1-4-3.736Z" fill="#182b4c"/>
      <path id="Path_233" data-name="Path 233" d="M148.371,421.218h37.684a1.22,1.22,0,1,0,0-2.44H148.371a1.22,1.22,0,1,0,0,2.44Z" transform="translate(-69.594 -350.987)" fill="#182b4c"/>
      <path id="Path_234" data-name="Path 234" d="M148.371,358.751h37.684a1.22,1.22,0,1,0,0-2.44H148.371a1.22,1.22,0,0,0,0,2.44Z" transform="translate(-69.594 -296.145)" fill="#182b4c"/>
      <path id="Path_235" data-name="Path 235" d="M187.845,131.183h27.947a1.22,1.22,0,1,0,0-2.44H213.25V112.75a1.212,1.212,0,0,0-1.191-1.239H208.11a1.211,1.211,0,0,0-1.19,1.239v15.993h-1.481V119.78a1.3,1.3,0,0,0-1.282-1.254h-3.8a1.277,1.277,0,0,0-1.251,1.254v8.963h-1.616V116.051a1.192,1.192,0,0,0-1.222-1.186h-3.881a1.141,1.141,0,0,0-1.16,1.186v12.692h-2.224V109.787a1.22,1.22,0,1,0-2.44,0v20.222A1.232,1.232,0,0,0,187.845,131.183Zm21.141-17.233h2.135v14.793h-2.135Zm-7.93,7.015h2.288v7.778h-2.288Zm-7.778-3.66h2.135v11.438h-2.135Z" transform="translate(-104.199 -78.643)" fill="#e74c3c"/>
    </g>
  </g>
</svg>
