<svg xmlns="http://www.w3.org/2000/svg" xmlns:xlink="http://www.w3.org/1999/xlink" width="124" height="124" viewBox="0 0 124 124">
  <defs>
    <linearGradient id="linear-gradient" x1="0.5" x2="0.5" y2="1" gradientUnits="objectBoundingBox">
      <stop offset="0" stop-color="#f5f5f5"/>
      <stop offset="1" stop-color="#fff"/>
    </linearGradient>
  </defs>
  <g id="Group_324" data-name="Group 324" transform="translate(-392 -1880)">
    <circle id="Ellipse_5" data-name="Ellipse 5" cx="62" cy="62" r="62" transform="translate(392 1880)" fill="url(#linear-gradient)"/>
    <g id="Group_312" data-name="Group 312" transform="translate(385.848 1887.772)">
      <path id="Path_203" data-name="Path 203" d="M93.867,18.228H56.078a1.1,1.1,0,0,0-.192.019h-.02a1.035,1.035,0,0,0-.256.091c-.021.01-.041.021-.061.033a1.078,1.078,0,0,0-.224.166L41.463,32.4a1.058,1.058,0,0,0-.168.226c-.01.019-.021.037-.03.057a1.07,1.07,0,0,0-.093.26v.011a1.066,1.066,0,0,0-.02.2v56.33a1.064,1.064,0,0,0,1.063,1.065H93.867a1.065,1.065,0,0,0,1.065-1.065V19.293A1.065,1.065,0,0,0,93.867,18.228ZM55.014,21.863V32.092H44.785ZM92.8,88.42H43.279v-54.2h12.8a1.065,1.065,0,0,0,1.065-1.065v-12.8H92.8Z" fill="#182b4c"/>
      <path id="Path_205" data-name="Path 205" d="M142.506,207.488H112.121a1.065,1.065,0,1,0,0,2.129h30.386a1.065,1.065,0,0,0,0-2.129Z" transform="translate(-59.273 -160.477)" fill="#e74c3c"/>
      <path id="Path_206" data-name="Path 206" d="M142.506,251.2H112.121a1.065,1.065,0,0,0,0,2.129h30.386a1.065,1.065,0,0,0,0-2.129Z" transform="translate(-59.273 -197.542)" fill="#e74c3c"/>
      <path id="Path_207" data-name="Path 207" d="M142.506,163.764H112.121a1.065,1.065,0,0,0,0,2.129h30.386a1.065,1.065,0,0,0,0-2.129Z" transform="translate(-59.273 -123.403)" fill="#182b4c"/>
      <path id="Path_208" data-name="Path 208" d="M205.613,76.677H221.78a1.065,1.065,0,0,0,0-2.129H205.613a1.065,1.065,0,0,0,0,2.129Z" transform="translate(-138.547 -47.755)" fill="#182b4c"/>
      <path id="Path_209" data-name="Path 209" d="M116.181,363.272h-4.061a1.065,1.065,0,0,0-1.065,1.065v9.152a1.064,1.064,0,0,0,1.063,1.065h4.062a1.065,1.065,0,0,0,1.065-1.065v-9.152A1.065,1.065,0,0,0,116.181,363.272Zm-1.065,9.152h-1.931V365.4h1.931Z" transform="translate(-59.273 -292.57)" fill="#182b4c"/>
      <path id="Path_210" data-name="Path 210" d="M173.881,320.992h-4.061a1.065,1.065,0,0,0-1.065,1.066V337.64a1.065,1.065,0,0,0,1.065,1.065h4.061a1.064,1.064,0,0,0,1.065-1.063h0V322.058a1.065,1.065,0,0,0-1.063-1.066Zm-1.065,15.582h-1.931V323.121h1.931Z" transform="translate(-108.198 -256.72)" fill="#182b4c"/>
      <path id="Path_211" data-name="Path 211" d="M231.582,337.312h-4.061a1.065,1.065,0,0,0-1.065,1.065v13.1a1.065,1.065,0,0,0,1.065,1.065h4.061a1.065,1.065,0,0,0,1.065-1.065v-13.1A1.065,1.065,0,0,0,231.582,337.312Zm-1.065,13.1h-1.932V339.441h1.932Z" transform="translate(-157.123 -270.558)" fill="#e74c3c"/>
      <path id="Path_212" data-name="Path 212" d="M289.284,291.828h-4.06a1.065,1.065,0,0,0-1.065,1.065V312.91a1.064,1.064,0,0,0,1.063,1.065h4.061a1.064,1.064,0,0,0,1.065-1.063h0V292.893a1.065,1.065,0,0,0-1.065-1.065Zm-1.065,20.017h-1.931V293.957h1.931Z" transform="translate(-206.051 -231.991)" fill="#e74c3c"/>
    </g>
  </g>
</svg>
