<svg xmlns="http://www.w3.org/2000/svg" width="309" height="291.775" viewBox="0 0 309 291.775">
  <g id="Group_1119" data-name="Group 1119" transform="translate(-10.798 -17.67)">
    <g id="Group_460" data-name="Group 460" transform="translate(39.268 39.95)">
      <circle id="Ellipse_147" data-name="Ellipse 147" cx="124.359" cy="124.359" r="124.359" transform="translate(0 5.356) rotate(-1.234)" fill="none" stroke="#a2a2a3" stroke-miterlimit="10" stroke-width="4" stroke-dasharray="3.379 3.379"/>
    </g>
    <path id="Path_505" data-name="Path 505" d="M374.033,124.037a30.782,30.782,0,1,1-30.782-30.781A30.782,30.782,0,0,1,374.033,124.037Z" transform="translate(-72.174 -18.084)" fill="#c7e8fc"/>
    <path id="Path_506" data-name="Path 506" d="M91.834,241.33a30.781,30.781,0,1,1-30.782-30.782A30.781,30.781,0,0,1,91.834,241.33Z" transform="translate(-4.659 -46.145)" fill="#c7e8fc"/>
    <path id="Path_507" data-name="Path 507" d="M77.254,174.316" transform="translate(-15.899 -37.477)" fill="#de2e34"/>
    <path id="Path_508" data-name="Path 508" d="M77.252,174.18" transform="translate(-15.899 -37.444)" fill="#de2e34"/>
    <g id="Group_461" data-name="Group 461" transform="translate(135.495 17.67)">
      <path id="Path_509" data-name="Path 509" d="M236.273,48.451A30.781,30.781,0,1,1,205.492,17.67,30.782,30.782,0,0,1,236.273,48.451Z" transform="translate(-174.711 -17.67)" fill="#133048"/>
    </g>
    <path id="Path_510" data-name="Path 510" d="M236.273,48.451A30.781,30.781,0,1,1,205.492,17.67,30.782,30.782,0,0,1,236.273,48.451Z" transform="translate(-39.216 0)" fill="none"/>
    <g id="Group_462" data-name="Group 462" transform="translate(197.058 17.67)">
      <path id="Path_511" data-name="Path 511" d="M266.118,22.912a5.242,5.242,0,1,1-5.242-5.242A5.242,5.242,0,0,1,266.118,22.912Z" transform="translate(-255.634 -17.67)" fill="#0e213c"/>
      <circle id="Ellipse_148" data-name="Ellipse 148" cx="3.888" cy="3.888" r="3.888" transform="translate(10.92 13.264)" fill="#c7e8fc"/>
      <path id="Path_512" data-name="Path 512" d="M282.117,23.457a3.509,3.509,0,1,1-3.509-3.509A3.508,3.508,0,0,1,282.117,23.457Z" transform="translate(-260.291 -18.215)" fill="#a2a2a3"/>
    </g>
    <g id="Group_463" data-name="Group 463" transform="translate(55.338 50.087)">
      <path id="Path_513" data-name="Path 513" d="M78.911,70a5.242,5.242,0,1,1-7.288-1.358A5.242,5.242,0,0,1,78.911,70Z" transform="translate(-69.346 -62.062)" fill="#e0332d"/>
      <path id="Path_514" data-name="Path 514" d="M97.446,76.991a3.888,3.888,0,1,1-5.405-1.006A3.89,3.89,0,0,1,97.446,76.991Z" transform="translate(-74.371 -63.875)" fill="#133048"/>
      <path id="Path_515" data-name="Path 515" d="M92.2,61.806a3.509,3.509,0,1,1-4.878-.908A3.508,3.508,0,0,1,92.2,61.806Z" transform="translate(-73.282 -60.281)" fill="#a2a2a3"/>
    </g>
    <g id="Group_464" data-name="Group 464" transform="translate(10.798 156.154)">
      <path id="Path_516" data-name="Path 516" d="M17,214.414a5.242,5.242,0,1,1-6.113,4.193A5.242,5.242,0,0,1,17,214.414Z" transform="translate(-10.798 -203.202)" fill="#c7e8fc"/>
      <path id="Path_517" data-name="Path 517" d="M34.873,206.675a3.888,3.888,0,1,1-4.535,3.109A3.888,3.888,0,0,1,34.873,206.675Z" transform="translate(-15.457 -201.356)" fill="#133048"/>
      <path id="Path_518" data-name="Path 518" d="M20.375,199.764a3.509,3.509,0,1,1-4.091,2.809A3.51,3.51,0,0,1,20.375,199.764Z" transform="translate(-12.096 -199.705)" fill="#a2a2a3"/>
    </g>
    <g id="Group_465" data-name="Group 465" transform="translate(295.514 117.605)">
      <path id="Path_519" data-name="Path 519" d="M393.034,162.183a5.242,5.242,0,1,1-7.208,1.732A5.241,5.241,0,0,1,393.034,162.183Z" transform="translate(-385.053 -151.995)" fill="#133048"/>
      <path id="Path_520" data-name="Path 520" d="M412.671,161.217a3.888,3.888,0,1,1-5.347,1.285A3.889,3.889,0,0,1,412.671,161.217Z" transform="translate(-390.244 -151.811)" fill="#0e213c"/>
      <path id="Path_521" data-name="Path 521" d="M401.65,149.55a3.508,3.508,0,1,1-4.825,1.161A3.506,3.506,0,0,1,401.65,149.55Z" transform="translate(-387.746 -149.034)" fill="#a2a2a3"/>
    </g>
    <g id="Group_466" data-name="Group 466" transform="translate(280.754 229.208)">
      <path id="Path_522" data-name="Path 522" d="M373.009,311.773a5.242,5.242,0,1,1-2.947,6.8A5.242,5.242,0,0,1,373.009,311.773Z" transform="translate(-366.618 -299.482)" fill="#c7e8fc"/>
      <path id="Path_523" data-name="Path 523" d="M383.866,296.006a3.888,3.888,0,1,1-2.186,5.046A3.89,3.89,0,0,1,383.866,296.006Z" transform="translate(-369.42 -295.733)" fill="#e0332d"/>
      <path id="Path_524" data-name="Path 524" d="M367.87,297.948A3.509,3.509,0,1,1,365.9,302.5,3.507,3.507,0,0,1,367.87,297.948Z" transform="translate(-365.651 -296.204)" fill="#a2a2a3"/>
    </g>
    <g id="Group_467" data-name="Group 467" transform="translate(35.917 230.705)">
      <path id="Path_525" data-name="Path 525" d="M51.174,313.742a5.242,5.242,0,1,1-2.947,6.8A5.242,5.242,0,0,1,51.174,313.742Z" transform="translate(-44.784 -301.451)" fill="#c7e8fc"/>
      <path id="Path_526" data-name="Path 526" d="M62.031,297.975a3.888,3.888,0,1,1-2.186,5.046A3.889,3.889,0,0,1,62.031,297.975Z" transform="translate(-47.586 -297.702)" fill="#a2a2a3"/>
      <path id="Path_527" data-name="Path 527" d="M46.035,299.917a3.509,3.509,0,1,1-1.971,4.553A3.509,3.509,0,0,1,46.035,299.917Z" transform="translate(-43.817 -298.173)" fill="#133048"/>
    </g>
    <path id="Path_528" data-name="Path 528" d="M256.116,378.787c0,7.6-27.581,13.761-61.6,13.761s-61.605-6.161-61.605-13.761,27.581-13.763,61.605-13.763S256.116,371.186,256.116,378.787Z" transform="translate(-29.215 -83.103)" fill="#bababa"/>
    <g id="Group_470" data-name="Group 470" transform="translate(110.491 104.88)">
      <rect id="Rectangle_202" data-name="Rectangle 202" width="111.84" height="188.677" rx="13.533" fill="#d2d1d1"/>
      <path id="Rectangle_203" data-name="Rectangle 203" d="M13.062,0H94.893a13.065,13.065,0,0,1,13.065,13.065v158.65A13.063,13.063,0,0,1,94.9,184.777H13.061A13.061,13.061,0,0,1,0,171.716V13.062A13.062,13.062,0,0,1,13.062,0Z" transform="translate(1.94 1.949)" fill="#0e213c"/>
      <rect id="Rectangle_204" data-name="Rectangle 204" width="89.38" height="156.247" transform="translate(11.229 14.086)" fill="#fff"/>
      <g id="Group_468" data-name="Group 468" transform="translate(42.466 175.416)">
        <path id="Path_529" data-name="Path 529" d="M224.573,365.5a2.61,2.61,0,0,1-2.609,2.606H200.273a2.6,2.6,0,0,1-2.609-2.606h0a2.605,2.605,0,0,1,2.609-2.606h21.691a2.611,2.611,0,0,1,2.609,2.606Z" transform="translate(-197.664 -362.889)" fill="#fff"/>
        <path id="Path_530" data-name="Path 530" d="M197.664,366.358a2.609,2.609,0,0,0,2.609,2.573h21.691a2.612,2.612,0,0,0,2.609-2.573Z" transform="translate(-197.664 -363.719)" fill="#a3a3a3"/>
      </g>
      <g id="Group_469" data-name="Group 469" transform="translate(42.231 6.319)">
        <rect id="Rectangle_205" data-name="Rectangle 205" width="23.709" height="1.872" transform="translate(0 0.388)" fill="#a3a3a3"/>
        <path id="Path_531" data-name="Path 531" d="M232.506,141.939a1.326,1.326,0,1,1-1.324-1.326A1.326,1.326,0,0,1,232.506,141.939Z" transform="translate(-205.131 -140.613)" fill="#a3a3a3"/>
      </g>
    </g>
    <path id="Path_532" data-name="Path 532" d="M98.513,124.172A30.781,30.781,0,1,1,67.733,93.39,30.783,30.783,0,0,1,98.513,124.172Z" transform="translate(-6.257 -18.116)" fill="#e0332d"/>
    <path id="Path_533" data-name="Path 533" d="M382.164,241.328a30.782,30.782,0,1,1-30.782-30.781A30.783,30.783,0,0,1,382.164,241.328Z" transform="translate(-74.119 -46.145)" fill="#0d223b"/>
    <g id="Layer_1" data-name="Layer 1" transform="translate(152.957 30.194)">
      <path id="Path_534" data-name="Path 534" d="M202.229,38.7h-4.565V70.648H223.53V66.084h4.565V34.132H202.229Zm19.78,30.43H199.186V40.218h17.5v5.325h5.325V69.127Zm-3.8-27.833,2.728,2.728H218.2Zm-14.454-5.64h22.823V64.562H223.53V44.468L217.759,38.7H203.75Z" transform="translate(-197.664 -34.132)" fill="#fff"/>
      <path id="Path_535" data-name="Path 535" d="M211.793,47.132h-9.129v9.129h9.129Zm-1.521,7.608h-6.086V48.654h6.086Z" transform="translate(-198.86 -37.242)" fill="#fff"/>
      <rect id="Rectangle_206" data-name="Rectangle 206" width="6.847" height="1.522" transform="translate(15.215 13.694)" fill="#fff"/>
      <rect id="Rectangle_207" data-name="Rectangle 207" width="6.847" height="1.522" transform="translate(15.215 17.497)" fill="#fff"/>
      <rect id="Rectangle_208" data-name="Rectangle 208" width="11.411" height="1.522" transform="translate(3.803 21.301)" fill="#fff"/>
      <rect id="Rectangle_209" data-name="Rectangle 209" width="4.565" height="1.522" transform="translate(17.497 21.301)" fill="#fff"/>
      <rect id="Rectangle_210" data-name="Rectangle 210" width="4.565" height="1.522" transform="translate(3.803 25.105)" fill="#fff"/>
      <rect id="Rectangle_211" data-name="Rectangle 211" width="11.411" height="1.522" transform="translate(10.65 25.105)" fill="#fff"/>
      <rect id="Rectangle_212" data-name="Rectangle 212" width="10.651" height="1.522" transform="translate(3.803 28.909)" fill="#fff"/>
      <rect id="Rectangle_213" data-name="Rectangle 213" width="5.325" height="1.522" transform="translate(16.736 28.909)" fill="#fff"/>
    </g>
    <g id="Group_471" data-name="Group 471" transform="translate(260.89 177.289)">
      <path id="Path_536" data-name="Path 536" d="M373.094,243.146H370.63a13.4,13.4,0,0,0-10.959-10.959v-2.463a2.237,2.237,0,0,0-4.473,0v2.463a13.4,13.4,0,0,0-10.959,10.959h-2.463a2.237,2.237,0,0,0,0,4.473h2.463A13.4,13.4,0,0,0,355.2,258.578v2.463a2.237,2.237,0,1,0,4.473,0v-2.463a13.4,13.4,0,0,0,10.959-10.959h2.463a2.237,2.237,0,1,0,0-4.473Zm-15.659,11.184a8.947,8.947,0,1,1,8.947-8.947A8.947,8.947,0,0,1,357.435,254.329Z" transform="translate(-339.54 -227.487)" fill="#fff"/>
      <path id="Path_537" data-name="Path 537" d="M361.656,245.129a4.474,4.474,0,1,0,4.474,4.474A4.474,4.474,0,0,0,361.656,245.129Z" transform="translate(-343.761 -231.708)" fill="#fff"/>
    </g>
    <rect id="Rectangle_214" data-name="Rectangle 214" width="89.38" height="5.657" transform="translate(121.72 118.966)" fill="#a2a2a3"/>
    <rect id="Rectangle_215" data-name="Rectangle 215" width="24.717" height="24.717" transform="translate(128.766 150.867)" fill="#a2a2a3"/>
    <rect id="Rectangle_216" data-name="Rectangle 216" width="39.831" height="6.409" transform="translate(163.983 152.388)" fill="#a2a2a3"/>
    <rect id="Rectangle_217" data-name="Rectangle 217" width="75.047" height="6.409" transform="translate(128.766 199.996)" fill="#a2a2a3"/>
    <rect id="Rectangle_218" data-name="Rectangle 218" width="75.047" height="6.409" transform="translate(128.766 210.245)" fill="#a2a2a3"/>
    <rect id="Rectangle_219" data-name="Rectangle 219" width="75.047" height="6.409" transform="translate(128.753 220.495)" fill="#a2a2a3"/>
    <rect id="Rectangle_220" data-name="Rectangle 220" width="75.047" height="6.409" transform="translate(128.888 231.258)" fill="#a2a2a3"/>
    <rect id="Rectangle_221" data-name="Rectangle 221" width="75.047" height="6.409" transform="translate(128.753 242.272)" fill="#a2a2a3"/>
    <rect id="Rectangle_222" data-name="Rectangle 222" width="39.831" height="6.409" transform="translate(163.983 160.782)" fill="#a2a2a3"/>
    <rect id="Rectangle_223" data-name="Rectangle 223" width="39.831" height="6.409" transform="translate(163.983 169.175)" fill="#a2a2a3"/>
    <g id="Group_472" data-name="Group 472" transform="translate(47.533 89.037)">
      <path id="Path_538" data-name="Path 538" d="M83.4,111.481H60.864a1.779,1.779,0,0,0-1.779,1.779v32.027a1.779,1.779,0,0,0,1.779,1.779H83.4a1.779,1.779,0,0,0,1.779-1.779V113.26A1.779,1.779,0,0,0,83.4,111.481Zm-22.538,34.4a.593.593,0,0,1-.593-.593V113.26a.593.593,0,0,1,.593-.593h1.779v33.214ZM84,145.287a.593.593,0,0,1-.593.593H63.83V112.667H83.4a.593.593,0,0,1,.593.593Z" transform="translate(-59.085 -111.481)" fill="#fff"/>
      <path id="Path_539" data-name="Path 539" d="M82.455,119.277H70.593a.593.593,0,0,0-.593.593v7.118a.593.593,0,0,0,.593.593H82.455a.593.593,0,0,0,.593-.593V119.87A.593.593,0,0,0,82.455,119.277Zm-.593,7.117H71.186v-5.931H81.862Z" transform="translate(-61.696 -113.346)" fill="#fff"/>
      <path id="Path_540" data-name="Path 540" d="M82.455,134.09H70.593a.593.593,0,1,0,0,1.186H82.455a.593.593,0,1,0,0-1.186Z" transform="translate(-61.696 -116.89)" fill="#fff"/>
      <path id="Path_541" data-name="Path 541" d="M82.455,137.988H70.593a.593.593,0,1,0,0,1.186H82.455a.593.593,0,1,0,0-1.186Z" transform="translate(-61.696 -117.823)" fill="#fff"/>
    </g>
    <g id="Group_475" data-name="Group 475" transform="translate(254.832 92.942)">
      <g id="Group_473" data-name="Group 473">
        <path id="Path_542" data-name="Path 542" d="M364.66,142.639H335.086a3.514,3.514,0,0,1-3.509-3.51V120.123a3.509,3.509,0,0,1,3.509-3.509H364.66a3.507,3.507,0,0,1,3.509,3.509v19.005A3.514,3.514,0,0,1,364.66,142.639Zm-29.574-24.448a1.932,1.932,0,0,0-1.932,1.932v19.005a1.934,1.934,0,0,0,1.932,1.932H364.66a1.934,1.934,0,0,0,1.932-1.932V120.123a1.93,1.93,0,0,0-1.932-1.932Z" transform="translate(-331.577 -116.614)" fill="#fff"/>
      </g>
      <g id="Group_474" data-name="Group 474" transform="translate(1.893 0.709)">
        <path id="Path_543" data-name="Path 543" d="M350.627,134.108a.787.787,0,0,1-.543-.217l-15.773-14.984a.789.789,0,1,1,1.086-1.143l15.23,14.467,15.229-14.467a.789.789,0,1,1,1.086,1.143L351.17,133.891A.786.786,0,0,1,350.627,134.108Z" transform="translate(-334.065 -117.546)" fill="#fff"/>
      </g>
    </g>
    <path id="Path_544" data-name="Path 544" d="M74.577,262.421H57.84a3.043,3.043,0,0,1-3.043-3.043V236.555a3.043,3.043,0,0,1,3.043-3.043h5.325v-3.043a3.043,3.043,0,1,1,6.086,0v3.043h5.325a3.043,3.043,0,0,1,3.043,3.043v22.823A3.043,3.043,0,0,1,74.577,262.421ZM67.73,230.469a1.522,1.522,0,1,0-3.043,0v4.564a1.522,1.522,0,1,0,3.043,0Zm8.368,6.086a1.522,1.522,0,0,0-1.522-1.522H69.251a3.043,3.043,0,1,1-6.086,0H57.84a1.522,1.522,0,0,0-1.522,1.522v18.258h2.889a8.247,8.247,0,0,1,.882-1.7c.019-.011.645-1.323,3.8-1.362,0-.016.008-.793.017-.781a5.544,5.544,0,0,1-.8-.621A3.186,3.186,0,0,1,62,248.38a30.016,30.016,0,0,1-.371-3.169c0-2.412.962-4.854,4.529-4.854h.092c3.566,0,4.529,2.442,4.529,4.854a30.016,30.016,0,0,1-.371,3.169,3.182,3.182,0,0,1-1.1,1.965,5.409,5.409,0,0,1-.8.621c.01-.011.014.766.017.781,3.158.039,3.784,1.351,3.8,1.362a8.246,8.246,0,0,1,.882,1.7H76.1ZM66.98,250.62v0l-.013-.594a8.535,8.535,0,0,0,1.545-1.048,2.3,2.3,0,0,0,.564-1.036,25.581,25.581,0,0,0,.181-2.817,2.938,2.938,0,0,0-3.048-3.256v0a2.938,2.938,0,0,0-3.048,3.256,25.96,25.96,0,0,0,.181,2.817,2.3,2.3,0,0,0,.564,1.036,8.535,8.535,0,0,0,1.545,1.048s-.011.594-.014.594v0s.022.872.022,1.13a1.663,1.663,0,0,1-1.691,1.536h0c-1.973.087-2.438.742-2.442.749a3.714,3.714,0,0,0-.44.778H71.536a3.638,3.638,0,0,0-.443-.777c0-.007-.471-.662-2.443-.749h0a1.663,1.663,0,0,1-1.692-1.536C66.957,251.492,66.98,250.62,66.98,250.62Zm9.118,5.715H56.319v3.043A1.522,1.522,0,0,0,57.84,260.9H74.577a1.522,1.522,0,0,0,1.522-1.521Zm-4.565,3.043H69.251a.761.761,0,1,1,0-1.522h2.282a.761.761,0,1,1,0,1.522Zm-6.086,0H60.883a.761.761,0,1,1,0-1.522h4.565a.761.761,0,1,1,0,1.522Zm0-28.909h1.522v1.521H65.448Z" transform="translate(-10.527 -50.183)" fill="#fff" fill-rule="evenodd"/>
  </g>
</svg>
