<svg xmlns="http://www.w3.org/2000/svg" xmlns:xlink="http://www.w3.org/1999/xlink" width="124" height="124" viewBox="0 0 124 124">
  <defs>
    <linearGradient id="linear-gradient" x1="0.5" x2="0.5" y2="1" gradientUnits="objectBoundingBox">
      <stop offset="0" stop-color="#f5f5f5"/>
      <stop offset="1" stop-color="#fff"/>
    </linearGradient>
  </defs>
  <g id="Group_1057" data-name="Group 1057" transform="translate(-1282 -821)">
    <circle id="Ellipse_6" data-name="Ellipse 6" cx="62" cy="62" r="62" transform="translate(1282 821)" fill="url(#linear-gradient)"/>
    <g id="Group_711" data-name="Group 711" transform="translate(1253.33 849.5)">
      <g id="Group_710" data-name="Group 710" transform="translate(66.67)">
        <path id="Path_808" data-name="Path 808" d="M113.427,0H67.615a.945.945,0,0,0-.945.945v44.88a.945.945,0,0,0,1.89,0V1.89h43.923v5.94a.945.945,0,1,0,1.89,0V.945A.945.945,0,0,0,113.427,0Z" transform="translate(-66.67)" fill="#182b4c"/>
        <path id="Path_809" data-name="Path 809" d="M113.427,89.65a.945.945,0,0,0-.945.945v50.372H68.56V128.591a.945.945,0,1,0-1.89,0v13.321a.945.945,0,0,0,.945.945h45.813a.945.945,0,0,0,.945-.945V90.595A.945.945,0,0,0,113.427,89.65Z" transform="translate(-66.67 -78.356)" fill="#182b4c"/>
        <path id="Path_810" data-name="Path 810" d="M99,105.294a7.308,7.308,0,1,0,7.308-7.308A7.316,7.316,0,0,0,99,105.294Zm7.308,5.418a5.417,5.417,0,0,1-.945-10.752v5.334a.945.945,0,0,0,.945.945h5.334A5.426,5.426,0,0,1,106.3,110.712Zm5.334-6.363h-4.389V99.96A5.43,5.43,0,0,1,111.637,104.349Z" transform="translate(-94.924 -85.642)" fill="#e74c3c"/>
        <path id="Path_811" data-name="Path 811" d="M103.981,432.35a.945.945,0,0,0-.945.945v4.072a.945.945,0,0,0,.945.945h6.108a.945.945,0,0,0,.945-.945v-4.072a.945.945,0,0,0-.945-.945Zm5.164,4.072h-4.219V434.24h4.219Z" transform="translate(-98.455 -377.884)" fill="#182b4c"/>
        <path id="Path_812" data-name="Path 812" d="M184.795,395.932H190.9a.945.945,0,0,0,.945-.945V384.807a.945.945,0,0,0-.945-.945h-6.108a.945.945,0,0,0-.945.945v10.181A.945.945,0,0,0,184.795,395.932Zm.945-10.181h4.219v8.291H185.74Z" transform="translate(-169.088 -335.504)" fill="#182b4c"/>
        <path id="Path_813" data-name="Path 813" d="M265.608,323.252a.945.945,0,0,0-.945.945v17.816a.945.945,0,0,0,.945.945h6.108a.945.945,0,0,0,.945-.945V324.2a.945.945,0,0,0-.945-.945Zm5.163,17.816h-4.219V325.142h4.219Z" transform="translate(-239.721 -282.53)" fill="#e74c3c"/>
        <path id="Path_814" data-name="Path 814" d="M352.532,288.072a.945.945,0,0,0,.945-.945v-3.332a.945.945,0,0,0-.945-.945h-6.107a.945.945,0,0,0-.945.945V306.7a.945.945,0,0,0,.945.945h6.107a.945.945,0,0,0,.945-.945V291.536a.945.945,0,1,0-1.89,0v14.219H347.37V284.74h4.218v2.387A.945.945,0,0,0,352.532,288.072Z" transform="translate(-310.357 -247.218)" fill="#e74c3c"/>
        <path id="Path_815" data-name="Path 815" d="M188.993,32.325H168.632a.945.945,0,0,0-.945.945v4.072a.945.945,0,0,0,.945.945h20.361a.945.945,0,0,0,.945-.945V33.27a.945.945,0,0,0-.945-.945Zm-.945,4.072H169.577V34.215h18.472V36.4Z" transform="translate(-154.961 -28.253)" fill="#182b4c"/>
        <path id="Path_816" data-name="Path 816" d="M268.279,97.986H249.445a.945.945,0,0,0,0,1.89h18.834a.945.945,0,0,0,0-1.89Z" transform="translate(-225.594 -85.642)" fill="#182b4c"/>
        <path id="Path_817" data-name="Path 817" d="M268.279,131.658H249.445a.945.945,0,0,0,0,1.89h18.834a.945.945,0,0,0,0-1.89Z" transform="translate(-225.594 -115.072)" fill="#182b4c"/>
        <path id="Path_818" data-name="Path 818" d="M269.224,166.275a.945.945,0,0,0-.945-.945H249.445a.945.945,0,0,0,0,1.89h18.834A.945.945,0,0,0,269.224,166.275Z" transform="translate(-225.594 -144.502)" fill="#182b4c"/>
        <path id="Path_819" data-name="Path 819" d="M261.588,199.947a.945.945,0,0,0-.945-.945h-11.2a.945.945,0,0,0,0,1.89h11.2A.945.945,0,0,0,261.588,199.947Z" transform="translate(-225.594 -173.932)" fill="#182b4c"/>
        <path id="Path_820" data-name="Path 820" d="M130.253,248.5h-17.18a.945.945,0,0,0,0,1.89h17.18a.945.945,0,0,0,0-1.89Z" transform="translate(-106.401 -217.195)" fill="#182b4c"/>
        <path id="Path_821" data-name="Path 821" d="M131.2,283.117a.945.945,0,0,0-.945-.945h-17.18a.945.945,0,0,0,0,1.89h17.18A.945.945,0,0,0,131.2,283.117Z" transform="translate(-106.401 -246.625)" fill="#182b4c"/>
        <path id="Path_822" data-name="Path 822" d="M123.562,316.789a.945.945,0,0,0-.945-.945h-9.544a.945.945,0,0,0,0,1.89h9.544A.945.945,0,0,0,123.562,316.789Z" transform="translate(-106.401 -276.055)" fill="#182b4c"/>
      </g>
    </g>
  </g>
</svg>
