<svg id="Youtube" xmlns="http://www.w3.org/2000/svg" width="32" height="32" viewBox="0 0 32 32">
  <path id="Subtraction_2" data-name="Subtraction 2" d="M29.333,32H2.667A2.67,2.67,0,0,1,0,29.334V2.667A2.67,2.67,0,0,1,2.667,0H29.333A2.67,2.67,0,0,1,32,2.667V29.334A2.67,2.67,0,0,1,29.333,32ZM16.273,14.207a65.5,65.5,0,0,0-8.258.335A2.261,2.261,0,0,0,6.37,16.092c-.586,1.455-.684,7.608,0,9.261a2.255,2.255,0,0,0,1.644,1.569,65.136,65.136,0,0,0,8.16.342,46.781,46.781,0,0,0,7.244-.342,2.32,2.32,0,0,0,1.663-1.569c.667-1.678.571-7.827,0-9.261a2.327,2.327,0,0,0-1.663-1.551A45.94,45.94,0,0,0,16.273,14.207Zm1.7-7.036v5.009a1.476,1.476,0,0,0,.284.964.935.935,0,0,0,.775.34,1.707,1.707,0,0,0,.473-.057,1.111,1.111,0,0,0,.374-.131,1.222,1.222,0,0,0,.324-.228c.061-.051.121-.106.185-.165s.113-.1.174-.156v.624h1.21V7.17H20.508v4.857a3.958,3.958,0,0,1-.416.283.792.792,0,0,1-.4.113.445.445,0,0,1-.321-.113c-.09-.054-.132-.162-.132-.34V7.17Zm-2.1-.113a2.2,2.2,0,0,0-.926.17,1.5,1.5,0,0,0-.6.472,2.216,2.216,0,0,0-.341.737,4.682,4.682,0,0,0-.094.926v1.814a4.906,4.906,0,0,0,.094.945,1.942,1.942,0,0,0,.341.718,1.5,1.5,0,0,0,.6.472,2.557,2.557,0,0,0,1.834,0,1.5,1.5,0,0,0,.6-.472,1.943,1.943,0,0,0,.34-.718,3.658,3.658,0,0,0,.095-.945V9.363a3.63,3.63,0,0,0-.095-.926,2.2,2.2,0,0,0-.34-.737,1.5,1.5,0,0,0-.6-.472A2.177,2.177,0,0,0,15.877,7.057Zm-6.2-2L11.36,9.911V13.37h1.4V9.911l1.7-4.857H13.043L12.1,8.229h-.02L11.1,5.054H9.678Zm12.23,19.884a1.493,1.493,0,0,1-1.38-.623,2.159,2.159,0,0,1-.3-.738,4.611,4.611,0,0,1-.1-.926V20.817a4.808,4.808,0,0,1,.1-.926,2.145,2.145,0,0,1,.3-.737,1.584,1.584,0,0,1,.547-.454,1.862,1.862,0,0,1,.833-.17,1.81,1.81,0,0,1,.832.17,1.3,1.3,0,0,1,.548.454,2.19,2.19,0,0,1,.321.737,4.8,4.8,0,0,1,.094.926V21.97h-2.42v.908a1.54,1.54,0,0,0,.151.774.576.576,0,0,0,.473.228.551.551,0,0,0,.472-.228,1.341,1.341,0,0,0,.169-.774v-.133H23.7a5.963,5.963,0,0,1-.114.888,1.947,1.947,0,0,1-.321.7,1.41,1.41,0,0,1-.548.454A1.718,1.718,0,0,1,21.908,24.937Zm0-5.349a.577.577,0,0,0-.473.227,1.6,1.6,0,0,0-.151.775v.321h1.266V20.59a1.389,1.389,0,0,0-.169-.775A.553.553,0,0,0,21.908,19.589ZM18.2,24.937a1.209,1.209,0,0,1-.68-.17,2.109,2.109,0,0,1-.548-.586h-.02v.643H15.877v-8.3h1.154v2.646l.283-.284a2.365,2.365,0,0,1,.263-.176L17.6,18.7a.647.647,0,0,1,.284-.132.886.886,0,0,1,.321-.038.993.993,0,0,1,.869.435,2.167,2.167,0,0,1,.3,1.285v2.967a2.167,2.167,0,0,1-.3,1.285A.992.992,0,0,1,18.2,24.937Zm-.529-5.349a.485.485,0,0,0-.32.094,1.656,1.656,0,0,0-.322.227v3.648a3.87,3.87,0,0,0,.322.247.62.62,0,0,0,.32.076.475.475,0,0,0,.227-.039.406.406,0,0,0,.171-.151.634.634,0,0,0,.112-.3,1.939,1.939,0,0,0,.039-.509V20.59a1.944,1.944,0,0,0-.039-.51.635.635,0,0,0-.112-.3.4.4,0,0,0-.171-.151A.485.485,0,0,0,17.673,19.589Zm-5.161,5.349a.794.794,0,0,1-.7-.339,1.566,1.566,0,0,1-.266-.946V18.643H12.7v4.8a.462.462,0,0,0,.114.339.392.392,0,0,0,.3.1.672.672,0,0,0,.359-.114c.047-.031.094-.066.144-.1.072-.053.146-.107.233-.162V18.643H14.99v6.181H13.912v-.606l-.321.3a1.639,1.639,0,0,1-.3.227l-.057.029a1.157,1.157,0,0,1-.718.159Zm-2.268-.113H8.978V17.755H7.75V16.527h3.723v1.228H10.245v7.069Zm5.632-12.4a.636.636,0,0,1-.528-.227,1.375,1.375,0,0,1-.17-.775V9.136a1.33,1.33,0,0,1,.17-.775.648.648,0,0,1,.528-.246.634.634,0,0,1,.51.246,1.328,1.328,0,0,1,.19.775v2.287a1.381,1.381,0,0,1-.19.775A.621.621,0,0,1,15.877,12.425Z" fill="#172b4d"/>
</svg>
