<svg xmlns="http://www.w3.org/2000/svg" width="288.888" height="361.94" viewBox="0 0 288.888 361.94">
  <g id="Group_631" data-name="Group 631" transform="translate(-63.98 -41.788)">
    <g id="Group_604" data-name="Group 604" transform="translate(67.912 97.776)">
      <g id="Group_600" data-name="Group 600" transform="translate(2.957 2.957)" opacity="0.75">
        <path id="Path_742" data-name="Path 742" d="M338.653,273.036H85.7V112.114a10.529,10.529,0,0,1,10.529-10.529H328.124a10.529,10.529,0,0,1,10.529,10.529Z" transform="translate(-71.179 -101.585)" fill="#9bb3bb"/>
        <path id="Path_743" data-name="Path 743" d="M341.631,289.7H82.306a11.337,11.337,0,0,1-11.337-11.337v-2.85h282v2.85A11.337,11.337,0,0,1,341.631,289.7Z" transform="translate(-70.969 -104.061)" fill="#9bb3bb"/>
        <rect id="Rectangle_263" data-name="Rectangle 263" width="233.631" height="144.888" transform="translate(21.807 13.281)" fill="#9bb3bb"/>
        <path id="Path_744" data-name="Path 744" d="M242.1,282.606H184.9a6.3,6.3,0,0,1-6.3-6.3v-.793H248.4v.793A6.3,6.3,0,0,1,242.1,282.606Z" transform="translate(-72.501 -104.061)" fill="#9bb3bb"/>
      </g>
      <g id="Group_603" data-name="Group 603">
        <g id="Group_602" data-name="Group 602">
          <g id="Group_601" data-name="Group 601" transform="translate(14.524)">
            <path id="Path_745" data-name="Path 745" d="M335.653,270.036H82.7V109.114A10.529,10.529,0,0,1,93.232,98.585H325.124a10.529,10.529,0,0,1,10.529,10.529Z" transform="translate(-82.703 -98.585)" fill="#103147"/>
          </g>
          <path id="Path_746" data-name="Path 746" d="M338.631,286.7H79.306a11.337,11.337,0,0,1-11.337-11.337v-2.85h282v2.85A11.337,11.337,0,0,1,338.631,286.7Z" transform="translate(-67.969 -101.061)" fill="#a2a2a3"/>
          <rect id="Rectangle_264" data-name="Rectangle 264" width="233.631" height="144.888" transform="translate(21.807 13.281)" fill="#e9ecf5"/>
          <path id="Path_747" data-name="Path 747" d="M239.1,279.606H181.9a6.3,6.3,0,0,1-6.3-6.3v-.794H245.4v.794A6.3,6.3,0,0,1,239.1,279.606Z" transform="translate(-69.501 -101.061)" fill="#fff"/>
        </g>
      </g>
    </g>
    <rect id="Rectangle_265" data-name="Rectangle 265" width="70.223" height="24.752" rx="7.858" transform="translate(173.8 220.478)" fill="#e0332d"/>
    <rect id="Rectangle_266" data-name="Rectangle 266" width="9.056" height="82.494" rx="2.548" transform="translate(243.241 120.203)" fill="#2a4953"/>
    <g id="Group_605" data-name="Group 605" transform="translate(248.617 128.874)">
      <path id="Rectangle_267" data-name="Rectangle 267" d="M0,0H97.57a4.588,4.588,0,0,1,4.588,4.588V60.565a4.588,4.588,0,0,1-4.588,4.588H0a0,0,0,0,1,0,0V0A0,0,0,0,1,0,0Z" transform="translate(0)" fill="#c7e8fc"/>
      <rect id="Rectangle_268" data-name="Rectangle 268" width="102.158" height="15.609" transform="translate(0 36.199)" fill="#9bb3bb"/>
    </g>
    <g id="Group_606" data-name="Group 606" transform="translate(313.978 133.364)">
      <circle id="Ellipse_155" data-name="Ellipse 155" cx="9.055" cy="9.055" r="9.055" transform="matrix(0.555, -0.832, 0.832, 0.555, 8.029, 15.07)" fill="#e1351b"/>
      <circle id="Ellipse_156" data-name="Ellipse 156" cx="9.056" cy="9.056" r="9.056" transform="translate(0 6.987) rotate(-19.218)" fill="#0d223b"/>
    </g>
    <rect id="Rectangle_269" data-name="Rectangle 269" width="4.491" height="65.153" transform="translate(248.617 128.874)" fill="#c1d1d5"/>
    <line id="Line_85" data-name="Line 85" y2="69.501" transform="translate(247.768 126.528)" fill="none" stroke="#20363e" stroke-linecap="round" stroke-linejoin="round" stroke-width="3"/>
    <g id="Group_615" data-name="Group 615" transform="translate(212.176 41.788)">
      <g id="Group_610" data-name="Group 610" transform="translate(0 33.749)">
        <g id="Group_607" data-name="Group 607" transform="translate(3.943 3.943)" opacity="0.75">
          <circle id="Ellipse_157" data-name="Ellipse 157" cx="19.267" cy="19.267" r="19.267" fill="#969595"/>
          <circle id="Ellipse_158" data-name="Ellipse 158" cx="16.084" cy="16.084" r="16.084" transform="matrix(0.151, -0.989, 0.989, 0.151, 0.939, 32.738)" fill="#969595"/>
          <text id="_" data-name="$" transform="translate(17.367 23.447)" fill="#969595" font-size="19" font-family="Roboto-Bold, Roboto" font-weight="700"><tspan x="-5.45" y="0">$</tspan></text>
        </g>
        <g id="Group_609" data-name="Group 609">
          <g id="Group_608" data-name="Group 608">
            <circle id="Ellipse_159" data-name="Ellipse 159" cx="19.267" cy="19.267" r="19.267" fill="#828282"/>
            <circle id="Ellipse_160" data-name="Ellipse 160" cx="16.084" cy="16.084" r="16.084" transform="matrix(0.151, -0.989, 0.989, 0.151, 0.939, 32.738)" fill="#e9ecf5"/>
            <text id="_2" data-name="$" transform="translate(17.367 23.447)" fill="#a2a2a3" font-size="19" font-family="Roboto-Bold, Roboto" font-weight="700"><tspan x="-5.45" y="0">$</tspan></text>
          </g>
        </g>
      </g>
      <g id="Group_614" data-name="Group 614" transform="translate(19.267)">
        <g id="Group_611" data-name="Group 611" transform="translate(2.957 2.957)" opacity="0.75">
          <circle id="Ellipse_161" data-name="Ellipse 161" cx="26.807" cy="26.807" r="26.807" fill="#9bb3bb"/>
          <circle id="Ellipse_162" data-name="Ellipse 162" cx="22.378" cy="22.378" r="22.378" transform="matrix(0.161, -0.987, 0.987, 0.161, 1.109, 45.277)" fill="#9bb3bb"/>
          <text id="_3" data-name="$" transform="translate(25.075 35.568)" fill="#9bb3bb" font-size="29" font-family="Roboto-Bold, Roboto" font-weight="700"><tspan x="-8.319" y="0">$</tspan></text>
        </g>
        <g id="Group_613" data-name="Group 613">
          <g id="Group_612" data-name="Group 612">
            <circle id="Ellipse_163" data-name="Ellipse 163" cx="26.807" cy="26.807" r="26.807" fill="#828282"/>
            <circle id="Ellipse_164" data-name="Ellipse 164" cx="22.378" cy="22.378" r="22.378" transform="matrix(0.161, -0.987, 0.987, 0.161, 1.109, 45.277)" fill="#e9ecf5"/>
            <text id="_4" data-name="$" transform="translate(25.075 35.568)" fill="#a2a2a3" font-size="29" font-family="Roboto-Bold, Roboto" font-weight="700"><tspan x="-8.319" y="0">$</tspan></text>
          </g>
        </g>
      </g>
    </g>
    <g id="Group_627" data-name="Group 627" transform="translate(124.5 56.625)">
      <g id="Group_616" data-name="Group 616" transform="translate(2.957 2.957)" opacity="0.75">
        <path id="Path_748" data-name="Path 748" d="M195.821,187H128.374V60.857a.549.549,0,0,1,.975-.346l3.24,3.988,3.515-4.327a.9.9,0,0,1,1.4,0L141.02,64.5l3.515-4.327a.9.9,0,0,1,1.4,0l3.514,4.327,3.515-4.327a.9.9,0,0,1,1.4,0l3.515,4.327,3.515-4.327a.9.9,0,0,1,1.4,0l3.515,4.327,3.514-4.327a.9.9,0,0,1,1.4,0l3.515,4.327,3.515-4.327a.9.9,0,0,1,1.4,0l3.515,4.327,3.515-4.327a.9.9,0,0,1,1.4,0L191.6,64.5l3.241-3.988a.549.549,0,0,1,.975.346V187Z" transform="translate(-128.374 -59.84)" fill="#9bb3bb"/>
        <rect id="Rectangle_270" data-name="Rectangle 270" width="67.446" height="8.943" transform="translate(0 118.213)" fill="#9bb3bb"/>
        <path id="Path_749" data-name="Path 749" d="M186.6,112.907H137.834a.986.986,0,0,1,0-1.972H186.6a.986.986,0,0,1,0,1.972Z" transform="translate(-128.495 -60.567)" fill="#9bb3bb"/>
        <path id="Path_750" data-name="Path 750" d="M186.6,120.8H137.834a.986.986,0,0,1,0-1.972H186.6a.986.986,0,0,1,0,1.972Z" transform="translate(-128.495 -60.68)" fill="#9bb3bb"/>
        <path id="Path_751" data-name="Path 751" d="M186.6,128.7H137.834a.986.986,0,0,1,0-1.972H186.6a.986.986,0,0,1,0,1.972Z" transform="translate(-128.495 -60.792)" fill="#9bb3bb"/>
        <path id="Path_752" data-name="Path 752" d="M186.6,136.591H137.834a.986.986,0,0,1,0-1.972H186.6a.986.986,0,0,1,0,1.972Z" transform="translate(-128.495 -60.905)" fill="#9bb3bb"/>
        <path id="Path_753" data-name="Path 753" d="M186.6,144.486H137.834a.986.986,0,0,1,0-1.972H186.6a.986.986,0,0,1,0,1.972Z" transform="translate(-128.495 -61.017)" fill="#9bb3bb"/>
        <path id="Path_754" data-name="Path 754" d="M186.6,152.381H137.834a.986.986,0,0,1,0-1.972H186.6a.986.986,0,0,1,0,1.972Z" transform="translate(-128.495 -61.129)" fill="#9bb3bb"/>
        <path id="Path_755" data-name="Path 755" d="M157.549,160.275H137.834a.986.986,0,1,1,0-1.971h19.715a.986.986,0,1,1,0,1.971Z" transform="translate(-128.495 -61.242)" fill="#9bb3bb"/>
      </g>
      <g id="Group_626" data-name="Group 626">
        <g id="Group_625" data-name="Group 625">
          <path id="Path_756" data-name="Path 756" d="M192.821,184H125.374V57.857a.549.549,0,0,1,.975-.346l3.24,3.988,3.515-4.327a.9.9,0,0,1,1.4,0L138.02,61.5l3.515-4.327a.9.9,0,0,1,1.4,0l3.514,4.327,3.515-4.327a.9.9,0,0,1,1.4,0l3.515,4.327,3.515-4.327a.9.9,0,0,1,1.4,0l3.515,4.327,3.514-4.327a.9.9,0,0,1,1.4,0l3.515,4.327,3.515-4.327a.9.9,0,0,1,1.4,0l3.515,4.327,3.515-4.327a.9.9,0,0,1,1.4,0L188.6,61.5l3.241-3.988a.549.549,0,0,1,.975.346V184Z" transform="translate(-125.374 -56.84)" fill="#e6ecef"/>
          <g id="Group_617" data-name="Group 617" transform="translate(0 118.213)">
            <rect id="Rectangle_271" data-name="Rectangle 271" width="67.446" height="8.943" fill="#a2a2a3"/>
          </g>
          <g id="Group_618" data-name="Group 618" transform="translate(8.353 50.368)">
            <path id="Path_757" data-name="Path 757" d="M183.6,109.907H134.834a.986.986,0,0,1,0-1.972H183.6a.986.986,0,0,1,0,1.972Z" transform="translate(-133.848 -107.935)" fill="#a2a2a3"/>
          </g>
          <g id="Group_619" data-name="Group 619" transform="translate(8.353 58.15)">
            <path id="Path_758" data-name="Path 758" d="M183.6,117.8H134.834a.986.986,0,0,1,0-1.972H183.6a.986.986,0,0,1,0,1.972Z" transform="translate(-133.848 -115.83)" fill="#a2a2a3"/>
          </g>
          <g id="Group_620" data-name="Group 620" transform="translate(8.353 65.933)">
            <path id="Path_759" data-name="Path 759" d="M183.6,125.7H134.834a.986.986,0,0,1,0-1.972H183.6a.986.986,0,0,1,0,1.972Z" transform="translate(-133.848 -123.725)" fill="#a2a2a3"/>
          </g>
          <g id="Group_621" data-name="Group 621" transform="translate(8.353 73.715)">
            <path id="Path_760" data-name="Path 760" d="M183.6,133.591H134.834a.986.986,0,0,1,0-1.972H183.6a.986.986,0,0,1,0,1.972Z" transform="translate(-133.848 -131.619)" fill="#a2a2a3"/>
          </g>
          <g id="Group_622" data-name="Group 622" transform="translate(8.353 81.497)">
            <path id="Path_761" data-name="Path 761" d="M183.6,141.486H134.834a.986.986,0,0,1,0-1.972H183.6a.986.986,0,0,1,0,1.972Z" transform="translate(-133.848 -139.514)" fill="#a2a2a3"/>
          </g>
          <g id="Group_623" data-name="Group 623" transform="translate(8.353 89.28)">
            <path id="Path_762" data-name="Path 762" d="M183.6,149.381H134.834a.986.986,0,0,1,0-1.972H183.6a.986.986,0,0,1,0,1.972Z" transform="translate(-133.848 -147.409)" fill="#a2a2a3"/>
          </g>
          <g id="Group_624" data-name="Group 624" transform="translate(8.353 97.061)">
            <path id="Path_763" data-name="Path 763" d="M154.549,157.275H134.834a.986.986,0,0,1,0-1.972h19.715a.986.986,0,1,1,0,1.972Z" transform="translate(-133.848 -155.303)" fill="#a2a2a3"/>
          </g>
        </g>
      </g>
    </g>
    <g id="Group_628" data-name="Group 628" transform="translate(63.98 138.671)">
      <circle id="Ellipse_165" data-name="Ellipse 165" cx="31.296" cy="31.296" r="31.296" transform="translate(43.102 9.021)" fill="#48b7ce" opacity="0.36"/>
      <path id="Path_764" data-name="Path 764" d="M167.379,151.878a40.317,40.317,0,1,0,0,57.016A40.317,40.317,0,0,0,167.379,151.878Zm-50.638,50.638a31.3,31.3,0,1,1,44.259,0A31.3,31.3,0,0,1,116.741,202.516Z" transform="translate(-64.473 -140.07)" fill="#0d223b"/>
      <path id="Path_765" data-name="Path 765" d="M163.4,156.023a34.574,34.574,0,1,0,0,48.895A34.574,34.574,0,0,0,163.4,156.023ZM116.824,202.6a31.3,31.3,0,1,1,44.259,0A31.3,31.3,0,0,1,116.824,202.6Z" transform="translate(-64.556 -140.153)" fill="#5a808d"/>
      <rect id="Rectangle_272" data-name="Rectangle 272" width="6.891" height="14.187" transform="matrix(0.707, 0.707, -0.707, 0.707, 47.084, 62.758)" fill="#103147"/>
      <path id="Path_766" data-name="Path 766" d="M65.851,253.917h0a6.387,6.387,0,0,1,0-9.033l34.437-34.437,9.032,9.032L74.883,253.917A6.386,6.386,0,0,1,65.851,253.917Z" transform="translate(-63.981 -141.072)" fill="#c7e8fc"/>
    </g>
    <g id="Group_630" data-name="Group 630" transform="translate(213.939 225.474)">
      <g id="Group_629" data-name="Group 629">
        <path id="Path_767" data-name="Path 767" d="M221.814,265.808a5.708,5.708,0,0,1,5.708,5.708v16.3a.819.819,0,0,0,.819.819h0a.819.819,0,0,0,.819-.819V233.835a5.709,5.709,0,0,1,5.709-5.708h0a5.708,5.708,0,0,1,5.708,5.708v34.722a.819.819,0,0,0,.819.819h0a.819.819,0,0,0,.819-.819v-9.8a3.477,3.477,0,0,1,3.477-3.477h4.463a3.477,3.477,0,0,1,3.477,3.477v9.8a.819.819,0,0,0,.819.819h0a.82.82,0,0,0,.82-.819v-7.477a3.476,3.476,0,0,1,3.476-3.477h4.464a3.476,3.476,0,0,1,3.476,3.477v7.477a.819.819,0,0,0,.819.819h0a.819.819,0,0,0,.819-.819v-4.98A3.476,3.476,0,0,1,271.8,260.1h5.509a2.43,2.43,0,0,1,2.43,2.43l.859,37.923a18.5,18.5,0,0,1-3.932,11.4l-2.489,3.18v25.329H232.158v-15.7L221.5,315.43a15.625,15.625,0,0,1-5.392-11.807h0V271.515a5.708,5.708,0,0,1,5.709-5.708Z" transform="translate(-216.105 -228.127)" fill="#f8ab81"/>
        <path id="Path_768" data-name="Path 768" d="M235.077,229.148h0a4.292,4.292,0,0,0-4.292,4.292v4.734a1.836,1.836,0,0,0,1.836,1.836h4.91a1.836,1.836,0,0,0,1.836-1.836V233.44A4.292,4.292,0,0,0,235.077,229.148Z" transform="translate(-216.314 -228.142)" fill="#fbe2e2"/>
        <path id="Path_769" data-name="Path 769" d="M218.278,267.6h0a5.691,5.691,0,0,0-2.173,4.475v7.4h4.774a1.35,1.35,0,0,0,1.35-1.35v-6.573A3.951,3.951,0,0,0,218.278,267.6Z" transform="translate(-216.105 -228.689)" fill="#fbe2e2"/>
      </g>
      <rect id="Rectangle_273" data-name="Rectangle 273" width="42.018" height="15.206" transform="translate(58.071 118.025) rotate(180)" fill="#fff"/>
      <rect id="Rectangle_274" data-name="Rectangle 274" width="47.229" height="70.141" transform="translate(60.677 178.254) rotate(180)" fill="#0d223b"/>
      <circle id="Ellipse_166" data-name="Ellipse 166" cx="3.004" cy="3.004" r="3.004" transform="translate(50.162 116.666)" fill="#7596a1"/>
      <circle id="Ellipse_167" data-name="Ellipse 167" cx="3.004" cy="3.004" r="3.004" transform="translate(50.162 126.752)" fill="#7596a1"/>
    </g>
  </g>
</svg>
