<svg id="Group_1055" data-name="Group 1055" xmlns="http://www.w3.org/2000/svg" xmlns:xlink="http://www.w3.org/1999/xlink" width="79" height="79" viewBox="0 0 79 79">
  <defs>
    <linearGradient id="linear-gradient" x1="0.5" x2="0.5" y2="1" gradientUnits="objectBoundingBox">
      <stop offset="0" stop-color="#f5f5f5"/>
      <stop offset="1" stop-color="#fff"/>
    </linearGradient>
  </defs>
  <circle id="Ellipse_3" data-name="Ellipse 3" cx="39.5" cy="39.5" r="39.5" fill="url(#linear-gradient)"/>
  <g id="Group_313" data-name="Group 313" transform="translate(23.501 14.377)">
    <path id="Path_177" data-name="Path 177" d="M107.193,50.246A15.779,15.779,0,0,1,95.2,45.091a.736.736,0,1,1,1.1-.98,14.328,14.328,0,0,0,10.892,4.663,15.5,15.5,0,0,0,5.5-.972.736.736,0,0,1,.52,1.377,16.969,16.969,0,0,1-6.022,1.067Zm3.484-3.816c-7.081,0-9.889-3.5-11.239-5.189-.181-.226-.4-.5-.526-.621-.121.036-.33.124-.5.2a11.639,11.639,0,0,1-4.979.991.736.736,0,1,1,0-1.472,10.169,10.169,0,0,0,4.408-.876,2.166,2.166,0,0,1,1.508-.274c.444.137.762.534,1.243,1.134,1.3,1.621,3.716,4.637,10.09,4.637a17.381,17.381,0,0,0,8.157-1.663.736.736,0,1,1,.706,1.292,18.67,18.67,0,0,1-8.863,1.843Zm1.472-4.325a.736.736,0,0,1,0-1.472,12.107,12.107,0,0,0,9.57-4.126.736.736,0,1,1,1.11.967,13.52,13.52,0,0,1-10.68,4.631Zm-3.136-.356a.735.735,0,0,1-.174-.021,10.843,10.843,0,0,1-6.768-4.858,14.315,14.315,0,0,1-1.813-4.609,8.869,8.869,0,0,1-8.154,5.42.736.736,0,1,1,0-1.472c2.87,0,7.729-1.965,7.729-9.33V21.172a17.8,17.8,0,0,1,1.978-9.012,6.162,6.162,0,0,1,5.382-3.327,5.883,5.883,0,0,1,4.52,2.133,11.956,11.956,0,0,1,2.49,5.859.736.736,0,1,1-1.45.256c-.761-4.306-2.787-6.776-5.559-6.776-3.632,0-5.888,4.164-5.888,10.867v6.9c0,6.558,2.872,11.014,7.881,12.225a.736.736,0,0,1-.173,1.452Zm3.371-4.067a7.362,7.362,0,0,1-6.237-3.13,11.186,11.186,0,0,1-1.9-6.48v-6.9a21.975,21.975,0,0,1,.519-5.128c.481-1.855,1.3-2.8,2.425-2.8a1.833,1.833,0,0,1,1.365.655c1.284,1.392,1.918,5.175,1.577,9.413a.736.736,0,1,1-1.467-.118c.337-4.185-.362-7.4-1.191-8.3-.063-.068-.182-.181-.283-.181-.611,0-1.472,2-1.472,6.451,0,4.355,1.335,7.06,3.484,7.06a3.025,3.025,0,0,0,2.714-1.426c.772-1.174,1.163-3.069,1.163-5.635,0-.318-.005-.636-.015-.946a.736.736,0,1,1,1.471-.049c.011.326.016.661.016.994,0,2.9-.46,5.005-1.4,6.443A4.457,4.457,0,0,1,109.2,29.7a4.123,4.123,0,0,1-3.484-2.067v.436c0,4.05,2.06,8.137,6.663,8.137a7.965,7.965,0,0,0,6.773-3.787c1.8-2.665,2.756-6.556,2.756-11.251,0-5.65-1.34-10.482-3.875-13.973a15.124,15.124,0,0,0-2.253-2.486.736.736,0,0,1,.971-1.107,16.608,16.608,0,0,1,2.474,2.727c2.719,3.744,4.156,8.875,4.156,14.838,0,4.991-1.041,9.167-3.009,12.077a9.378,9.378,0,0,1-7.992,4.434ZM111.35,33.61a.736.736,0,0,1,0-1.472c4.224,0,6.147-5.684,6.147-10.966,0-4.631-1.069-8.863-2.859-11.323a8.978,8.978,0,0,0-14.891,0,16.538,16.538,0,0,0-2.538,7.008.736.736,0,0,1-1.455-.225,18,18,0,0,1,2.8-7.649,10.448,10.448,0,0,1,17.271,0c1.967,2.7,3.141,7.259,3.141,12.189a18.336,18.336,0,0,1-1.862,8.56c-1.38,2.537-3.371,3.877-5.757,3.877Zm-19.614-.056a.736.736,0,0,1,0-1.472c1.779,0,3.68-1.366,3.68-5.2V21.172c0-.331.005-.665.015-.993a.736.736,0,0,1,1.471.046c-.01.312-.015.631-.015.947V26.88C96.888,31.806,94.113,33.554,91.736,33.554Zm0-4.862A.736.736,0,0,1,91,27.956V21.172c0-5.963,1.437-11.094,4.156-14.838A14.64,14.64,0,0,1,107.193,0a14.239,14.239,0,0,1,6.761,1.664.736.736,0,0,1-.691,1.3,12.781,12.781,0,0,0-6.07-1.492A13.2,13.2,0,0,0,96.347,7.2c-2.535,3.491-3.875,8.323-3.875,13.973v6.784a.736.736,0,0,1-.736.736Z" transform="translate(-91 0)" fill="#182b4c"/>
  </g>
  <g id="Group_318" data-name="Group 318" transform="translate(25.651 13.637)">
    <path id="Path_177-2" data-name="Path 177" d="M116.229,40.664a7.362,7.362,0,0,1-6.237-3.13,11.186,11.186,0,0,1-1.9-6.48v-6.9a21.975,21.975,0,0,1,.519-5.128c.481-1.855,1.3-2.8,2.425-2.8a1.834,1.834,0,0,1,1.365.655c1.284,1.392,1.918,5.175,1.577,9.413a.736.736,0,1,1-1.467-.118c.337-4.185-.362-7.4-1.191-8.3-.063-.068-.182-.181-.283-.181-.611,0-1.472,2-1.472,6.451,0,4.355,1.335,7.06,3.484,7.06a3.025,3.025,0,0,0,2.714-1.426c.772-1.174,1.163-3.069,1.163-5.635,0-.318-.005-.636-.015-.946a.736.736,0,1,1,1.471-.049c.011.326.016.661.016.994,0,2.9-.46,5.005-1.4,6.443a4.457,4.457,0,0,1-3.944,2.089,4.123,4.123,0,0,1-3.484-2.067v.436c0,4.05,2.06,8.137,6.663,8.137A7.965,7.965,0,0,0,123,35.4c1.8-2.665,2.756-6.556,2.756-11.251,0-5.65-1.34-10.482-3.875-13.973a15.124,15.124,0,0,0-2.253-2.486.736.736,0,0,1,.971-1.107,16.608,16.608,0,0,1,2.474,2.727c2.719,3.744,4.227,9.171,4.227,15.134,0,4.991-1.112,8.871-3.081,11.781a9.378,9.378,0,0,1-7.992,4.434ZM115.2,36.591ZM99.262,24.153C99.262,23.822,99.476,33.9,99.262,24.153Z" transform="translate(-96.995 -2.241)" fill="#e74c3c"/>
  </g>
</svg>
