<svg xmlns="http://www.w3.org/2000/svg" xmlns:xlink="http://www.w3.org/1999/xlink" width="79" height="79" viewBox="0 0 79 79">
  <defs>
    <linearGradient id="linear-gradient" x1="0.5" x2="0.5" y2="1" gradientUnits="objectBoundingBox">
      <stop offset="0" stop-color="#f5f5f5"/>
      <stop offset="1" stop-color="#fff"/>
    </linearGradient>
  </defs>
  <g id="Group_1128" data-name="Group 1128" transform="translate(-277 -1356)">
    <g id="Group_324" data-name="Group 324" transform="translate(277 1356)">
      <circle id="Ellipse_5" data-name="Ellipse 5" cx="39.5" cy="39.5" r="39.5" fill="url(#linear-gradient)"/>
    </g>
    <g id="Group_713" data-name="Group 713" transform="translate(298.024 1372.717)">
      <g id="Group_712" data-name="Group 712" transform="translate(0 0)">
        <path id="Path_823" data-name="Path 823" d="M104.348,232.165H78.355a.67.67,0,0,0,0,1.339h25.993a.67.67,0,0,0,0-1.339Z" transform="translate(-73.196 -207.773)"/>
        <path id="Path_824" data-name="Path 824" d="M104.348,283.939H78.355a.67.67,0,0,0,0,1.339h25.993a.67.67,0,0,0,0-1.339Z" transform="translate(-73.196 -254.924)"/>
        <path id="Path_825" data-name="Path 825" d="M105.017,336.383a.67.67,0,0,0-.67-.67H78.355a.67.67,0,0,0,0,1.339h25.993A.67.67,0,0,0,105.017,336.383Z" transform="translate(-73.196 -302.075)"/>
        <path id="Path_826" data-name="Path 826" d="M78.355,387.486a.67.67,0,0,0,0,1.339H91.321a.67.67,0,1,0,0-1.339Z" transform="translate(-73.196 -349.225)"/>
        <path id="Path_827" data-name="Path 827" d="M272.037,144.506h-9.551a.67.67,0,0,0,0,1.339h9.551a.67.67,0,1,0,0-1.339Z" transform="translate(-240.885 -127.941)"/>
        <path id="Path_828" data-name="Path 828" d="M272.037,103.843h-9.551a.67.67,0,0,0,0,1.339h9.551a.67.67,0,1,0,0-1.339Z" transform="translate(-240.885 -90.909)"/>
        <path id="Path_829" data-name="Path 829" d="M62.991-2.965a.67.67,0,0,0,.67-.67V-30.782a3.3,3.3,0,0,0-.97-2.343c-7.1-7.072-6.914-6.978-7.365-7.288A3.289,3.289,0,0,0,53.443-41H30.723a3.317,3.317,0,0,0-3.313,3.313V1.405a3.317,3.317,0,0,0,3.313,3.313H60.348a3.317,3.317,0,0,0,3.313-3.313v-1.9a.67.67,0,0,0-.67-.67.67.67,0,0,0-.67.67v1.9a1.976,1.976,0,0,1-1.974,1.974H30.723a1.976,1.976,0,0,1-1.974-1.974V-37.687a1.976,1.976,0,0,1,1.974-1.974h22.72a1.986,1.986,0,0,1,.425.047v6.1a2.311,2.311,0,0,0,2.309,2.309h6.1a1.987,1.987,0,0,1,.047.425V-3.634a.67.67,0,0,0,.67.67ZM56.177-32.547a.97.97,0,0,1-.969-.969v-5.2l6.167,6.167Z" transform="translate(-27.41 41)"/>
        <path id="Path_830" data-name="Path 830" d="M77.684,29.6a.67.67,0,0,0-.67.67v5.994a2.214,2.214,0,0,0,2.211,2.211h7.865A2.214,2.214,0,0,0,89.3,36.263V26.51A2.214,2.214,0,0,0,87.091,24.3H79.225a2.214,2.214,0,0,0-2.211,2.211v.628a.67.67,0,1,0,1.339,0V26.51a.873.873,0,0,1,.872-.872H87.09a.873.873,0,0,1,.872.872v7.857a6.392,6.392,0,0,0-2.217-1.614,3.125,3.125,0,1,0-5.176,0,6.393,6.393,0,0,0-2.217,1.614v-4.1A.67.67,0,0,0,77.684,29.6Zm5.474-.382A1.786,1.786,0,1,1,81.372,31,1.788,1.788,0,0,1,83.158,29.217ZM81.7,33.765a3.116,3.116,0,0,0,2.923,0,5.065,5.065,0,0,1,3.233,2.921.872.872,0,0,1-.762.45H79.225a.872.872,0,0,1-.762-.45A5.064,5.064,0,0,1,81.7,33.765Z" transform="translate(-72.585 -18.468)" fill="#e74c3c"/>
      </g>
    </g>
  </g>
</svg>
