<svg xmlns="http://www.w3.org/2000/svg" xmlns:xlink="http://www.w3.org/1999/xlink" width="285" height="285.016" viewBox="0 0 285 285.016">
  <defs>
    <clipPath id="clip-path">
      <circle id="Ellipse_152" data-name="Ellipse 152" cx="130.38" cy="130.38" r="130.38" fill="#133048"/>
    </clipPath>
  </defs>
  <g id="Group_509" data-name="Group 509" transform="translate(-31.301 -49.675)">
    <g id="Group_493" data-name="Group 493" transform="translate(55.54 49.675)">
      <circle id="Ellipse_151" data-name="Ellipse 151" cx="130.38" cy="130.38" r="130.38" fill="#133048"/>
      <g id="Group_492" data-name="Group 492" clip-path="url(#clip-path)">
        <path id="Path_635" data-name="Path 635" d="M161.182,282.965l57.195,57.194H366.071v-158.3L261.784,77.576l-4.838,187.979Z" transform="translate(-81.071 -55.159)" fill="#0d223b"/>
      </g>
    </g>
    <path id="Rectangle_229" data-name="Rectangle 229" d="M17.706,0H91.747a17.706,17.706,0,0,1,17.706,17.706V195.544a17.706,17.706,0,0,1-17.706,17.706H17.705A17.705,17.705,0,0,1,0,195.544V17.706A17.706,17.706,0,0,1,17.706,0Z" transform="translate(131.194 68.171)" fill="#fff"/>
    <rect id="Rectangle_230" data-name="Rectangle 230" width="27.522" height="3.855" rx="1.928" transform="translate(172.159 83.843)" fill="#dedede"/>
    <path id="Path_636" data-name="Path 636" d="M225.975,83.884a2.945,2.945,0,1,1-2.945-2.945A2.945,2.945,0,0,1,225.975,83.884Z" transform="translate(-37.11 -6.146)" fill="#dedede"/>
    <path id="Path_637" data-name="Path 637" d="M230.741,319a9.255,9.255,0,1,1-9.255-9.255A9.254,9.254,0,0,1,230.741,319Z" transform="translate(-35.566 -51.122)" fill="#dedede"/>
    <rect id="Rectangle_231" data-name="Rectangle 231" width="101.031" height="159.748" transform="translate(135.405 95.463)" fill="#a2a2a3"/>
    <path id="Path_638" data-name="Path 638" d="M219.5,170.816a23.529,23.529,0,1,0,23.913,23.526A23.721,23.721,0,0,0,219.5,170.816Zm0,44a20.473,20.473,0,1,1,20.807-20.47A20.639,20.639,0,0,1,219.5,214.812Z" transform="translate(-32.294 -23.813)" fill="#e0332d"/>
    <g id="Group_507" data-name="Group 507" transform="translate(169.044 152.607)">
      <path id="Path_639" data-name="Path 639" d="M239.065,195.952a18.16,18.16,0,1,1-18.16-18.161A18.16,18.16,0,0,1,239.065,195.952Z" transform="translate(-202.745 -177.791)" fill="#e0332d"/>
      <g id="Group_506" data-name="Group 506" transform="translate(9.608 8.231)">
        <g id="Group_494" data-name="Group 494">
          <path id="Path_640" data-name="Path 640" d="M215.153,194.32a.449.449,0,0,0,.449-.449v-2.61a2.427,2.427,0,0,1,2.512-2.327h2.426a.449.449,0,0,0,0-.9h-2.426a3.325,3.325,0,0,0-3.41,3.224v2.61A.449.449,0,0,0,215.153,194.32Z" transform="translate(-214.704 -188.036)" fill="#fff"/>
        </g>
        <g id="Group_495" data-name="Group 495" transform="translate(0 12.568)">
          <path id="Path_641" data-name="Path 641" d="M220.539,209.064h-2.426a2.427,2.427,0,0,1-2.512-2.326v-2.611a.449.449,0,0,0-.9,0v2.611a3.325,3.325,0,0,0,3.41,3.224h2.426a.449.449,0,0,0,0-.9Z" transform="translate(-214.704 -203.679)" fill="#fff"/>
        </g>
        <g id="Group_496" data-name="Group 496" transform="translate(10.82)">
          <path id="Path_642" data-name="Path 642" d="M231.045,188.036h-2.426a.449.449,0,0,0,0,.9h2.426a2.427,2.427,0,0,1,2.512,2.327v2.61a.449.449,0,0,0,.9,0v-2.61A3.325,3.325,0,0,0,231.045,188.036Z" transform="translate(-228.171 -188.036)" fill="#fff"/>
        </g>
        <g id="Group_497" data-name="Group 497" transform="translate(10.82 12.568)">
          <path id="Path_643" data-name="Path 643" d="M234.005,203.679a.449.449,0,0,0-.449.448v2.611a2.427,2.427,0,0,1-2.512,2.326h-2.426a.449.449,0,0,0,0,.9h2.426a3.325,3.325,0,0,0,3.41-3.224v-2.611A.449.449,0,0,0,234.005,203.679Z" transform="translate(-228.171 -203.679)" fill="#fff"/>
        </g>
        <g id="Group_498" data-name="Group 498" transform="translate(7.229 8.079)">
          <path id="Path_644" data-name="Path 644" d="M223.881,198.182a.449.449,0,0,0-.09.628,7.047,7.047,0,0,1,1.257,3.77.449.449,0,0,0,.9,0,7.893,7.893,0,0,0-1.437-4.309A.448.448,0,0,0,223.881,198.182Z" transform="translate(-223.701 -198.092)" fill="#fff"/>
        </g>
        <g id="Group_499" data-name="Group 499" transform="translate(5.398 5.736)">
          <path id="Path_645" data-name="Path 645" d="M222.6,195.322a2.3,2.3,0,0,0-1.142,2.6,5.847,5.847,0,0,0,.493,1.6.446.446,0,0,0,.4.247.456.456,0,0,0,.2-.047.45.45,0,0,0,.2-.6c-.011-.023-1.123-2.3.239-2.985.059-.026,1.451-.6,3,2.488a.449.449,0,0,0,.8-.4C224.824,194.269,222.693,195.278,222.6,195.322Z" transform="translate(-221.423 -195.175)" fill="#fff"/>
        </g>
        <g id="Group_500" data-name="Group 500" transform="translate(9.026 4.04)">
          <path id="Path_646" data-name="Path 646" d="M226.225,193.933c.133.052,3.242,1.348,2.409,7.6a.448.448,0,0,0,.386.5.379.379,0,0,0,.059,0,.448.448,0,0,0,.444-.39c.934-7.006-2.82-8.5-2.98-8.558a.449.449,0,0,0-.318.84Z" transform="translate(-225.938 -193.065)" fill="#fff"/>
        </g>
        <g id="Group_501" data-name="Group 501" transform="translate(3.678 8.689)">
          <path id="Path_647" data-name="Path 647" d="M219.668,198.856a.448.448,0,0,0-.382.506,7.88,7.88,0,0,0,1.356,3.48.449.449,0,0,0,.711-.548,7.113,7.113,0,0,1-1.179-3.057A.446.446,0,0,0,219.668,198.856Z" transform="translate(-219.281 -198.851)" fill="#fff"/>
        </g>
        <g id="Group_502" data-name="Group 502" transform="translate(3.638 3.591)">
          <path id="Path_648" data-name="Path 648" d="M219.238,195.577a.449.449,0,0,0,.373.514.426.426,0,0,0,.072.006.45.45,0,0,0,.443-.378,2.925,2.925,0,0,1,3.147-2.316.449.449,0,1,0,0-.9A3.873,3.873,0,0,0,219.238,195.577Z" transform="translate(-219.232 -192.506)" fill="#fff"/>
        </g>
        <g id="Group_503" data-name="Group 503" transform="translate(2.291 15.261)">
          <path id="Path_649" data-name="Path 649" d="M218.005,207.031a.449.449,0,1,0,0,.9h.4a.449.449,0,0,0,0-.9Z" transform="translate(-217.556 -207.031)" fill="#fff"/>
        </g>
        <g id="Group_504" data-name="Group 504" transform="translate(7.477 15.261)">
          <path id="Path_650" data-name="Path 650" d="M224.861,207.031h-.4a.449.449,0,1,0,0,.9h.4a.449.449,0,0,0,0-.9Z" transform="translate(-224.01 -207.031)" fill="#fff"/>
        </g>
        <g id="Group_505" data-name="Group 505" transform="translate(12.662 15.261)">
          <path id="Path_651" data-name="Path 651" d="M230.913,207.928h.4a.449.449,0,1,0,0-.9h-.4a.449.449,0,1,0,0,.9Z" transform="translate(-230.464 -207.031)" fill="#fff"/>
        </g>
      </g>
    </g>
    <g id="Group_508" data-name="Group 508" transform="translate(31.301 182.539)">
      <path id="Path_652" data-name="Path 652" d="M78.175,331.194,120.3,359.227l-13.3,19.943L65.28,350.806Z" transform="translate(-37.98 -237.879)" fill="#fff"/>
      <path id="Path_653" data-name="Path 653" d="M65.806,333.6l46.273,33.152L97.417,390.5,31.3,390.487Z" transform="translate(-31.301 -238.352)" fill="#133048"/>
      <path id="Path_654" data-name="Path 654" d="M96.37,294.427s-1.2-9.772,3.2-18.022,13.859-21.067,20.111-30.631,10.277-9.857,13.842-8.138,4.74,4.195,3.523,5.873-5.421,7.244-6.376,8.348c-1.326,1.534-.2,2.091.168,1.636.769-.965,4.161-4.627,7.048-8.432a7.667,7.667,0,0,1,9.774-2.558c2.895,1.343,4.656,4.782,3.607,6.46s-6.712,10.32-7.593,11.622-.052,1.353.331,1.353,5.14-6.52,7.978-10.584,6.749-5.063,9.971-3.989,5.292,3.681,4.448,5.292-8.513,13.346-9.127,14.421.307,1.687,1.535.229,31.448-46.557,33.519-49.472,6.562-3.905,10.925-1.2,2.32,8.449.658,10.977-38.249,55.722-46.9,66.962c-.55.713.589.934.969.554s7.851-10.017,12.551-15.725c5-6.072,8.881-5.558,10.389-5.1a11.787,11.787,0,0,1,4.5,2.319,37.408,37.408,0,0,0-5.821,5.863,6.833,6.833,0,0,0-1.234,4.9c-5.246,5.234-12.4,11.929-19.331,18.1a81.061,81.061,0,0,1-28.492,16.141l-8.682,13.206L85.717,310.685Z" transform="translate(-41.998 -215.047)" fill="#c7e8fc"/>
      <path id="Path_655" data-name="Path 655" d="M202.252,297.539a37.4,37.4,0,0,1,5.821-5.863,2.625,2.625,0,0,1,.925,1.592c.079.763-3.141,4.344-7.98,9.169A6.834,6.834,0,0,1,202.252,297.539Z" transform="translate(-64.644 -230.11)" fill="#f6e4db"/>
      <path id="Path_656" data-name="Path 656" d="M219.356,219.187a5.385,5.385,0,0,1,4.49-2.168,8.05,8.05,0,0,1,4.2,1.286,3.975,3.975,0,0,1,1.872,2.593c.5,2.272-.7,4.907-1.487,6.107-.129.194-.558.835-1.22,1.813-2.005.132-4.79.153-6.815-1.392-1.986-1.517-3.3-3.359-3.3-4.928C218.543,220.368,219.09,219.562,219.356,219.187Z" transform="translate(-67.824 -215.435)" fill="#f6e4db"/>
    </g>
  </g>
</svg>
