<svg xmlns="http://www.w3.org/2000/svg" xmlns:xlink="http://www.w3.org/1999/xlink" width="79" height="79" viewBox="0 0 79 79">
  <defs>
    <linearGradient id="linear-gradient" x1="0.5" x2="0.5" y2="1" gradientUnits="objectBoundingBox">
      <stop offset="0" stop-color="#f5f5f5"/>
      <stop offset="1" stop-color="#fff"/>
    </linearGradient>
  </defs>
  <g id="Group_1136" data-name="Group 1136" transform="translate(3019 -1173)">
    <circle id="Ellipse_278" data-name="Ellipse 278" cx="39.5" cy="39.5" r="39.5" transform="translate(-3019 1173)" fill="url(#linear-gradient)"/>
    <g id="Group_1135" data-name="Group 1135" transform="translate(-2994.79 1191.157)">
      <path id="Path_846" data-name="Path 846" d="M134.909,296.03h3.013a.6.6,0,1,0,0-1.21h-3.013a.6.6,0,0,0,0,1.21Z" transform="translate(-129.541 -270.919)" fill="#182b4c"/>
      <path id="Path_847" data-name="Path 847" d="M203.12,295.425a.605.605,0,0,0,.6.6H217.6a.6.6,0,1,0,0-1.21H203.725a.6.6,0,0,0-.6.6Z" transform="translate(-192.41 -270.919)" fill="#182b4c"/>
      <path id="Path_848" data-name="Path 848" d="M134.909,341.55h3.013a.6.6,0,1,0,0-1.21h-3.013a.6.6,0,0,0,0,1.21Z" transform="translate(-129.541 -312.506)" fill="#182b4c"/>
      <path id="Path_849" data-name="Path 849" d="M217.6,340.34H203.725a.6.6,0,1,0,0,1.21H217.6a.6.6,0,1,0,0-1.21Z" transform="translate(-192.41 -312.506)" fill="#182b4c"/>
      <path id="Path_850" data-name="Path 850" d="M134.909,387.074h3.013a.6.6,0,1,0,0-1.21h-3.013a.6.6,0,0,0,0,1.21Z" transform="translate(-129.541 -354.096)" fill="#182b4c"/>
      <path id="Path_851" data-name="Path 851" d="M217.6,385.864H203.725a.6.6,0,1,0,0,1.21H217.6a.6.6,0,0,0,0-1.21Z" transform="translate(-192.41 -354.096)" fill="#182b4c"/>
      <path id="Path_852" data-name="Path 852" d="M223.158,123.483l-.758.936a4.308,4.308,0,0,0,2.451,1.125v.7h.957v-.673c1.525-.1,2.4-.989,2.4-2.2,0-1.283-.957-1.777-2.4-2.1V119.3a3.44,3.44,0,0,1,1.494.789l.715-.968a3.909,3.909,0,0,0-2.208-.978v-.65h-.957v.642a2.245,2.245,0,0,0-2.167,2.166c0,1.241.873,1.7,2.167,2.039v2.051a3.6,3.6,0,0,1-1.693-.9Zm2.65-.9c.747.221,1.083.442,1.083.925,0,.463-.368.864-1.083.947Zm-1.8-2.4a.993.993,0,0,1,.842-.9v1.747c-.569-.2-.843-.422-.843-.843Z" transform="translate(-210.024 -108.911)" fill="#e74c3c"/>
      <path id="Path_853" data-name="Path 853" d="M173.777,93.718A7.777,7.777,0,1,0,166,85.941,7.777,7.777,0,0,0,173.777,93.718Zm0-14.342a6.567,6.567,0,1,1-6.567,6.567A6.567,6.567,0,0,1,173.777,79.376Z" transform="translate(-158.498 -72.985)" fill="#e74c3c"/>
      <path id="Path_854" data-name="Path 854" d="M109.134,18.228H79.785a.6.6,0,0,0-.6.6V58.716a.6.6,0,0,0,1.033.428l2.507-2.507,2.507,2.507a.605.605,0,0,0,.855,0l2.507-2.507L91.1,59.143a.605.605,0,0,0,.855,0l2.507-2.507,2.507,2.507a.605.605,0,0,0,.855,0l2.507-2.507,2.507,2.507a.605.605,0,0,0,.855,0l2.507-2.507,2.507,2.507a.6.6,0,0,0,1.033-.428V18.833a.6.6,0,0,0-.6-.6Zm-.6,39.027-1.9-1.9a.6.6,0,0,0-.855,0l-2.507,2.507-2.507-2.507a.6.6,0,0,0-.855,0L97.4,57.861l-2.507-2.507a.6.6,0,0,0-.855,0l-2.507,2.507-2.507-2.507a.6.6,0,0,0-.855,0l-2.507,2.507-2.507-2.507a.6.6,0,0,0-.855,0l-1.9,1.9V19.438h28.139Z" transform="translate(-79.18 -18.228)" fill="#182b4c"/>
    </g>
  </g>
</svg>
