<svg xmlns="http://www.w3.org/2000/svg" xmlns:xlink="http://www.w3.org/1999/xlink" width="78" height="79" viewBox="0 0 78 79">
  <defs>
    <linearGradient id="linear-gradient" x1="0.5" x2="0.5" y2="1" gradientUnits="objectBoundingBox">
      <stop offset="0" stop-color="#f5f5f5"/>
      <stop offset="1" stop-color="#fff"/>
    </linearGradient>
  </defs>
  <g id="Group_316" data-name="Group 316" transform="translate(-902.5 -1856)">
    <ellipse id="Ellipse_5" data-name="Ellipse 5" cx="39" cy="39.5" rx="39" ry="39.5" transform="translate(902.5 1856)" fill="url(#linear-gradient)"/>
    <g id="Group_315" data-name="Group 315" transform="translate(927.323 1869.294)">
      <path id="Path_178" data-name="Path 178" d="M144.83,8H123.311A3.315,3.315,0,0,0,120,11.311V56a3.315,3.315,0,0,0,3.311,3.311H144.83A3.315,3.315,0,0,0,148.141,56V11.311A3.315,3.315,0,0,0,144.83,8Zm-6.886,1.655-.466,1.655h-6.9l-.414-1.655ZM146.485,56a1.658,1.658,0,0,1-1.655,1.655H123.311A1.658,1.658,0,0,1,121.655,56V11.311a1.658,1.658,0,0,1,1.655-1.655h5.147l.671,2.684a.828.828,0,0,0,.8.627h8.173a.828.828,0,0,0,.8-.6l.761-2.708h5.167a1.658,1.658,0,0,1,1.655,1.655Z" transform="translate(-120 -8)" fill="#182b4c"/>
      <path id="Path_179" data-name="Path 179" d="M158.621,456h-5.794a.828.828,0,0,0,0,1.655h5.794a.828.828,0,1,0,0-1.655Z" transform="translate(-148.689 -409.651)" fill="#182b4c"/>
      <path id="Path_180" data-name="Path 180" d="M233.655,456h-.828a.828.828,0,0,0,0,1.655h.828a.828.828,0,0,0,0-1.655Z" transform="translate(-220.413 -409.651)" fill="#182b4c"/>
      <g id="Path_216" data-name="Path 216" transform="translate(8.863 17.093)" fill="#fff" stroke-linecap="round" stroke-linejoin="round">
        <path d="M 4.457545280456543 10.52077579498291 C 4.029022216796875 9.987442016601562 3.448007106781006 9.228477478027344 2.872531890869141 8.380397796630859 C 1.182461738586426 5.889737606048584 1.000001788139343 4.78906774520874 1.000001788139343 4.431447505950928 C 1.000001788139343 2.539337635040283 2.539341688156128 0.9999975562095642 4.431451797485352 0.9999975562095642 C 6.323561668395996 0.9999975562095642 7.86290168762207 2.539337635040283 7.86290168762207 4.431447505950928 C 7.86290168762207 4.784607410430908 7.688671588897705 5.869357585906982 6.074801921844482 8.308657646179199 C 5.477006912231445 9.212203025817871 4.886137962341309 9.990963935852051 4.457545280456543 10.52077579498291 Z" stroke="none"/>
        <path d="M 4.431451797485352 1.999997138977051 C 3.090741634368896 1.999997138977051 2.000001907348633 3.090737342834473 2.000001907348633 4.431447505950928 C 2.000001907348633 4.466867446899414 2.018851757049561 5.326777458190918 3.65822172164917 7.757137775421143 C 3.926090240478516 8.15424919128418 4.198223114013672 8.534841537475586 4.455591201782227 8.881679534912109 C 4.7268967628479 8.511899948120117 5.01581335067749 8.100433349609375 5.298821449279785 7.668797492980957 C 6.536011695861816 5.781887531280518 6.86290168762207 4.726097583770752 6.86290168762207 4.431447505950928 C 6.86290168762207 3.090737342834473 5.772161483764648 1.999997138977051 4.431451797485352 1.999997138977051 M 4.431451797485352 -2.86102294921875e-06 C 6.878871917724609 -2.86102294921875e-06 8.86290168762207 1.984027862548828 8.86290168762207 4.431447505950928 C 8.86290168762207 6.861101627349854 4.625802040100098 12.02905368804932 4.434970855712891 12.02905368804932 C 4.433574676513672 12.02905368804932 4.432411670684814 12.02878189086914 4.431451797485352 12.02822780609131 C 4.29932165145874 11.95193767547607 1.9073486328125e-06 6.878877639770508 1.9073486328125e-06 4.431447505950928 C 1.9073486328125e-06 1.984027862548828 1.984031677246094 -2.86102294921875e-06 4.431451797485352 -2.86102294921875e-06 Z" stroke="none" fill="#e74c3c"/>
      </g>
      <g id="Ellipse_10" data-name="Ellipse 10" transform="translate(11.177 19.706)" fill="#fff" stroke="#e74c3c" stroke-width="1">
        <ellipse cx="2" cy="1.5" rx="2" ry="1.5" stroke="none"/>
        <ellipse cx="2" cy="1.5" rx="1.5" ry="1" fill="none"/>
      </g>
    </g>
  </g>
</svg>
