<svg xmlns="http://www.w3.org/2000/svg" xmlns:xlink="http://www.w3.org/1999/xlink" width="71" height="71" viewBox="0 0 71 71">
  <defs>
    <linearGradient id="linear-gradient" x1="0.5" x2="0.5" y2="1" gradientUnits="objectBoundingBox">
      <stop offset="0" stop-color="#f5f5f5"/>
      <stop offset="1" stop-color="#fff"/>
    </linearGradient>
  </defs>
  <g id="Group_1140" data-name="Group 1140" transform="translate(-11797 -820)">
    <g id="Group_734" data-name="Group 734" transform="translate(11797 820)">
      <circle id="Ellipse_4" data-name="Ellipse 4" cx="35.5" cy="35.5" r="35.5" transform="translate(0)" fill="url(#linear-gradient)"/>
    </g>
    <g id="Group_733" data-name="Group 733" transform="translate(11815.617 833.907)">
      <path id="Path_876" data-name="Path 876" d="M175.593,285.269a4.142,4.142,0,0,0-2.571-1.2,4.175,4.175,0,1,0-5.592,0,4.174,4.174,0,0,0-3.8,4.158v6.7a.547.547,0,1,0,1.095,0v-2.186l.963.481a.658.658,0,0,1,.366.592v4.751H164.78a.057.057,0,0,1-.057-.057v-1.392a.547.547,0,1,0-1.095,0v1.391a1.153,1.153,0,0,0,1.152,1.152h10.892a1.153,1.153,0,0,0,1.152-1.152V288.229a4.146,4.146,0,0,0-1.231-2.96Zm-4.643-.12-.68.913a.057.057,0,0,1-.088,0l-.68-.913Zm-3.8-4.175a3.08,3.08,0,1,1,3.08,3.08A3.083,3.083,0,0,1,167.146,280.975Zm-.971,11.267-1.452-.726v-3.286a3.08,3.08,0,0,1,3.1-3.08h.315l1.169,1.571,0,.006a1.152,1.152,0,0,0,1.829,0l0-.006,1.169-1.571h.335a3.08,3.08,0,0,1,3.08,3.08v3.286l-1.452.726a1.747,1.747,0,0,0-.971,1.571v4.751h-6.16v-4.751a1.746,1.746,0,0,0-.971-1.571Zm9.5,6.322H174.4v-4.751a.658.658,0,0,1,.366-.592l.963-.481v5.767a.057.057,0,0,1-.057.057Z" transform="translate(-141.875 -262.291)" fill="#182b4c"/>
      <path id="Path_877" data-name="Path 877" d="M264.854,429.413a1.756,1.756,0,1,0-1.756-1.756A1.758,1.758,0,0,0,264.854,429.413Zm0-2.418a.662.662,0,1,1-.662.662A.662.662,0,0,1,264.854,426.995Z" transform="translate(-234.086 -400.51)" fill="#e74c3c"/>
      <path id="Path_878" data-name="Path 878" d="M-23.07,377.985h-6.505v-.662a1.145,1.145,0,0,0-.637-1.03,1.145,1.145,0,0,0-1.206.109l-3.224,2.418a1.142,1.142,0,0,0-.461.922,1.142,1.142,0,0,0,.461.922l3.224,2.418a1.147,1.147,0,0,0,.69.231,1.153,1.153,0,0,0,.516-.123,1.145,1.145,0,0,0,.637-1.03V381.5h6.505a1.153,1.153,0,0,0,1.152-1.152v-1.209A1.153,1.153,0,0,0-23.07,377.985Zm.057,2.361a.057.057,0,0,1-.057.057h-7.053a.547.547,0,0,0-.547.547v1.209a.051.051,0,0,1-.032.051.051.051,0,0,1-.06-.005l-3.224-2.418a.054.054,0,0,1-.023-.046.054.054,0,0,1,.023-.046l3.224-2.418a.052.052,0,0,1,.033-.013.061.061,0,0,1,.027.007.051.051,0,0,1,.032.051v1.209a.547.547,0,0,0,.547.547h7.053a.057.057,0,0,1,.057.057Z" transform="translate(42.352 -354.41)" fill="#182b4c"/>
      <path id="Path_879" data-name="Path 879" d="M-22.379,478.219-25.6,475.8a1.145,1.145,0,0,0-1.206-.109,1.146,1.146,0,0,0-.637,1.03v.662h-6.506a1.153,1.153,0,0,0-1.152,1.152v1.209a1.153,1.153,0,0,0,1.152,1.152h6.506v.662a1.145,1.145,0,0,0,.637,1.03,1.152,1.152,0,0,0,.516.123,1.148,1.148,0,0,0,.69-.231l3.224-2.418a1.142,1.142,0,0,0,.461-.921A1.142,1.142,0,0,0-22.379,478.219Zm-.657.967L-26.26,481.6a.051.051,0,0,1-.06.005.051.051,0,0,1-.032-.051v-1.209a.547.547,0,0,0-.547-.547h-7.053a.057.057,0,0,1-.057-.057v-1.209a.057.057,0,0,1,.057-.057H-26.9a.547.547,0,0,0,.547-.547v-1.209a.051.051,0,0,1,.032-.051.051.051,0,0,1,.06.005l3.224,2.418a.054.054,0,0,1,.023.046A.054.054,0,0,1-23.036,479.186Z" transform="translate(42.353 -446.554)" fill="#182b4c"/>
      <path id="Path_880" data-name="Path 880" d="M-124.213,78a10.231,10.231,0,0,0-10.22,10.22,10.231,10.231,0,0,0,10.22,10.22,10.23,10.23,0,0,0,6.555-2.379.547.547,0,0,0,.068-.771.547.547,0,0,0-.771-.069,9.133,9.133,0,0,1-5.852,2.124,9.135,9.135,0,0,1-9.125-9.125,9.135,9.135,0,0,1,9.125-9.125,9.135,9.135,0,0,1,9.125,9.125,9.043,9.043,0,0,1-1.847,5.5.547.547,0,0,0,.106.767.547.547,0,0,0,.767-.106,10.13,10.13,0,0,0,2.069-6.166A10.231,10.231,0,0,0-124.213,78Z" transform="translate(134.433 -78)" fill="#182b4c"/>
      <path id="Path_881" data-name="Path 881" d="M-93.5,111.134a7.811,7.811,0,0,0-7.8,7.8,7.811,7.811,0,0,0,7.8,7.8,7.811,7.811,0,0,0,7.8-7.8,7.81,7.81,0,0,0-7.8-7.8Zm0,14.509a6.715,6.715,0,0,1-6.707-6.707,6.715,6.715,0,0,1,6.707-6.707,6.715,6.715,0,0,1,6.707,6.707,6.715,6.715,0,0,1-6.707,6.707Z" transform="translate(103.718 -108.716)" fill="#e74c3c"/>
      <path id="Path_882" data-name="Path 882" d="M-23.124,147.837a.547.547,0,0,0,.547.547.547.547,0,0,0,.547-.547,2.365,2.365,0,0,0-1.814-2.3v-.726a.547.547,0,0,0-.547-.547.547.547,0,0,0-.547.547v.726a2.365,2.365,0,0,0-1.814,2.3,2.365,2.365,0,0,0,1.814,2.3V152.6a1.267,1.267,0,0,1-.719-1.14.547.547,0,0,0-.547-.547.547.547,0,0,0-.547.547,2.365,2.365,0,0,0,1.814,2.3v.726a.547.547,0,0,0,.547.547.547.547,0,0,0,.547-.547v-.726a2.365,2.365,0,0,0,1.814-2.3,2.365,2.365,0,0,0-1.814-2.3V146.7A1.267,1.267,0,0,1-23.124,147.837Zm-2.533,0a1.267,1.267,0,0,1,.719-1.14v2.28A1.267,1.267,0,0,1-25.656,147.837Zm2.533,3.627a1.267,1.267,0,0,1-.719,1.14v-2.28A1.266,1.266,0,0,1-23.124,151.464Z" transform="translate(34.61 -139.431)" fill="#e74c3c"/>
    </g>
  </g>
</svg>
