<svg id="Twitter" xmlns="http://www.w3.org/2000/svg" width="32" height="32" viewBox="0 0 32 32">
  <path id="Subtraction_1" data-name="Subtraction 1" d="M29.333,32H2.667A2.67,2.67,0,0,1,0,29.333V2.667A2.67,2.67,0,0,1,2.667,0H29.333A2.67,2.67,0,0,1,32,2.667V29.333A2.67,2.67,0,0,1,29.333,32ZM8.047,18.03a4.956,4.956,0,0,0,4.2,2.9A11.1,11.1,0,0,1,6,22.838a13.311,13.311,0,0,0,5.809,1.7h1.4C19.823,24.188,25,19.03,25,12.793l-.018-.609a8.056,8.056,0,0,0,.735-.593,11.58,11.58,0,0,0,1.5-1.663,4.645,4.645,0,0,1-2.4.659H24.74l.036-.016a4.145,4.145,0,0,0,1.785-2.142,12.083,12.083,0,0,1-2.065.742l-.105.016-.525.115A4.533,4.533,0,0,0,20.734,8h-.087a5.171,5.171,0,0,0-1.015.1,4.613,4.613,0,0,0-1.348.544l-.315.2a4.348,4.348,0,0,0-1.347,1.6l-.175.4a3.363,3.363,0,0,0-.193.758l0,.016a2.261,2.261,0,0,0-.033.329v.23l.018.363.069.478h-.018l-.193.016h-.122a11.117,11.117,0,0,1-4.2-.873l-.752-.346c-.1-.046-.194-.1-.287-.151l-.115-.063A11.407,11.407,0,0,1,8.345,9.878,12.212,12.212,0,0,1,7.207,8.527a4.444,4.444,0,0,0-.578,2.191,4.8,4.8,0,0,0,.087.873,2.566,2.566,0,0,0,.082.328l.005.017a4.552,4.552,0,0,0,1.4,2.191l.333.264-.42-.083a12.5,12.5,0,0,1-1.593-.494,4.479,4.479,0,0,0,1.156,2.7,4.871,4.871,0,0,0,2.415,1.5l-1.121.066Z" fill="#172b4d"/>
</svg>
