<svg id="Linkedin" xmlns="http://www.w3.org/2000/svg" xmlns:xlink="http://www.w3.org/1999/xlink" width="32" height="32" viewBox="0 0 32 32">
  <defs>
    <clipPath id="clip-path">
      <rect id="Rectangle_91" data-name="Rectangle 91" width="32" height="32" fill="#172b4d" stroke="#ccc" stroke-width="2"/>
    </clipPath>
  </defs>
  <g id="Mask_Group_1" data-name="Mask Group 1" clip-path="url(#clip-path)">
    <g id="iconfinder_11-linkedin_104493_3_" data-name="iconfinder_11-linkedin_104493 (3)" transform="translate(0.12)">
      <path id="Path_196" data-name="Path 196" d="M22.974,20.705v-.059c-.012.02-.025.04-.038.059Z" transform="translate(-5.933 -6.301)" fill="#172b4d"/>
      <path id="Path_197" data-name="Path 197" d="M32.012,3.566h-27A2.315,2.315,0,0,0,2.669,5.853V33.2A2.315,2.315,0,0,0,5.01,35.49h27A2.315,2.315,0,0,0,34.355,33.2V5.853A2.315,2.315,0,0,0,32.012,3.566ZM12.273,30.291H7.488V15.875h4.786ZM9.881,13.906H9.849a2.5,2.5,0,1,1,.063-4.981,2.5,2.5,0,1,1-.031,4.981Zm19.65,16.385H24.745V22.577c0-1.937-.692-3.259-2.424-3.259a2.621,2.621,0,0,0-2.456,1.753,3.284,3.284,0,0,0-.157,1.169V30.29H14.922s.063-13.064,0-14.415h4.786v2.04a4.751,4.751,0,0,1,4.314-2.381c3.148,0,5.509,2.061,5.509,6.489v8.267Z" transform="translate(-2.669 -3.566)" fill="#172b4d"/>
    </g>
  </g>
</svg>
