<svg id="Playstore_icon" data-name="Playstore icon" xmlns="http://www.w3.org/2000/svg" xmlns:xlink="http://www.w3.org/1999/xlink" width="156.355" height="46.565" viewBox="0 0 156.355 46.565">
  <defs>
    <linearGradient id="linear-gradient" x1="11.509" y1="-1.074" x2="9.924" y2="0.514" gradientUnits="objectBoundingBox">
      <stop offset="0" stop-color="#00a0ff"/>
      <stop offset="0.007" stop-color="#00a1ff"/>
      <stop offset="0.26" stop-color="#00beff"/>
      <stop offset="0.512" stop-color="#00d2ff"/>
      <stop offset="0.76" stop-color="#00dfff"/>
      <stop offset="1" stop-color="#00e3ff"/>
    </linearGradient>
    <linearGradient id="linear-gradient-2" x1="9.582" y1="0.237" x2="2.604" y2="0.237" gradientUnits="objectBoundingBox">
      <stop offset="0" stop-color="#ffe000"/>
      <stop offset="0.409" stop-color="#ffbd00"/>
      <stop offset="0.775" stop-color="orange"/>
      <stop offset="1" stop-color="#ff9c00"/>
    </linearGradient>
    <linearGradient id="linear-gradient-3" x1="6.879" y1="-1.9" x2="2.965" y2="1.991" gradientUnits="objectBoundingBox">
      <stop offset="0" stop-color="#ff3a44"/>
      <stop offset="1" stop-color="#c31162"/>
    </linearGradient>
    <linearGradient id="linear-gradient-4" x1="3.857" y1="-1.846" x2="5.602" y2="-0.108" gradientUnits="objectBoundingBox">
      <stop offset="0" stop-color="#32a071"/>
      <stop offset="0.068" stop-color="#2da771"/>
      <stop offset="0.476" stop-color="#15cf74"/>
      <stop offset="0.801" stop-color="#06e775"/>
      <stop offset="1" stop-color="#00f076"/>
    </linearGradient>
    <linearGradient id="linear-gradient-5" x1="281.67" y1="-23.484" x2="261.026" y2="-2.807" gradientUnits="objectBoundingBox">
      <stop offset="0" stop-color="#008de0"/>
      <stop offset="0.007" stop-color="#008de0"/>
      <stop offset="0.26" stop-color="#00a7e0"/>
      <stop offset="0.512" stop-color="#00b8e0"/>
      <stop offset="0.76" stop-color="#00c4e0"/>
      <stop offset="1" stop-color="#00c7e0"/>
    </linearGradient>
    <linearGradient id="linear-gradient-6" x1="12.438" y1="0.9" x2="1.53" y2="0.9" gradientUnits="objectBoundingBox">
      <stop offset="0" stop-color="#e0c500"/>
      <stop offset="0.409" stop-color="#e0a600"/>
      <stop offset="0.775" stop-color="#e09100"/>
      <stop offset="1" stop-color="#e08900"/>
    </linearGradient>
    <linearGradient id="linear-gradient-7" x1="12.437" y1="1.878" x2="1.53" y2="1.878" gradientUnits="objectBoundingBox">
      <stop offset="0" stop-color="#ffe840"/>
      <stop offset="0.409" stop-color="#ffce40"/>
      <stop offset="0.775" stop-color="#ffbc40"/>
      <stop offset="1" stop-color="#ffb540"/>
    </linearGradient>
    <linearGradient id="linear-gradient-8" x1="256.813" y1="17.309" x2="236.24" y2="37.021" gradientUnits="objectBoundingBox">
      <stop offset="0" stop-color="#40b8ff"/>
      <stop offset="0.007" stop-color="#40b9ff"/>
      <stop offset="0.26" stop-color="#40ceff"/>
      <stop offset="0.512" stop-color="#40ddff"/>
      <stop offset="0.76" stop-color="#40e7ff"/>
      <stop offset="1" stop-color="#40eaff"/>
    </linearGradient>
  </defs>
  <path id="Path_1313" data-name="Path 1313" d="M289.027,309.59H144.252a5.823,5.823,0,0,1-5.791-5.821V268.848a5.823,5.823,0,0,1,5.791-5.821H289.025a5.823,5.823,0,0,1,5.791,5.821v34.922a5.823,5.823,0,0,1-5.791,5.821" transform="translate(-138.461 -263.027)"/>
  <path id="Path_1314" data-name="Path 1314" d="M289.027,263.027H144.252a5.823,5.823,0,0,0-5.791,5.821v34.922a5.823,5.823,0,0,0,5.791,5.82H289.025a5.823,5.823,0,0,0,5.791-5.821V268.848a5.823,5.823,0,0,0-5.791-5.821m0,.931a4.883,4.883,0,0,1,4.865,4.89v34.922a4.882,4.882,0,0,1-4.865,4.89H144.252a4.883,4.883,0,0,1-4.865-4.89V268.848a4.883,4.883,0,0,1,4.865-4.89H289.025" transform="translate(-138.461 -263.027)" fill="#a6a6a6"/>
  <path id="Path_1315" data-name="Path 1315" d="M428.242,313.966a3.143,3.143,0,0,1-.862,2.324,3.366,3.366,0,0,1-2.553,1.029,3.636,3.636,0,1,1,0-7.272,3.579,3.579,0,0,1,1.427.291,2.864,2.864,0,0,1,1.087.777l-.61.612a2.343,2.343,0,0,0-1.9-.818,2.782,2.782,0,0,0,0,5.564,2.633,2.633,0,0,0,1.941-.777,2.189,2.189,0,0,0,.583-1.411h-2.523v-.836h3.368a2.974,2.974,0,0,1,.049.525" transform="translate(-373.327 -302.05)" fill="#fff"/>
  <path id="Path_1316" data-name="Path 1316" d="M427.678,313.394h-.116a3.027,3.027,0,0,1-.83,2.242h0a3.251,3.251,0,0,1-2.469.995,3.52,3.52,0,1,1,0-7.036,3.463,3.463,0,0,1,1.381.283,2.751,2.751,0,0,1,1.044.746l.088-.075-.082-.082-.61.612.082.082.09-.074a2.462,2.462,0,0,0-1.992-.867,2.756,2.756,0,0,0-1.978.805,3.031,3.031,0,0,0,0,4.181,2.88,2.88,0,0,0,4,0,2.31,2.31,0,0,0,.617-1.481l.011-.126h-2.535V313h3.252v-.116l-.115.021a2.808,2.808,0,0,1,.047.5h.231a3.081,3.081,0,0,0-.051-.547l-.016-.095h-3.58v1.069h2.639v-.116l-.116-.01a2.078,2.078,0,0,1-.55,1.337,2.649,2.649,0,0,1-3.677,0,2.8,2.8,0,0,1,0-3.849,2.522,2.522,0,0,1,1.818-.74,2.229,2.229,0,0,1,1.813.784l.082.1.7-.7.075-.075-.069-.082a2.974,2.974,0,0,0-1.129-.81,3.693,3.693,0,0,0-1.473-.3,3.752,3.752,0,1,0,0,7.5A3.485,3.485,0,0,0,426.9,315.8l-.083-.08.082.082a3.263,3.263,0,0,0,.9-2.406h-.116m5.338-2.908h-3.163v2.2h2.854v.836h-2.854v2.208h3.165v.856h-4.057v-6.96h4.057v.856" transform="translate(-372.758 -301.48)" fill="#fff"/>
  <path id="Path_1317" data-name="Path 1317" d="M473.743,311.254v-.116H470.47v2.438h2.854v.6H470.47v2.438h3.165v.623h-3.826v-6.729h3.826v.74h.232v-.97h-4.289v7.2h4.289V316.4h-3.173V314.42h2.847v-1.069h-2.847v-1.975h3.165v-.116h-.116m3.764,6.105h-.893V311.26h-1.941V310.4h4.775v.856h-1.941v6.105" transform="translate(-413.483 -302.247)" fill="#fff"/>
  <path id="Path_1318" data-name="Path 1318" d="M501.97,317.36v-.116h-.777v-6.105h-1.941v-.623H503.8v.623h-1.941v6.218h.232v-5.989h1.941v-1.087h-5.007v1.087h1.941v6.105h1.126v-.116h-.116m5.4,0V310.4h.893v6.96h-.893" transform="translate(-437.944 -302.248)" fill="#fff"/>
  <path id="Path_1319" data-name="Path 1319" d="M547.729,317.362h.116v-6.845h.655v6.729h-.777v.116h0v.116h1.008v-7.2h-1.124v7.2h.116v-.116m4.854,0h-.889v-6.105h-1.941V310.4h4.775v.856h-1.941v6.105" transform="translate(-478.308 -302.25)" fill="#fff"/>
  <path id="Path_1320" data-name="Path 1320" d="M562.48,317.169v-.116H561.7v-6.105h-1.941v-.623h4.544v.623h-1.941v6.218h.232v-5.989h1.941v-1.087h-5.007v1.087h1.941v6.105H562.6v-.113h-.116m6.546-1.483a2.669,2.669,0,0,0,3.775,0,2.97,2.97,0,0,0,0-4,2.669,2.669,0,0,0-3.775,0,2.973,2.973,0,0,0,0,4Zm4.436.583a3.6,3.6,0,0,1-5.094,0,3.764,3.764,0,0,1,0-5.161,3.592,3.592,0,0,1,5.091,0,3.752,3.752,0,0,1,0,5.156Z" transform="translate(-488.206 -302.048)" fill="#fff"/>
  <path id="Path_1321" data-name="Path 1321" d="M606.763,315.114l-.082.082a2.782,2.782,0,0,0,3.94,0,3.085,3.085,0,0,0,0-4.16,2.782,2.782,0,0,0-3.94,0,3.088,3.088,0,0,0,0,4.16l.082-.082.082-.082a2.857,2.857,0,0,1,0-3.832,2.555,2.555,0,0,1,3.611,0,2.856,2.856,0,0,1,0,3.832,2.553,2.553,0,0,1-3.611,0Zm4.436.583-.083-.08a3.489,3.489,0,0,1-4.929,0h0a3.649,3.649,0,0,1,0-5,3.476,3.476,0,0,1,4.925,0,3.638,3.638,0,0,1,0,4.994l.083.08.083.08a3.868,3.868,0,0,0,0-5.318,3.706,3.706,0,0,0-5.258,0h0a3.882,3.882,0,0,0,0,5.323h0a3.72,3.72,0,0,0,5.261,0Zm2.276.9v-6.961h1.087l3.378,5.415h.039l-.039-1.342v-4.073h.893v6.96H617.9l-3.533-5.677h-.038l.038,1.342V316.6h-.892" transform="translate(-525.945 -301.483)" fill="#fff"/>
  <path id="Path_1322" data-name="Path 1322" d="M459.051,317.364h.116v-6.845h.907l3.378,5.415h.221l-.041-1.46v-3.955h.655v6.729h-.751L460,311.572h-.221l.041,1.46v4.217h-.776v.116h0v.116h1.008v-4.453l-.038-1.344H459.9v.116h.038v-.116l-.1.062,3.567,5.727h1.113v-7.2H463.4v4.191l.038,1.344h.116v-.116h-.038v.116l.1-.062-3.412-5.469h-1.267v7.2h.116v-.116m36.328,19.722h2.162V322.589h-2.162Zm19.473-9.278-2.477,6.287H512.3l-2.571-6.287H507.4l3.855,8.787-2.2,4.888h2.255l5.942-13.675Zm-12.257,7.63c-.709,0-1.7-.355-1.7-1.232,0-1.119,1.231-1.548,2.291-1.548a3.842,3.842,0,0,1,1.975.491,2.618,2.618,0,0,1-2.571,2.291Zm.26-7.948A4.057,4.057,0,0,0,499,329.708l1.918.8a2.047,2.047,0,0,1,1.975-1.064,2.081,2.081,0,0,1,2.273,1.866v.149a4.774,4.774,0,0,0-2.253-.56c-2.067,0-4.173,1.146-4.173,3.273a3.348,3.348,0,0,0,3.6,3.191,3.049,3.049,0,0,0,2.757-1.419h.074v1.119h2.086V331.5a3.975,3.975,0,0,0-4.4-4.011ZM489.5,329.57h-3.073V324.6H489.5a2.486,2.486,0,1,1,0,4.971Zm-.059-6.981h-5.178v14.5h2.16v-5.5h3.018a4.51,4.51,0,1,0,0-9ZM461.2,335.447a3.014,3.014,0,1,1,2.637-2.991,3,3,0,0,1-2.637,2.991Zm2.481-6.822H463.6a3.412,3.412,0,0,0-2.594-1.1,4.939,4.939,0,0,0,0,9.867,3.358,3.358,0,0,0,2.594-1.121h.075v.71c0,1.888-1.008,2.9-2.631,2.9a2.728,2.728,0,0,1-2.482-1.758l-1.883.786a4.7,4.7,0,0,0,4.366,2.916c2.538,0,4.683-1.5,4.683-5.14v-8.858H463.68Zm3.544,8.467h2.165v-14.5h-2.165Zm5.356-4.785a2.7,2.7,0,0,1,2.574-2.878,1.9,1.9,0,0,1,1.828,1.047Zm6.709-1.636a4.582,4.582,0,0,0-4.217-3.14,4.685,4.685,0,0,0-4.646,4.934,4.824,4.824,0,0,0,4.888,4.934,4.9,4.9,0,0,0,4.106-2.186l-1.679-1.121a2.813,2.813,0,0,1-2.427,1.365,2.507,2.507,0,0,1-2.389-1.5l6.586-2.729Zm-52.476-1.627v2.093h5a4.369,4.369,0,0,1-1.145,2.635,5.114,5.114,0,0,1-3.862,1.533,5.569,5.569,0,0,1,0-11.139,5.324,5.324,0,0,1,3.764,1.5l1.473-1.473a7.282,7.282,0,0,0-5.236-2.113,7.663,7.663,0,1,0,0,15.326,7.093,7.093,0,0,0,7.033-8.355Zm12.831,6.41a3,3,0,1,1,2.782-2.99,2.852,2.852,0,0,1-2.779,2.978Zm0-7.923a4.934,4.934,0,1,0,4.945,4.934,4.86,4.86,0,0,0-4.942-4.947Zm10.787,7.923a3,3,0,1,1,2.782-2.99,2.852,2.852,0,0,1-2.782,2.99Zm0-7.923a4.934,4.934,0,1,0,4.945,4.934,4.858,4.858,0,0,0-4.945-4.934Z" transform="translate(-371.519 -302.123)" fill="#fff"/>
  <path id="Path_1323" data-name="Path 1323" d="M207.273,313.308a2.263,2.263,0,0,0-.62,1.724v25.455a2.346,2.346,0,0,0,.537,1.645l.087.082h0a1.484,1.484,0,0,0,1.023.379,2.656,2.656,0,0,0,1.3-.392l16.811-9.62,5.775-3.306a2.171,2.171,0,0,0,1.214-1.512h0a2.171,2.171,0,0,0-1.214-1.514l-5.775-3.3-16.811-9.62a2.658,2.658,0,0,0-1.3-.392,1.484,1.484,0,0,0-1.023.378Z" transform="translate(-195.102 -304.476)" fill="#00c1ff"/>
  <path id="Path_1324" data-name="Path 1324" d="M207.276,344.06l-.087-.082a2.347,2.347,0,0,1-.537-1.646V316.877a2.264,2.264,0,0,1,.62-1.725l14.35,14.453-14.348,14.452" transform="translate(-195.103 -306.325)" fill="url(#linear-gradient)"/>
  <path id="Path_1325" data-name="Path 1325" d="M299.815,381.3l-4.783-4.793,4.783-4.791L305.59,375a2.162,2.162,0,0,1,1.214,1.505h0a2.162,2.162,0,0,1-1.214,1.5l-5.775,3.286" transform="translate(-268.509 -353.225)" fill="url(#linear-gradient-2)"/>
  <path id="Path_1326" data-name="Path 1326" d="M211.347,414.754a1.488,1.488,0,0,1-1.023-.378h0L224.672,400l4.783,4.793-16.811,9.568a2.665,2.665,0,0,1-1.3.389" transform="translate(-198.151 -376.684)" fill="url(#linear-gradient-3)"/>
  <path id="Path_1327" data-name="Path 1327" d="M224.665,327.68l-14.35-14.372a1.49,1.49,0,0,1,1.023-.376,2.669,2.669,0,0,1,1.3.389l16.811,9.568-4.783,4.791" transform="translate(-198.142 -304.434)" fill="url(#linear-gradient-4)"/>
  <path id="Path_1329" data-name="Path 1329" d="M207.19,476.541a2.324,2.324,0,0,1-.537-1.636v-.164a2.325,2.325,0,0,0,.537,1.636l.087.082-.087.087" transform="translate(-195.102 -438.751)" fill="url(#linear-gradient-5)"/>
  <path id="Path_1330" data-name="Path 1330" d="M323.383,404.915l-.108-.108,5.775-3.286a2.162,2.162,0,0,0,1.214-1.5,1.437,1.437,0,0,1-.134.6,2.485,2.485,0,0,1-1.08,1.075l-5.667,3.225" transform="translate(-291.969 -376.721)" fill="url(#linear-gradient-6)"/>
  <path id="Path_1331" data-name="Path 1331" d="M330.261,375.979a2.162,2.162,0,0,0-1.214-1.505l-5.775-3.286.108-.108h0l5.667,3.225a2.037,2.037,0,0,1,1.214,1.674" transform="translate(-291.966 -352.706)" fill="url(#linear-gradient-7)"/>
  <path id="Path_1332" data-name="Path 1332" d="M206.655,316.45v-.375a2.213,2.213,0,0,1,.53-1.424l.085.085a2.244,2.244,0,0,0-.62,1.715" transform="translate(-195.104 -305.874)" fill="url(#linear-gradient-8)"/>
</svg>
