<svg xmlns="http://www.w3.org/2000/svg" width="74.181" height="18" viewBox="0 0 74.181 18">
  <g id="Vector_Smart_Object" data-name="Vector Smart Object" transform="translate(45.333 11)">
    <g id="Vector_Smart_Object-2" data-name="Vector Smart Object" transform="translate(-45.333 -11)">
      <g id="Group_39" data-name="Group 39" transform="translate(0 0.072)">
        <path id="Path_5" data-name="Path 5" d="M110.5,108.217V97.631h-2.1V95.354h2.1v-.942c0-3.123,1.74-4.113,3.922-4.113h2.348v2.682H114.98c-.906,0-1.228.536-1.228,1.6v.775H116.3v2.277H113.74v10.585H110.5" transform="translate(-108.4 -90.288)" fill="#ea4a35"/>
        <path id="Path_6" data-name="Path 6" d="M188.33,140.522c.167,2.229,1.442,2.611,2.456,2.611h3.755v2.694h-3.755c-2.551,0-5.686-.8-5.686-6.413,0-5.066,2.742-6.413,5.221-6.413s4.959,1.085,4.959,6.413v1.109Zm1.991-5.328c-1.395,0-1.883.8-1.991,3.195h3.8c-.072-2.515-.632-3.195-1.812-3.195" transform="translate(-175.957 -127.898)" fill="#ea4a35"/>
        <path id="Path_7" data-name="Path 7" d="M293.786,108.128h-6.449c-1.931,0-4.637-.894-4.637-6.413s3.552-6.449,5.1-6.449h2.551V90.2H293.8v17.928Zm-3.445-10.264h-1.848c-1.371,0-2.551.334-2.551,3.85s1.025,3.9,2.324,3.9h2.086Z" transform="translate(-261.923 -90.2)" fill="#ea4a35"/>
        <path id="Path_8" data-name="Path 8" d="M389.33,140.522c.167,2.229,1.442,2.611,2.456,2.611h3.755v2.694h-3.755c-2.551,0-5.686-.8-5.686-6.413,0-5.066,2.742-6.413,5.221-6.413s4.959,1.085,4.959,6.413v1.109Zm1.991-5.328c-1.395,0-1.883.8-1.991,3.195h3.8c-.072-2.515-.632-3.195-1.812-3.195" transform="translate(-352.997 -127.898)" fill="#ea4a35"/>
        <path id="Path_9" data-name="Path 9" d="M597.381,145.65c-1.514,0-3.481-.7-3.481-3.8,0-3.314,2.575-4.017,4.637-4.017h2.086V137c0-1.264-.632-1.454-1.74-1.454h-3.874V132.8h4.434c2.408,0,4.435.679,4.435,4.22v8.619Zm3.242-5.913h-.811c-1.788,0-2.67.393-2.67,1.907a1.3,1.3,0,0,0,1.419,1.478h2.062Z" transform="translate(-536.026 -127.722)" fill="#ea4a35"/>
        <path id="Path_10" data-name="Path 10" d="M492.089,145.438v-6.413c0-3.588-1.1-3.9-2.479-3.9h-2.229v10.311H483.9V132.6h6.7c2.062,0,4.959.894,4.959,6.425v6.413Z" transform="translate(-439.138 -127.546)" fill="#ea4a35"/>
      </g>
      <path id="Path_11" data-name="Path 11" d="M693.8,104h1.55a.8.8,0,0,1,.846.8.65.65,0,0,1-.453.727h0c.31.083.405.381.417.679a1.337,1.337,0,0,0,.119.679h-.632a3.023,3.023,0,0,1-.1-.691.457.457,0,0,0-.477-.441h-.632v1.132h-.632Zm.632,1.3h.691c.286,0,.441-.119.441-.417s-.155-.405-.441-.405h-.691Z" transform="translate(-624.017 -102.283)" fill="#ea4a35"/>
      <path id="Path_12" data-name="Path 12" d="M680.859,95.918a3.159,3.159,0,1,1,3.159-3.159A3.159,3.159,0,0,1,680.859,95.918Zm0-5.722a2.563,2.563,0,1,0,2.563,2.563A2.563,2.563,0,0,0,680.859,90.2Z" transform="translate(-609.836 -89.6)" fill="#ea4a35"/>
    </g>
  </g>
</svg>
